<?xml version="1.0" encoding="UTF-8"?><svg id="Layer_1" xmlns="http://www.w3.org/2000/svg" width="181.34" height="210.06" viewBox="0 0 181.34 210.06"><defs><style>.cls-1,.cls-2,.cls-3,.cls-4,.cls-5,.cls-6,.cls-7,.cls-8{stroke-miterlimit:10;}.cls-1,.cls-2,.cls-3,.cls-4,.cls-6,.cls-7,.cls-8{stroke:#683b11;}.cls-1,.cls-9{fill:#683b11;}.cls-2{fill:#925f36;}.cls-3{fill:#fff;}.cls-4{fill:#b17f49;}.cls-5{stroke:#925f36;}.cls-5,.cls-6{fill:#c99d66;}.cls-7{fill:#1d1d1b;}.cls-8{fill:#422918;}.cls-10{fill:#986e3f;}.cls-10,.cls-9{stroke-width:0px;}</style></defs><path class="cls-9" d="m123.92,164.59c2.55-13.1,16.12-12.63,21.87-25.07,4.1-8.88-1.9-11.09-.46-32.6,1.2-17.94,6.21-28.9,8.66-33.6,3.76-7.23,23.24-36.65,27.34-13.75.43,2.41-14.94,8.76-18.68,25.79-4.43,20.2-3.64,12.63-3.52,22.35.14,11.11.03,21.86-1.04,29.8-1.77,13.2-10.52,21.76-15.95,27.08-2.63,2.58-12.78,12.51-16.86,9.53-2.77-2.02-1.46-9.03-1.37-9.53Z"/><path class="cls-4" d="m171.34,66.87c-4.41-5.01-14.09-7.23-17.24-5.01-3.18,2.24.64,8.77,1.85,13.54,2.03,8.03-.99,20.36-23.68,39.12-4.68-7.35-15.23-23.34-34.3-28.07-21.52-5.34-44.55,5.98-57.49,25.51-19.94-17.33-22.61-28.9-20.67-36.56,1.21-4.77,5.03-11.3,1.85-13.54-3.15-2.21-12.83,0-17.24,5.01-8.62,9.8-4.57,43.84,27.56,63.18-4.93,15.81-4.78,33.5,2.65,46.66,21.12,37.41,95.81,28.9,109.8-5.01,5.34-12.95,1.4-28.52-3.36-40.11,34.59-19.01,39.12-54.65,30.26-64.71Z"/><path class="cls-2" d="m170.85,33.41c0-14.44-10.63-26.14-23.75-26.14-8.54,0-16.02,4.96-20.21,12.41-10.74-7.75-24.52-12.41-39.54-12.41s-28.57,4.58-39.27,12.22C45.26,8.53,36.1.5,25.24.5,12.12.5,1.49,12.2,1.49,26.64s10.63,26.14,23.75,26.14c.27,0,.54-.01.82-.02-.53,2.85-.82,5.77-.82,8.75,0,29.95,27.81,54.24,62.11,54.24s62.11-24.28,62.11-54.24c0-.7-.03-1.39-.06-2.08,12.03-1.28,21.44-12.43,21.44-26.01Z"/><path class="cls-6" d="m149.6,74.19c0-11.51-6.44-21.35-15.56-25.44.39-1.62.6-3.3.6-5.03,0-12.89-11.48-23.34-25.64-23.34-8.69,0-16.37,3.94-21,9.96-4.64-6.02-12.31-9.96-21-9.96-14.16,0-25.64,10.45-25.64,23.34,0,2.29.37,4.49,1.04,6.58-9.48,3.89-16.24,13.94-16.24,25.73,0,8.88,3.83,16.76,9.77,21.78,9.29,10.6,29.05,17.92,51.93,17.92,26.88,0,49.45-10.11,55.8-23.77,3.71-4.79,5.95-11,5.95-17.78Z"/><path class="cls-6" d="m150.06,44.71c6.53-.05,14.19-14.42,9.86-21.86-3.24-5.57-13.43-7.66-21.89-.6.26,13.54,6.85,22.5,12.03,22.46Z"/><path class="cls-6" d="m35.41,19.29c-3.2-6.27-18.33-6.69-22.15,1.07-2.87,5.82.4,16.64,10.11,21.38,10.64-6.8,14.58-17.48,12.04-22.45Z"/><ellipse class="cls-1" cx="93.81" cy="82.27" rx="1.91" ry="3.77" transform="translate(-30.72 74.49) rotate(-37.68)"/><ellipse class="cls-1" cx="82.13" cy="82.27" rx="3.77" ry="1.91" transform="translate(-33.19 96.99) rotate(-52.32)"/><path class="cls-8" d="m75.76,98.63c1.98-4.71,21.25-5.41,24.05-.26,1.79,3.3-2.53,10.2-9.44,11.36-8.9,1.5-16.12-7.52-14.61-11.1Z"/><path class="cls-3" d="m102.1,65.18c-.98-15.53,4.42-27.29,9.67-28.29,5.7-1.09,14.86,9.84,16.05,28.27-8.57,0-17.15.02-25.72.02Z"/><path class="cls-7" d="m110.51,65.48c-1.13-14.05,2.14-24.77,5.65-25.74,3.81-1.05,10.31,8.74,11.67,25.41-5.77.11-11.54.22-17.31.32Z"/><ellipse class="cls-3" cx="119.09" cy="47.38" rx="2.28" ry="3.09" transform="translate(-1.68 4.45) rotate(-2.13)"/><ellipse class="cls-3" cx="122.1" cy="52.42" rx=".87" ry="1.18" transform="translate(-1.86 4.56) rotate(-2.13)"/><path class="cls-3" d="m52.02,66.46c-.98-15.53,4.42-27.29,9.67-28.29,5.7-1.09,14.86,9.84,16.05,28.27-8.57,0-17.15.02-25.72.02Z"/><path class="cls-7" d="m60.42,66.76c-1.13-14.05,2.14-24.77,5.65-25.74,3.81-1.05,10.31,8.74,11.67,25.41-5.77.11-11.54.22-17.31.32Z"/><ellipse class="cls-3" cx="69.01" cy="48.65" rx="2.28" ry="3.09" transform="translate(-1.76 2.59) rotate(-2.13)"/><ellipse class="cls-3" cx="72.01" cy="53.69" rx=".87" ry="1.18" transform="translate(-1.94 2.71) rotate(-2.13)"/><path class="cls-1" d="m100.22,35.34c-.2-.71,6.86-10.11,14.94-7.93,4.93,1.33,8.61,6.53,8.37,7.32-.25.82-4.59-3.63-11.07-3.86-7.3-.26-12.07,5.04-12.23,4.47Z"/><path class="cls-1" d="m50.33,36.4c-.2-.71,6.86-10.11,14.94-7.93,4.93,1.33,8.61,6.53,8.37,7.32-.25.82-4.59-3.63-11.07-3.86-7.3-.26-12.07,5.04-12.23,4.47Z"/><path class="cls-5" d="m125.48,208.99c6.06-1.63,12.43-7.46,12.3-14.04-.06-3.01-1.5-7.07-4.1-8.02-3.21-1.18-6.26,3.09-8.66,1.5-1.61-1.07-.75-3.35-2.28-5.01-2.62-2.85-10.36-1.79-14.12,3.51-3.56,5.02-2.38,12.19.46,16.55,4.09,6.31,11.66,6.79,16.4,5.52Z"/><path class="cls-5" d="m65.87,172.59c-8.23-7.73-13.34-21.23-7.29-33.58,5.95-12.15,20.08-17.86,32.8-16.36,14.2,1.68,25.12,12.18,27.79,24.54,2.01,9.28-.4,20.74-9.11,27.98-12.34,10.26-32.67,8.23-44.19-2.58Z"/><path class="cls-10" d="m51.96,116.31c-3.29-1.35-16.28,14.65-17.53,33.91-1.59,24.52,27.86,46,31.27,44.48,2.57-1.15-15.79-14.9-16.03-41.25-.22-23.43,5.02-36.02,2.29-37.14Z"/><path class="cls-10" d="m1.72,78.64c-3.29-1.35,1.25-19.26,0,0-1.59,24.52,27.86,46,31.27,44.48,2.57-1.15-15.79-14.9-16.03-41.25-.22-23.43-12.5-2.11-15.24-3.23Z"/><path class="cls-5" d="m46.95,208.99c-6.06-1.63-12.43-7.46-12.3-14.04.06-3.01,1.5-7.07,4.1-8.02,3.21-1.18,6.26,3.09,8.66,1.5,1.61-1.07.75-3.35,2.28-5.01,2.62-2.85,10.36-1.79,14.12,3.51,3.56,5.02,2.38,12.19-.46,16.55-4.09,6.31-11.66,6.79-16.4,5.52Z"/></svg>