<?xml version="1.0" encoding="UTF-8"?><svg id="Layer_1" xmlns="http://www.w3.org/2000/svg" width="1214" height="808" viewBox="0 0 1214 808"><defs><style>.cls-1{fill:#f2f2f2;}.cls-1,.cls-2,.cls-3,.cls-4,.cls-5,.cls-6,.cls-7,.cls-8,.cls-9,.cls-10,.cls-11,.cls-12,.cls-13,.cls-14,.cls-15,.cls-16,.cls-17,.cls-18,.cls-19,.cls-20,.cls-21,.cls-22,.cls-23,.cls-24{stroke-width:0px;}.cls-2{fill:#f7b51e;}.cls-3{fill:#603813;}.cls-4{fill:#39a935;}.cls-5{fill:#422a20;}.cls-6{fill:#d9e021;}.cls-7{fill:#c7b299;}.cls-8{fill:#c69c6d;}.cls-9{fill:#d3ff94;}.cls-10{fill:#dffff8;}.cls-11{fill:#a67c52;}.cls-12{fill:#009ee2;}.cls-13{fill:#ff7bac;}.cls-14{fill:#925f36;}.cls-15{fill:#7f4400;}.cls-16{fill:#fff1bf;}.cls-17{fill:#ffe8b8;}.cls-18{fill:#ffe84a;}.cls-19{fill:#ff1d25;}.cls-20{fill:#ffd28a;}.cls-21{fill:#f29100;}.cls-22{fill:#025500;}.cls-23{fill:#009245;}.cls-24{fill:#007f2b;}</style></defs><rect class="cls-20" x="1035" y="2" width="179" height="179"/><rect class="cls-2" x="207" y="1" width="179" height="179"/><rect class="cls-17" x="826" y="1" width="177" height="181"/><rect class="cls-18" x="413" y="1" width="178" height="178"/><rect class="cls-16" x="619" width="180" height="180"/><rect class="cls-21" y="1" width="180" height="180"/><rect class="cls-7" y="209" width="179" height="181"/><rect class="cls-23" x="621" y="420" width="179" height="181"/><rect class="cls-24" x="414" y="418" width="179" height="181"/><rect class="cls-22" x="207" y="420" width="179" height="181"/><rect class="cls-6" x="1034" y="419" width="179" height="181"/><rect class="cls-4" x="828" y="420" width="179" height="181"/><rect class="cls-5" y="418" width="179" height="181"/><rect class="cls-9" y="627" width="179" height="181"/><rect class="cls-1" x="207" y="627" width="179" height="181"/><rect class="cls-10" x="414" y="627" width="179" height="181"/><rect class="cls-12" x="621" y="627" width="179" height="181"/><rect class="cls-13" x="828" y="627" width="179" height="181"/><rect class="cls-19" x="1035" y="627" width="179" height="181"/><rect class="cls-8" x="208" y="208" width="178" height="182"/><rect class="cls-11" x="415" y="208" width="178" height="182"/><rect class="cls-14" x="620" y="209" width="178" height="182"/><rect class="cls-15" x="826" y="209" width="178" height="182"/><rect class="cls-3" x="1035" y="208" width="178" height="182"/></svg>