<?xml version="1.0" encoding="UTF-8"?>
<svg id="Layer_3" data-name="Layer 3" xmlns="http://www.w3.org/2000/svg" viewBox="0 0 47.12 180">
  <defs>
    <style>
      .cls-1 {
        fill: #009245;
      }
    </style>
  </defs>
  <path class="cls-1" d="M1,179c-.33-36.33-.67-72.67-1-109,.04-9.92,3.04-15.09,6-18,3.42-3.36,6.35-3.27,9-7,3.32-4.66,2.51-10.06,2-16-.58-6.75-.93-16.14,0-28,2.67-.33,5.33-.67,8-1-.53,10.58-.34,19.42,0,26,.58,11.23,1.51,14.47,4,17,4.4,4.48,9.59,2.6,14,7,4.08,4.08,4.36,10.42,4,15-.33,38.33-.67,76.67-1,115-15-.33-30-.67-45-1Z"/>
</svg>