<?xml version="1.0" encoding="UTF-8"?><svg id="Layer_1" xmlns="http://www.w3.org/2000/svg" width="164" height="164" xmlns:xlink="http://www.w3.org/1999/xlink" viewBox="0 0 164 164"><defs><style>.cls-1{fill:#fbb03b;filter:url(#drop-shadow-2);}.cls-1,.cls-2{stroke-width:0px;}.cls-2{fill:#ff1d25;}</style><filter id="drop-shadow-2" filterUnits="userSpaceOnUse"><feOffset dx="7" dy="7"/><feGaussianBlur result="blur" stdDeviation="5"/><feFlood flood-color="#4c3818" flood-opacity=".5"/><feComposite in2="blur" operator="in"/><feComposite in="SourceGraphic"/></filter></defs><circle class="cls-1" cx="75" cy="75" r="67"/><path class="cls-2" d="m84.48,93.25h-18.55v-1.86c0-3.16.36-5.72,1.07-7.69.72-1.97,1.78-3.77,3.2-5.4,1.42-1.63,4.6-4.49,9.55-8.59,2.64-2.15,3.96-4.12,3.96-5.91s-.53-3.18-1.59-4.17c-1.06-.99-2.66-1.49-4.81-1.49-2.31,0-4.22.77-5.74,2.29-1.51,1.53-2.48,4.2-2.91,8.01l-18.95-2.34c.65-6.97,3.18-12.57,7.59-16.82,4.41-4.25,11.17-6.37,20.29-6.37,7.1,0,12.83,1.48,17.19,4.44,5.92,4,8.89,9.34,8.89,16.02,0,2.77-.77,5.44-2.29,8.01-1.53,2.57-4.66,5.71-9.38,9.42-3.29,2.6-5.36,4.7-6.23,6.27-.86,1.58-1.29,3.64-1.29,6.18Zm-19.19,4.93h19.87v17.53h-19.87v-17.53Z"/></svg>