<?xml version="1.0" encoding="UTF-8"?><svg xmlns="http://www.w3.org/2000/svg" width="1600" height="900" xmlns:xlink="http://www.w3.org/1999/xlink" viewBox="0 0 1600 900"><defs><style>.cls-1,.cls-2,.cls-3,.cls-4,.cls-5,.cls-6,.cls-7,.cls-8,.cls-9,.cls-10,.cls-11,.cls-12,.cls-13,.cls-14,.cls-15,.cls-16,.cls-17,.cls-18,.cls-19,.cls-20,.cls-21,.cls-22,.cls-23{stroke-miterlimit:10;}.cls-1,.cls-5,.cls-7,.cls-11,.cls-16,.cls-17,.cls-18{stroke:#1d1d1b;}.cls-2,.cls-8,.cls-9,.cls-10,.cls-14,.cls-15,.cls-19,.cls-20,.cls-21{stroke:#683b11;}.cls-2,.cls-24{fill:#683b11;}.cls-3{stroke:#603813;}.cls-3,.cls-4,.cls-5,.cls-9{fill:#925f36;}.cls-4{stroke:#754c24;}.cls-6{fill:#ffd28a;}.cls-6,.cls-22{stroke:#c69c6d;}.cls-7{fill:#009ee2;}.cls-8{fill:#ff7bac;}.cls-10,.cls-11{fill:#fff;}.cls-12{fill:#f29100;stroke:#f15a24;}.cls-13{fill:#dffff8;stroke:#000;}.cls-14,.cls-25{fill:#a67c52;}.cls-15{fill:#c99d66;}.cls-16{fill:#bd1622;}.cls-17,.cls-19{fill:#1d1d1b;}.cls-18,.cls-20{fill:#422918;}.cls-21{fill:#c69c6d;}.cls-22,.cls-26{fill:#754c24;}.cls-23{stroke:#b3b3b3;}.cls-23,.cls-27{fill:#f2f2f2;}.cls-28{fill:#ffff2a;}.cls-28,.cls-29{opacity:.5;}.cls-28,.cls-29,.cls-30,.cls-27,.cls-31,.cls-32,.cls-26,.cls-33,.cls-34,.cls-35,.cls-36,.cls-37,.cls-38,.cls-25,.cls-39,.cls-40,.cls-41,.cls-42,.cls-43,.cls-44,.cls-45,.cls-46,.cls-47,.cls-24,.cls-48,.cls-49{stroke-width:0px;}.cls-29{fill:#ffe84a;}.cls-50{opacity:.3;}.cls-51{opacity:.7;}.cls-30{fill:#d3ff94;filter:url(#drop-shadow-1);}.cls-31{fill:#f7b51e;}.cls-32{fill:#603813;}.cls-33{fill:#39a935;}.cls-34{fill:#422a20;}.cls-35{fill:#422a18;}.cls-36{fill:#d9e021;}.cls-37{fill:#c7b299;}.cls-38{fill:#dfffb2;}.cls-39{fill:#8c6239;}.cls-40{fill:#7f4400;}.cls-41{fill:#fff1bf;}.cls-42{fill:#ffe8b8;}.cls-43{fill:#fff2d7;}.cls-44{fill:#f7931e;}.cls-45{fill:#025500;}.cls-46{fill:#003f0c;}.cls-47{fill:#006837;}.cls-48{fill:#009245;}.cls-49{fill:#007f2b;}</style><filter id="drop-shadow-1" filterUnits="userSpaceOnUse"><feOffset dx="7" dy="7"/><feGaussianBlur result="blur" stdDeviation="5"/><feFlood flood-color="#4c3818" flood-opacity=".5"/><feComposite in2="blur" operator="in"/><feComposite in="SourceGraphic"/></filter></defs><g id="Layer_1"><path class="cls-13" d="m56.77-.73C32.76-.64,12.99-.68-.23-.73v150c0,49.67,0,99.33,0,149-.01,259.97-1.53,259.55,0,266,21.91,92.12,328.13,160.47,1601,47-1.14-99-1.81-198-2-297-.2-104.99.13-209.99,1-315-219.67-.52-439.34-.85-659-1-179.67-.12-359.34-.12-539,0h-44c-20.33,0-40.67,0-61,0-125.88,0-117.98-.16-139,0-42.81.33-52.58.82-101,1Z"/><path class="cls-41" d="m.77,500.27c70.05-28.82,125.12-31.18,161.19-28.6,81.85,5.85,119.01,37.26,228,49.78,165.33,19,214.76-59.69,389-92.19,229.45-42.8,338.15,117.67,658,70.06,71.96-10.71,128.68-29.88,162.81-43.05v443h-240c-26.33,1-52.67,2-79,3-57.33-1.45-114.66-2.45-172-3-70.66-.68-141.32-.68-212,0H-.23C.1,766.27.44,633.27.77,500.27Z"/><path class="cls-42" d="m91.19,677.27c13.61-57.15-36.54-83.54-8.47-119,24.69-31.19,84.86-37.78,95.99-39,105.17-11.52,136.28,59.64,249.84,63,98.63,2.91,121.92-49.39,220.2-40,67.04,6.4,141.97,38.94,145.39,73,5.12,51-143.13,118.67-285.13,126-101.89,5.26-161.76-22.56-203.26,6-43.98,30.26-2.97,79.52-52.23,111-36.61,23.4-100.05,22.26-145.39,7-43.01-14.47-79.76-45.03-83.28-79-4.64-44.74,52.83-52.24,66.34-109Z"/><g class="cls-51"><path class="cls-28" d="m236.03,64.75c9.49-8.83,48.36,61.51,80.09,51.13,31.3-10.24,36.83-92.92,47.79-91.08,11.34,1.9-.65,89.23,25.83,105.46,27.8,17.03,81.23-54.48,89.13-44.74,6.76,8.34-37.07,55.08-27.13,92.68,10.83,40.95,78.77,45.77,77.5,57.53-1.36,12.64-79.04-.93-89.13,30.36-7.16,22.2,24.01,53.54,18.08,62.32-8.27,12.24-66.85-51.56-94.3-30.36-21.36,16.49-12.03,75.29-20.67,76.7-10.8,1.76-17.68-91.43-47.79-99.07-26.13-6.63-56.64,54.46-62,49.54-5.49-5.04,36.67-59.82,24.54-99.07-13.9-45-92.64-48.51-91.71-55.93.85-6.84,65.73,12.51,81.38-17.58,14.2-27.3-20.08-80.02-11.63-87.89Z"/><circle class="cls-29" cx="356.27" cy="212.77" r="90"/></g><path class="cls-35" d="m1594.7,744.05c23.21-94.71-12.91-285.21-48.99-382.97-58.67-158.95-159.98-188.59-146.38-258.89,6.34-32.76,34.95-60.47,62.73-62.86,91.99-7.92,118.27,266.49,253.33,548.39,11.53,24.07,40.38,82.68,27.48,140.61-11.42,51.3-49.26,73.68-54.97,76.92-34.13,19.36-81.52,14.71-93.8-16.54-6.68-17-1.2-37.33.6-44.67Z"/><path class="cls-34" d="m33.51,750.05c-23.21-94.71,12.91-285.21,48.99-382.97,58.67-158.95,159.98-188.59,146.38-258.89-6.34-32.76-34.95-60.47-62.73-62.86-91.99-7.92-118.27,266.49-253.33,548.39-11.53,24.07-40.38,82.68-27.48,140.61,11.42,51.3,49.26,73.68,54.97,76.92,34.13,19.36,81.52,14.71,93.8-16.54,6.68-17,1.2-37.33-.6-44.67Z"/><path class="cls-47" d="m367.23,237.05c28.29-93.15,107.57-139.01,124.97-149.08,9.97-5.77,18.97-10.09,27.07-13.35-13.01-12.86-26.19-22.74-43.02-29.88-65.7-27.9-133.39,8.54-136.75-1.11-3.1-8.9,51.31-48.95,121.07-59.55,38.56-5.86,73.22-1.41,102.05,6.8-39.64-29.86-90.22-35.25-88.13-42.2,2.35-7.82,69.22-10.55,132.51,15,1.11.45,2.21.91,3.3,1.37,2.65-1.18,5.41-2.36,8.31-3.52,18.64-7.5,103.59-41.66,194.12-6.41,64.65,25.17,106.14,75.62,100.63,83.59-5.97,8.64-61.36-41.14-132.9-28.13-12.1,2.2-22.98,5.9-33.66,10.94,36.96,8.96,92.46,30.16,133.62,81.83,42.61,53.51,52.7,118.19,43.97,122.58-9.46,4.76-31.76-66.05-99.5-89.12-24.99-8.51-48.65-7.96-79.03-4.63.02,1.22.02,2.4-.01,3.53,26.42,25.52,56.77,65.28,67.78,120.71,13.36,67.2-7.07,130.38-16.77,130.58-10.51.21,1.92-73.87-47.43-124.32-22.33-22.83-49.07-32.4-88.08-45.69-12.57.05-24.49-2.4-33.51-7.87-3.43-1.03-6.45-2.59-9.24-4.68-.93-.22-1.85-.44-2.76-.65-25.53,20.11-43.52,35.92-55.86,58.78-30.62,56.73-1.43,110.59-10.67,114.07-8.52,3.21-42-39.33-46.96-96.72-2.28-26.32,1.86-50.91,8.87-72.57-33.92,10.06-58.47,18.89-80.57,38.53-54.41,48.36-49.58,122.78-60.05,122.15-9.65-.58-23.58-64.46-3.37-130.98Z"/><path class="cls-48" d="m1271.89,253.82c-22.28-91.22-95.6-137.53-111.68-147.69-9.22-5.82-17.59-10.22-25.15-13.56,13.06-12.23,26.14-21.56,42.55-28.15,64.09-25.74,126.82,11.16,130.52,1.84,3.41-8.6-46.48-48.71-112.49-60.51-36.49-6.52-69.78-2.94-97.7,4.44,39.33-28.2,87.85-32.37,86.21-39.17-1.85-7.66-65.51-11.74-127.17,11.77-1.08.41-2.15.83-3.22,1.26-2.47-1.2-5.04-2.41-7.75-3.6-17.4-7.69-96.72-42.74-184.87-10.37-62.95,23.11-105.08,71.3-100.23,79.17,5.26,8.54,60.62-38.71,128.21-24.53,11.43,2.4,21.63,6.23,31.56,11.36-35.71,7.93-89.74,27.36-131.61,76.76-43.36,51.15-56.25,113.85-48.14,118.3,8.79,4.83,33.63-63.57,99.43-84.57,24.27-7.75,46.82-6.7,75.62-2.82-.08,1.18-.14,2.33-.17,3.44-26.5,24.26-57.46,62.29-70.77,115.98-16.14,65.08.16,126.99,9.4,127.38,10.02.43,1.91-71.9,51.53-119.92,22.46-21.73,48.45-30.47,86.34-42.57,11.99.32,23.48-1.81,32.37-6.94,3.33-.93,6.29-2.38,9.05-4.35.9-.2,1.78-.39,2.66-.57,23.34,20.11,39.71,35.87,50.32,58.37,26.34,55.84-4.23,107.61,4.41,111.2,7.96,3.31,42.05-37.36,49.69-93.09,3.5-25.55.8-49.56-4.79-70.79,31.86,10.51,54.83,19.63,74.92,39.2,49.46,48.2,41.1,120.5,51.12,120.11,9.24-.36,25.75-62.21,9.84-127.35Z"/><path class="cls-40" d="m1390.2,742.65c61.21-61.82,91.78-227.88,87.87-321.93-6.37-152.92-108.56-226.95-67.17-274.67,19.28-22.24,61.58-29.34,93.52-17.2,105.76,40.17,32.93,266.41,78.88,553.24,3.92,24.49,14.33,84.51-21.65,122.99-31.87,34.07-82.49,32.39-90.08,32.03-45.35-2.16-96.58-29.63-98.67-60.08-1.14-16.56,12.56-29.58,17.3-34.37Z"/><path class="cls-32" d="m1490.95,578.83c1.96-46.87,7.21-172.65-9.25-257.2-13.2-67.83-40.34-108.96-35.85-114.29,3.28-3.9,17.89,18.05,19.66,20.73,9.97,15.1,30.8,51.76,43.4,160.25,1.33,11.47,13.51,121.05-5.43,191.27-1.86,6.88-7.55,28-10.68,27.64-3.1-.35-2.13-21.52-1.84-28.4Z"/><path class="cls-45" d="m1701.03,172.19c-55.03-66.05-135.31-76.13-152.92-78.35-10.1-1.27-18.9-1.7-26.62-1.57,6.17-14.92,13.5-27.48,24.74-39.07,43.88-45.23,111.5-38.83,110.91-47.83-.54-8.31-58.58-22.2-118.99-6.88-33.39,8.47-60.08,23.98-80.72,40.55,22-37.89,61.32-59.63,57.22-64.56-4.6-5.55-59.96,15.17-102.69,57.67-.75.75-1.48,1.49-2.22,2.24-2.56-.05-5.21-.06-7.97-.01-17.74.3-98.62,1.67-160.19,61.41-43.97,42.66-60.4,97.92-53.18,102.51,7.83,4.98,35.8-54.51,98.49-68.48,10.6-2.36,20.73-3.09,31.15-2.65-27,19.97-64.89,56.25-80.63,112.4-16.3,58.14-2.28,114.2,6.33,114.77,9.34.62,3.15-64.61,50.36-106.62,17.42-15.5,36.86-23.17,62.73-30.88.4,1,.81,1.96,1.22,2.87-12.74,29.82-23.77,72.57-13.69,121.42,12.22,59.23,50.55,103.6,58.51,100.43,8.63-3.44-26.94-59.41-4.11-117.37,10.33-26.23,28.81-43.18,55.99-67.38,10.25-4.27,19.11-10.36,24.57-17.9,2.44-2.01,4.36-4.32,5.92-6.98.68-.5,1.35-.99,2.02-1.47,27.68,7.59,47.76,14.28,65.66,28.63,44.41,35.63,39.16,89.44,47.87,89.1,8.03-.31,20.67-46.39,4.99-94.77-7.19-22.18-19.01-40.76-32.15-55.97,31.07-3.46,54.08-4.7,78.81,3.68,60.89,20.65,82.54,82.83,90.84,78.72,7.66-3.79-2.96-60.51-42.26-107.67Z"/><path class="cls-48" d="m1381.41,251.47c9.55-36.33,20.99-74.95,27.83-100.89,15.2-23.89,13.25-62.8-8.14-78.89-21.25-15.99-53.79-3.53-81,6.89-56.54,21.65-88.03,61.46-86.35,63.35,1.9,2.14,43.59-47.65,88.06-39.03,22.49,4.35,43.68,23.25,41.33,36.09-1.85,10.12-17.36,11.24-37.21,21.85-43.97,23.5-65.18,70-60.66,73.99,3.71,3.27,22.97-23.63,69.52-46.95,15.62-7.83,27.7-11.94,37.44-15-2.73,18.52-4.69,37.98-6.86,53.47-11.58,82.61-.61,160.92,4.56,159.13,4.15-1.44-8.87-56.5,11.5-134.01Z"/><path class="cls-39" d="m1284.77,930.17c49.72-106.12,29.79-333.77-5.84-453.6-57.93-194.83-199.62-246.65-167.97-326.05,14.75-37,60.89-64.31,101.54-62.33,134.57,6.55,125.96,330.06,273.63,680.92,12.61,29.95,44.42,103.04,15.89,168.18-25.26,57.68-83.86,77.22-92.68,80.01-52.72,16.66-120.55,3.13-133.03-35.3-6.79-20.9,4.61-43.61,8.46-51.82Z"/><path class="cls-26" d="m1346.06,675.31c-13.27-61.39-48.9-226.14-95.76-328.32-37.6-81.98-82.33-123.48-78.95-132.28,2.47-6.44,26.49,15.65,29.41,18.35,16.43,15.23,52.45,53.67,102.82,188.42,5.32,14.24,55.57,150.6,57.1,249.44.15,9.68.61,39.41-3.1,40.29-3.67.87-9.57-26.89-11.52-35.9Z"/><path class="cls-49" d="m1452.31,59.86c-84.97-61.73-180.36-40.33-201.29-35.64-12,2.69-22.24,5.91-31.04,9.39,2.14-21.92,6.39-41.29,15.44-61.08,35.34-77.26,114.99-97.98,111.34-109.36-3.37-10.5-74.52-3.56-138.71,42.14-35.48,25.26-60.95,56.74-79.13,87,12.69-58.38,50.57-103.33,44.24-107.95-7.12-5.2-63.73,45.32-98.65,118.55-.61,1.29-1.21,2.57-1.8,3.85-2.95,1.03-6,2.16-9.15,3.4-20.25,8-112.53,44.45-163.35,148.03-36.29,73.96-36.84,152.41-27.04,155.25,10.63,3.08,23-85.78,90.26-130.71,11.37-7.6,22.75-12.88,34.84-16.79-24.35,37.38-55.78,100.51-55.24,179.79.56,82.11,35.19,148.51,45.26,145.56,10.91-3.2-17.78-84.82,22.44-159.34,14.84-27.49,34.6-45.74,61.7-66.8.79,1.12,1.57,2.18,2.35,3.18-4.73,43.99-3.23,103.95,24.5,162.74,33.62,71.28,92.27,112.17,100.34,104.66,8.75-8.14-50.56-65.21-43.57-149.88,3.16-38.32,18.73-68.14,41.89-111.07,10.33-9.91,18.48-21.57,22.25-33.66,2.13-3.65,3.57-7.45,4.47-11.55.61-.94,1.22-1.86,1.83-2.77,34.26-2.06,59.5-2.04,84.76,8.83,62.72,26.98,74.52,98.76,84.39,94.59,9.11-3.85,8.34-68.8-25.66-124.58-15.59-25.58-35.29-44.51-55.4-58.53,34.47-17.8,60.45-29.27,91.58-29.04,76.66.57,122.06,71.62,130.23,62.75,7.53-8.18-23.43-76.91-84.1-120.99Z"/><path class="cls-48" d="m1112.07,299.36c-1.08-51.03-.75-105.83-1.5-142.28,9.51-37.38-5.6-86.81-35.45-98.43-29.66-11.54-62.85,18.51-90.6,43.64-57.67,52.22-80.59,117.16-78.04,118.88,2.89,1.95,34.2-80.25,88.04-88.19,27.23-4.02,57.78,11.31,59.34,28.91,1.23,13.86-16.18,21.97-35.43,44.19-42.63,49.22-51.56,118.39-45.05,121.6,5.34,2.64,18.51-40.37,64.16-90.47,15.32-16.81,27.81-27.3,37.96-35.44,3.01,25.1,7.19,51.08,9.83,72.02,14.08,111.69,52.57,208.16,57.91,203.63,4.28-3.63-28.87-69.19-31.19-178.06Z"/><path class="cls-25" d="m1491.32,871.69c33.07-91.72-18.39-276.2-69.8-370.87-83.58-153.93-227.91-182.64-208.54-250.72,9.03-31.73,49.79-58.56,89.37-60.88,131.06-7.67,168.49,258.07,360.9,531.08,16.43,23.31,57.53,80.07,39.15,136.17-16.27,49.68-70.17,71.36-78.31,74.5-48.62,18.75-116.13,14.25-133.63-16.02-9.52-16.46-1.71-36.15.85-43.26Z"/><path class="cls-33" d="m1536.28,195.58c-69.7-69.32-163.24-73.29-183.77-74.16-11.76-.5-21.97-.17-30.85.68,5.71-17.37,12.98-32.19,24.86-46.28,46.35-54.98,124.94-53.99,123.42-64.08-1.4-9.3-69.66-19.61-137.89,3.2-37.72,12.61-67.03,32.53-89.28,53.1,21.81-44.69,65.1-72.8,59.92-77.98-5.83-5.83-67.73,22.61-113.01,74.41-.79.91-1.57,1.82-2.34,2.73-2.96.18-6.02.41-9.2.72-20.44,1.97-113.59,10.96-178.97,83.9-46.69,52.09-60.44,115.84-51.68,120.35,9.5,4.89,36.15-64.69,107.15-86.19,12-3.64,23.62-5.39,35.68-5.85-29.26,24.98-69.54,69.33-82.4,134.01-13.32,66.98,8.13,128.83,18.12,128.68,10.83-.16-2.45-73.06,48.04-124.71,18.63-19.06,40.33-29.49,69.44-40.55.56,1.09,1.12,2.13,1.68,3.12-11.88,34.76-20.58,83.92-4.35,138.02,19.67,65.58,68.07,112.03,76.95,107.73,9.63-4.67-36.67-64.44-15.8-131.82,9.44-30.49,29.15-51.29,58.23-81.05,11.41-5.76,21.06-13.42,26.65-22.42,2.63-2.49,4.62-5.27,6.17-8.4.74-.62,1.47-1.24,2.19-1.84,32.65,6,56.44,11.68,78.43,26.2,54.58,36.04,53.6,97.13,63.61,95.95,9.24-1.09,19.47-54.15-3.18-107.2-10.38-24.32-25.76-44.16-42.36-60.08,35.5-6.76,61.93-10.27,91.24-3.1,72.18,17.66,103,85.69,112.19,80.3,8.48-4.97-9.12-67.88-58.89-117.38Z"/><path class="cls-14" d="m1306.48,296.12c-2.79-2.67-9.18-8.67-12.57-7.08-3.73,1.76-1.89,11.81-1.23,15.36,7.11,38.71,63.86,89.88,62.58,142.98-.16,6.44-1,41.38-20.77,51.35-3.22,1.62-7.39,2.82-9.94,5.29-6.96-1.96-14.33-2.69-21.77-1.9-32,3.43-46.37,33.03-50.42,41.37-2.81,5.78-17.11,35.24-2.86,55.3,19.24,27.07,83.6,27.32,108.64-5.14,11.91-15.43,14.87-38.19,5.47-57.5-3.53-7.24-8.69-13.78-14.98-19.18,1.51-2.23,3.04-4.81,4.7-7.63,8.18-13.89,10.72-26.23,11.09-28.15,7.38-37.63,4.02-65.45,4.02-65.45s-8.27-68.32-61.97-119.63Z"/><path class="cls-14" d="m1235.16,562.12c-8.52,11.63,16.22,27.24,20.11,63.2,2.46,22.74-4.72,41.7-10.65,48.15-.68.74-2.59,3.05-6.41,7.67-7.22,8.74-8.52,10.64-7.91,12.7.88,2.99,5.57,5.65,9.06,4.77,7.57-1.91,8.06-20.19,9.6-20.02,1.62.18-2.1,20.17,5.51,23.77,2,.95,4.82.77,6.5-.57,6.15-4.94-3.6-25.42-3.6-25.42,0,0,3.65,19.33,12.56,21.04,1.95.38,4.71.02,5.61-1.48,2.24-3.74-9.79-10.08-12.08-21.46-1.24-6.14,1.01-10.56,2.96-15.98,3.87-10.76,4.2-20.6,4.86-40.27.6-17.98-2.26-56.82-19.26-61.41-5.55-1.5-13.31.46-16.86,5.32Z"/><path class="cls-9" d="m1226.15,502.34c-13.4-6.4-29.83-1.27-36.7,11.46-4.47,8.29-3.78,17.75.94,25.12-12.82,6.99-24.35,18.3-32.22,32.88-7.8,14.46-10.7,29.77-9.22,43.54-11.65-2.12-23.9,3.21-29.59,13.75-6.87,12.73-1.57,28.24,11.83,34.64,13.4,6.4,29.83,1.27,36.7-11.46.14-.27.27-.53.41-.8,2.37,1.78,4.93,3.35,7.69,4.67,27.81,13.28,64.91-2.95,82.87-36.25,17.96-33.3,9.98-71.06-17.83-84.34-.65-.31-1.31-.59-1.96-.86,5.12-12.25-.32-26.33-12.92-32.35Z"/><path class="cls-15" d="m1252.89,541.05c-10.68-5.1-23.19-3.22-31.76,3.83-1.3-1.1-2.75-2.05-4.35-2.82-11.96-5.71-27.67.8-35.09,14.54-4.55,8.44-4.91,17.63-1.75,24.8-8.01,1.83-15.69,7.54-20.24,15.97-7.41,13.75-3.73,29.52,8.24,35.24,2.12,1.01,4.36,1.63,6.65,1.91-1.35,10.93,4.44,21.94,15.38,27.17,8.24,3.94,17.57,3.71,25.34.17,14.71-4.31,31.85-20.25,43.82-42.46,14.07-26.09,16.51-52.49,7.15-64.7-2.51-5.72-7.09-10.65-13.39-13.66Z"/><path class="cls-15" d="m1225.76,527.54c3.37-6.37-5.95-20.16-15.13-19.26-6.87.67-14.14,9.64-12.02,20.99,12.71,5.75,24.47,3.33,27.14-1.72Z"/><path class="cls-15" d="m1142.14,627.55c-7.5.33-15.81,14.82-10.6,21.98,3.9,5.36,15.66,6.99,25.14-.34-.74-13.35-8.59-21.9-14.54-21.64Z"/><ellipse class="cls-2" cx="1231.53" cy="595.76" rx="7.45" ry="3.78" transform="translate(-110.56 330.45) rotate(-14.63)"/><ellipse class="cls-2" cx="1223.84" cy="610.02" rx="3.93" ry="7.17" transform="translate(-126.28 827.02) rotate(-35.62)"/><path class="cls-20" d="m1236.91,623.57c-3.33-4.01,6.11-23.03,12.35-23.46,4-.28,8.14,6.98,5.61,14.2-3.27,9.3-15.42,12.32-17.96,9.26Z"/><path class="cls-10" d="m1219.66,583.17c-14.93-5.93-23.02-16.39-21.2-21.93,1.98-6.02,16.92-10.07,34.64-3.04-4.48,8.33-8.96,16.65-13.44,24.98Z"/><path class="cls-19" d="m1224.34,575.14c-13.64-5.13-21.87-13.06-20.94-16.89,1.02-4.16,13.51-6.13,29.7-.06-2.92,5.65-5.84,11.3-8.76,16.95Z"/><ellipse class="cls-10" cx="1212.03" cy="558.78" rx="2.51" ry="3.2" transform="translate(301.52 1534.6) rotate(-71.73)"/><ellipse class="cls-10" cx="1218.28" cy="558.1" rx=".95" ry="1.21" transform="translate(306.46 1540.07) rotate(-71.73)"/><path class="cls-10" d="m1194.62,632.35c-14.93-5.93-23.02-16.39-21.2-21.93,1.98-6.02,16.92-10.07,34.64-3.04-4.48,8.33-8.96,16.65-13.44,24.98Z"/><path class="cls-19" d="m1199.3,624.32c-13.64-5.13-21.87-13.06-20.94-16.89,1.02-4.16,13.51-6.13,29.7-.06-2.92,5.65-5.84,11.3-8.76,16.95Z"/><ellipse class="cls-10" cx="1186.99" cy="607.96" rx="2.51" ry="3.2" transform="translate(237.62 1544.59) rotate(-71.73)"/><ellipse class="cls-10" cx="1193.24" cy="607.28" rx=".95" ry="1.21" transform="translate(242.57 1550.06) rotate(-71.73)"/><path class="cls-2" d="m1190.97,571.76c-.77-.12-5.79-11.14.46-18.01,3.81-4.19,10.56-5.46,11.17-4.88.64.6-5.78,2.85-9.38,9.04-4.06,6.98-1.64,13.95-2.25,13.86Z"/><path class="cls-2" d="m1165.84,620.66c-.77-.12-5.79-11.14.46-18.01,3.81-4.19,10.56-5.46,11.17-4.88.64.6-5.78,2.85-9.38,9.04-4.06,6.98-1.64,13.95-2.25,13.86Z"/><path class="cls-21" d="m1284.61,617.1c-6.59-5.47-2.1-17.7,2.5-24.62,16.85-25.38,70.65-33.01,79.09-21.99,3.84,5.01-2.51,13.28-4.59,17.62-13.02,27.19-64.91,39.04-77,29Z"/><path class="cls-14" d="m1325.69,554.98c-3.94,16.39-1.21,40.93,13.75,48.59,8.2,4.2,15.76,1.11,19.33,6.62,3.62,5.59.48,10.59.8,18.68.35,8.87,13.22,14.77,16.68,10.03,9.08-12.47,9.39-31.82,9.97-51.62.37-12.63-28.14.83-33.18-7.06-4.68-7.31,9.79-17.23,5.7-30.64-2.65-8.7-12.42-16.57-20.02-15.11-8.49,1.64-11.56,14.39-13.03,20.51Z"/><path class="cls-14" d="m1284.73,571.47c-12.07,8.39,5.95,30.72-2.77,65.92-5.52,22.26-18.85,38-26.68,42.29-.89.49-3.5,2.09-8.7,5.3-9.84,6.06-11.73,7.46-11.86,9.6-.2,3.1,3.32,7.05,6.92,7.28,7.82.5,14.59-16.64,15.98-16.01,1.47.67-8.94,18.44-2.98,24.17,1.57,1.51,4.3,2.21,6.34,1.44,7.52-2.8,5.36-25.14,5.36-25.14,0,0-3.21,19.4,4.62,23.74,1.71.95,4.45,1.46,5.82.31,3.41-2.85-5.79-12.52-4.03-23.99.95-6.19,4.6-9.68,8.31-14.21,7.37-9,11.08-18.2,18.49-36.61,6.77-16.82,17.46-54.43,2.97-63.97-4.73-3.12-12.75-3.62-17.79-.12Z"/><path class="cls-33" d="m1164.04,272.13c5.65-9.74,18.55-32.01,43.41-37.65,35.91-8.15,78.17,22.65,77.46,45.66-.39,12.64-13.46,13.35-43.41,48.06-17.67,20.48-18.93,26.96-28.94,29.64-20.53,5.49-50.77-12.26-58.73-36.85-6.49-20.05,3.97-38.09,10.21-48.86Z"/><path class="cls-48" d="m1176.81,99.11c-26.01-16.05-62.37.98-92.78,15.22-63.18,29.59-95.74,77.33-93.63,79.3,2.4,2.24,45.78-57.67,97.88-52.07,26.35,2.84,52.57,22.17,51.07,36.85-1.18,11.56-18.96,14.26-40.86,28.04-48.49,30.52-68.58,84.84-62.99,88.91,4.59,3.34,24.26-28.72,75.75-59.28,46.04-27.32,65.57-22.6,80.01-44.86,18.17-28.01,12.98-75.18-14.47-92.12Z"/><path class="cls-48" d="m1197.19,152.28c-46.78-40.88-43.59,66.04-47.03,124.31-5.57,94.1,14.46,181.29,20.26,178.8,4.65-2-15.55-62.82.63-151.99,12.65-69.69,30.8-147.06,26.15-151.12Z"/><path class="cls-3" d="m1289.92,266.45c-32.05-8.88-67.98,22.41-75.98,56.44-8.78,37.31,14.87,82.73,47.51,87.02,33.87,4.45,67.06-36.74,68.46-75.07.94-25.74-12.06-60.66-39.99-68.39Z"/><ellipse class="cls-17" cx="1298.66" cy="292.28" rx="3.99" ry="12.28" transform="translate(85.97 841.22) rotate(-37.04)"/><ellipse class="cls-17" cx="1278.68" cy="298.54" rx="12.24" ry="4" transform="translate(499.83 1355.67) rotate(-66.76)"/><ellipse class="cls-17" cx="1265.66" cy="284.56" rx="12.3" ry="3.98" transform="translate(-28.47 374.61) rotate(-16.65)"/><path class="cls-24" d="m1238.44,290.42c-5.16,5.68-23,26.65-20.77,54.82,2.07,26.25,20.67,47.39,24.01,45.85,2.68-1.24-4.96-16.89-7.52-42.63-2.38-23.91.87-44.09,4.28-58.05Z"/><path class="cls-3" d="m1315.26,260.29c23.84-23.19,70.38-13.02,93.76,12.97,25.63,28.5,26.72,79.69.16,99.15-27.56,20.19-76.47.01-96.12-32.92-13.2-22.12-18.58-58.99,2.2-79.2Z"/><ellipse class="cls-17" cx="1320.01" cy="287.14" rx="12.28" ry="3.99" transform="translate(845.1 1551.79) rotate(-81.69)"/><ellipse class="cls-17" cx="1340.54" cy="283.02" rx="4" ry="12.24" transform="translate(291.7 1164.55) rotate(-51.97)"/><ellipse class="cls-17" cx="1345.23" cy="264.51" rx="12.3" ry="3.98" transform="translate(-25.57 287.31) rotate(-12.08)"/><path class="cls-24" d="m1313.84,291.6c-.63,7.65-1.98,35.15,16.96,56.12,17.65,19.54,45.28,24.96,46.99,21.71,1.37-2.62-14.23-10.36-31.95-29.2-16.46-17.5-26.19-35.48-31.99-48.62Z"/><path class="cls-4" d="m1317.89,767.04c28.35-30.38,83.7-17.06,111.5,16.99,30.48,37.33,31.78,104.39.19,129.88-32.78,26.44-90.94.01-114.31-43.12-15.7-28.97-22.09-77.27,2.61-103.74Z"/><path class="cls-24" d="m1313.21,801.62c-1.62,9.09-6.28,41.94,15.63,71.09,20.41,27.16,55.06,39.36,57.59,35.79,2.03-2.87-17.04-15.4-37.62-41.74-19.12-24.46-29.6-48.12-35.6-65.15Z"/><ellipse class="cls-17" cx="1323.53" cy="802.21" rx="16.06" ry="4.75" transform="translate(357.51 2011.37) rotate(-82.6)"/><ellipse class="cls-17" cx="1347.95" cy="796.82" rx="5.04" ry="15.15" transform="translate(-141.33 1280.49) rotate(-48.58)"/><ellipse class="cls-17" cx="1353.53" cy="772.57" rx="14.69" ry="5.19" transform="translate(-143.6 339.56) rotate(-13.59)"/><path class="cls-39" d="m1568.36,855.18c-18.1-63.65-66.67-234.46-125.09-340.66-46.87-85.2-99.96-128.59-96.52-137.66,2.52-6.64,31.01,16.46,34.47,19.29,19.5,15.93,62.49,56.06,126.46,195.99,6.76,14.79,70.68,156.38,77.15,258.65.63,10.02,2.58,40.78-1.61,41.65-4.15.87-12.21-27.91-14.87-37.26Z"/><path class="cls-3" d="m1533.64,730.23c-37.62-16.49-87.1,15.04-102.93,54.9-17.35,43.7,3.53,103.02,42.68,114.06,40.63,11.45,88.52-32.6,97.03-78.84,5.71-31.06-4-75.74-36.79-90.12Z"/><ellipse class="cls-17" cx="1539.75" cy="763.13" rx="4.91" ry="15.1" transform="translate(-176.92 842.18) rotate(-29)"/><ellipse class="cls-17" cx="1514.2" cy="767.15" rx="15.03" ry="4.94" transform="translate(64.97 1650.92) rotate(-58.24)"/><ellipse class="cls-17" cx="1500.77" cy="747.87" rx="15.19" ry="4.89" transform="translate(-91.21 221.35) rotate(-8.19)"/><path class="cls-24" d="m1466.44,750.11c-7.32,5.97-32.85,28.23-35.12,62.8-2.11,32.22,16.88,61.19,21.24,59.92,3.5-1.02-3.08-21.38-1.65-53.06,1.33-29.43,8.88-53.33,15.52-69.66Z"/><path class="cls-40" d="m238.03,732.56c-61.21-61.82-91.78-227.88-87.87-321.93,6.37-152.92,108.56-226.95,67.17-274.67-19.28-22.24-61.58-29.34-93.52-17.2-105.76,40.17-32.93,266.41-78.88,553.24-3.92,24.49-14.33,84.51,21.65,122.99,31.87,34.07,82.49,32.39,90.08,32.03,45.35-2.16,96.58-29.63,98.67-60.08,1.14-16.56-12.56-29.58-17.3-34.37Z"/><path class="cls-32" d="m137.28,568.74c-1.96-46.87-7.21-172.65,9.25-257.2,13.2-67.83,40.34-108.96,35.85-114.29-3.28-3.9-17.89,18.05-19.66,20.73-9.97,15.1-30.8,51.76-43.4,160.25-1.33,11.47-13.51,121.05,5.43,191.27,1.86,6.88,7.55,28,10.68,27.64,3.1-.35,2.13-21.52,1.84-28.4Z"/><path class="cls-45" d="m-72.8,162.09C-17.77,96.04,62.51,85.96,80.12,83.74c10.1-1.27,18.9-1.7,26.62-1.57-6.17-14.92-13.5-27.48-24.74-39.07C38.11-2.12-29.5,4.28-28.92-4.72c.54-8.31,58.58-22.2,118.99-6.88,33.39,8.47,60.08,23.98,80.72,40.55-22-37.89-61.32-59.63-57.22-64.56,4.6-5.55,59.96,15.17,102.69,57.67.75.75,1.48,1.49,2.22,2.24,2.56-.05,5.21-.06,7.97-.01,17.74.3,98.62,1.67,160.19,61.41,43.97,42.66,60.4,97.92,53.18,102.51-7.83,4.98-35.8-54.51-98.49-68.48-10.6-2.36-20.73-3.09-31.15-2.65,27,19.97,64.89,56.25,80.63,112.4,16.3,58.14,2.28,114.2-6.33,114.77-9.34.62-3.15-64.61-50.36-106.62-17.42-15.5-36.86-23.17-62.73-30.88-.4,1-.81,1.96-1.22,2.87,12.74,29.82,23.77,72.57,13.69,121.42-12.22,59.23-50.55,103.6-58.51,100.43-8.63-3.44,26.94-59.41,4.11-117.37-10.33-26.23-28.81-43.18-55.99-67.38-10.25-4.27-19.11-10.36-24.57-17.9-2.44-2.01-4.36-4.32-5.92-6.98-.68-.5-1.35-.99-2.02-1.47-27.68,7.59-47.76,14.28-65.66,28.63-44.41,35.63-39.16,89.44-47.87,89.1-8.03-.31-20.67-46.39-4.99-94.77,7.19-22.18,19.01-40.76,32.15-55.97-31.07-3.46-54.08-4.7-78.81,3.68-60.89,20.65-82.54,82.83-90.84,78.72-7.66-3.79,2.96-60.51,42.26-107.67Z"/><path class="cls-48" d="m246.82,241.38c-9.55-36.33-20.99-74.95-27.83-100.89-15.2-23.89-13.25-62.8,8.14-78.89,21.25-15.99,53.79-3.53,81,6.89,56.54,21.65,88.03,61.46,86.35,63.35-1.9,2.14-43.59-47.65-88.06-39.03-22.49,4.35-43.68,23.25-41.33,36.09,1.85,10.12,17.36,11.24,37.21,21.85,43.97,23.5,65.18,70,60.66,73.99-3.71,3.27-22.97-23.63-69.52-46.95-15.62-7.83-27.7-11.94-37.44-15,2.73,18.52,4.69,37.98,6.86,53.47,11.58,82.61.61,160.92-4.56,159.13-4.15-1.44,8.87-56.5-11.5-134.01Z"/><path class="cls-46" d="m215.26,45.22c11.95,25.64,4.35,8.11,12.11,33.42,9.01,29.4-6.9,38.81-6.9,38.81-22.48,12.21-66.71,57.82-98.17,74.93-67.12,36.51-73.82,102.56-77.68,100.49-4.81-2.59,1.96-80.77,66.47-127.07,12.09-8.68,29.56-19.31,44.12-29.6-8.85-5.07-26.27-17.26.12.12,43.39,28.56-166.12,24.24-166.46,19.36-.41-5.94,95.57-28.91,134.82-56.99,42.31-30.28,10.78-28.81-41.19-85.04-8.71-9.43,124.11,52.15,111.49,32.86C169.02,8.37,158.73-2.56,158.88-5.36c.13-2.48,30.79-4.33,56.38,50.58Z"/><path class="cls-25" d="m368.46,929.07c-49.72-106.12-29.79-333.77,5.84-453.6,57.93-194.83,199.62-246.65,167.97-326.05-14.75-37-60.89-64.31-101.54-62.33-134.57,6.55-125.96,330.06-273.63,680.92-12.61,29.95-44.42,103.04-15.89,168.18,25.26,57.68,83.86,77.22,92.68,80.01,52.72,16.66,120.55,3.13,133.03-35.3,6.79-20.9-4.61-43.61-8.46-51.82Z"/><path class="cls-26" d="m307.18,674.22c13.27-61.39,48.9-226.14,95.76-328.32,37.6-81.98,82.33-123.48,78.95-132.28-2.47-6.44-26.49,15.65-29.41,18.35-16.43,15.23-52.45,53.67-102.82,188.42-5.32,14.24-55.57,150.6-57.1,249.44-.15,9.68-.61,39.41,3.1,40.29,3.67.87,9.57-26.89,11.52-35.9Z"/><path class="cls-26" d="m71.18,787.22c13.27-61.39,48.9-226.14,95.76-328.32,37.6-81.98,82.33-123.48,78.95-132.28-2.47-6.44-26.49,15.65-29.41,18.35-16.43,15.23-52.45,53.67-102.82,188.42-5.32,14.24-55.57,150.6-57.1,249.44-.15,9.68-.61,39.41,3.1,40.29,3.67.87,9.57-26.89,11.52-35.9Z"/><path class="cls-49" d="m200.92,58.76C285.89-2.96,381.28,18.43,402.21,23.12c12,2.69,22.24,5.91,31.04,9.39-2.14-21.92-6.39-41.29-15.44-61.08-35.34-77.26-114.99-97.98-111.34-109.36,3.37-10.5,74.52-3.56,138.71,42.14,35.48,25.26,60.95,56.74,79.13,87-12.69-58.38-50.57-103.33-44.24-107.95,7.12-5.2,63.73,45.32,98.65,118.55.61,1.29,1.21,2.57,1.8,3.85,2.95,1.03,6,2.16,9.15,3.4,20.25,8,112.53,44.45,163.35,148.03,36.29,73.96,36.84,152.41,27.04,155.25-10.63,3.08-23-85.78-90.26-130.71-11.37-7.6-22.75-12.88-34.84-16.79,24.35,37.38,55.78,100.51,55.24,179.79-.56,82.11-35.19,148.51-45.26,145.56-10.91-3.2,17.78-84.82-22.44-159.34-14.84-27.49-34.6-45.74-61.7-66.8-.79,1.12-1.57,2.18-2.35,3.18,4.73,43.99,3.23,103.95-24.5,162.74-33.62,71.28-92.27,112.17-100.34,104.66-8.75-8.14,50.56-65.21,43.57-149.88-3.16-38.32-18.73-68.14-41.89-111.07-10.33-9.91-18.48-21.57-22.25-33.66-2.13-3.65-3.57-7.45-4.47-11.55-.61-.94-1.22-1.86-1.83-2.77-34.26-2.06-59.5-2.04-84.76,8.83-62.72,26.98-74.52,98.76-84.39,94.59-9.11-3.85-8.34-68.8,25.66-124.58,15.59-25.58,35.29-44.51,55.4-58.53-34.47-17.8-60.45-29.27-91.58-29.04-76.66.57-122.06,71.62-130.23,62.75-7.53-8.18,23.43-76.91,84.1-120.99Z"/><path class="cls-48" d="m576.84,33.24c4.87,32.21,2.19,10.36,2.44,40.93.28,35.51-20.91,41.17-20.91,41.17-29.57,6.78-95.04,44.2-136.44,53.72-88.32,20.32-118.19,91.91-121.86,88.42-4.58-4.34,29.47-89.44,118.13-121.45,16.62-6,39.99-12.55,59.94-19.6-8.31-8.34-23.93-27.21.1.17,39.49,45-196.27-23.41-195.01-28.95,1.54-6.75,117.97-3.21,171.89-22.6,58.13-20.91,21.93-28.84-17.95-107.29-6.69-13.15,122.94,95.8,115.15,70.47-15.41-50.09-23.37-65.39-22.26-68.48.98-2.72,36.33,4.52,46.77,73.5Z"/><path class="cls-39" d="m161.91,870.6c-33.07-91.72,18.39-276.2,69.8-370.87,83.58-153.93,227.91-182.64,208.54-250.72-9.03-31.73-49.79-58.56-89.37-60.88-131.06-7.67-168.49,258.07-360.9,531.08-16.43,23.31-57.53,80.07-39.15,136.17,16.27,49.68,70.17,71.36,78.31,74.5,48.62,18.75,116.13,14.25,133.63-16.02,9.52-16.46,1.71-36.15-.85-43.26Z"/><path class="cls-14" d="m211.75,126.02c2.79-2.67,9.18-8.67,12.57-7.08,3.73,1.76,1.89,11.81,1.23,15.36-7.11,38.71-63.86,89.88-62.58,142.98.16,6.44,1,41.38,20.77,51.35,3.22,1.62,7.39,2.82,9.94,5.29,6.96-1.96,14.33-2.69,21.77-1.9,32,3.43,46.37,33.03,50.42,41.37,2.81,5.78,17.11,35.24,2.86,55.3-19.24,27.07-83.6,27.32-108.64-5.14-11.91-15.43-14.87-38.19-5.47-57.5,3.53-7.24,8.69-13.78,14.98-19.18-1.51-2.23-3.04-4.81-4.7-7.63-8.18-13.89-10.72-26.23-11.09-28.15-7.38-37.63-4.02-65.45-4.02-65.45s8.27-68.32,61.97-119.63Z"/><path class="cls-14" d="m283.07,392.02c8.52,11.63-16.22,27.24-20.11,63.2-2.46,22.74,4.72,41.7,10.65,48.15.68.74,2.59,3.05,6.41,7.67,7.22,8.74,8.52,10.64,7.91,12.7-.88,2.99-5.57,5.65-9.06,4.77-7.57-1.91-8.06-20.19-9.6-20.02-1.62.18,2.1,20.17-5.51,23.77-2,.95-4.82.77-6.5-.57-6.15-4.94,3.6-25.42,3.6-25.42,0,0-3.65,19.33-12.56,21.04-1.95.38-4.71.02-5.61-1.48-2.24-3.74,9.79-10.08,12.08-21.46,1.24-6.14-1.01-10.56-2.96-15.98-3.87-10.76-4.2-20.6-4.86-40.27-.6-17.98,2.26-56.82,19.26-61.41,5.55-1.5,13.31.46,16.86,5.32Z"/><path class="cls-9" d="m292.08,332.24c13.4-6.4,29.83-1.27,36.7,11.46,4.47,8.29,3.78,17.75-.94,25.12,12.82,6.99,24.35,18.3,32.22,32.88,7.8,14.46,10.7,29.77,9.22,43.54,11.65-2.12,23.9,3.21,29.59,13.75,6.87,12.73,1.57,28.24-11.83,34.64-13.4,6.4-29.83,1.27-36.7-11.46-.14-.27-.27-.53-.41-.8-2.37,1.78-4.93,3.35-7.69,4.67-27.81,13.28-64.91-2.95-82.87-36.25-17.96-33.3-9.98-71.06,17.83-84.34.65-.31,1.31-.59,1.96-.86-5.12-12.25.32-26.33,12.92-32.35Z"/><path class="cls-15" d="m263.29,372.38c10.49-5.49,23.06-4.06,31.88,2.67,1.26-1.14,2.67-2.15,4.25-2.97,11.75-6.15,27.68-.21,35.59,13.25,4.85,8.26,5.55,17.44,2.66,24.72,8.08,1.54,15.95,6.96,20.81,15.22,7.91,13.47,4.8,29.37-6.95,35.52-2.08,1.09-4.3,1.79-6.58,2.15,1.75,10.87-3.64,22.09-14.38,27.71-8.09,4.23-17.42,4.35-25.31,1.1-14.85-3.78-32.56-19.08-45.34-40.83-15.02-25.56-18.41-51.85-9.5-64.4,2.3-5.81,6.7-10.9,12.89-14.14Z"/><path class="cls-15" d="m292.47,357.44c-3.37-6.37,5.95-20.16,15.13-19.26,6.87.67,14.14,9.64,12.02,20.99-12.71,5.75-24.47,3.33-27.14-1.72Z"/><path class="cls-15" d="m376.09,457.45c7.5.33,15.81,14.82,10.6,21.98-3.9,5.36-15.66,6.99-25.14-.34.74-13.35,8.59-21.9,14.54-21.64Z"/><ellipse class="cls-2" cx="286.7" cy="425.66" rx="3.78" ry="7.45" transform="translate(-197.58 595.53) rotate(-75.37)"/><ellipse class="cls-2" cx="294.39" cy="439.92" rx="7.17" ry="3.93" transform="translate(-234.68 422.98) rotate(-54.38)"/><path class="cls-20" d="m281.32,453.47c3.33-4.01-6.11-23.03-12.35-23.46-4-.28-8.14,6.98-5.61,14.2,3.27,9.3,15.42,12.32,17.96,9.26Z"/><path class="cls-10" d="m298.57,413.07c14.93-5.93,23.02-16.39,21.2-21.93-1.98-6.02-16.92-10.07-34.64-3.04,4.48,8.33,8.96,16.65,13.44,24.98Z"/><path class="cls-19" d="m293.89,405.05c13.64-5.13,21.87-13.06,20.94-16.89-1.02-4.16-13.51-6.13-29.7-.06,2.92,5.65,5.84,11.3,8.76,16.95Z"/><ellipse class="cls-10" cx="306.2" cy="388.68" rx="3.2" ry="2.51" transform="translate(-106.4 115.56) rotate(-18.27)"/><ellipse class="cls-10" cx="299.95" cy="388" rx="1.21" ry=".95" transform="translate(-106.5 113.56) rotate(-18.27)"/><path class="cls-10" d="m323.62,462.25c14.93-5.93,23.02-16.39,21.2-21.93-1.98-6.02-16.92-10.07-34.64-3.04,4.48,8.33,8.96,16.65,13.44,24.98Z"/><path class="cls-19" d="m318.94,454.23c13.64-5.13,21.87-13.06,20.94-16.89-1.02-4.16-13.51-6.13-29.7-.06,2.92,5.65,5.84,11.3,8.76,16.95Z"/><ellipse class="cls-10" cx="331.25" cy="437.87" rx="3.2" ry="2.51" transform="translate(-120.55 125.88) rotate(-18.27)"/><ellipse class="cls-10" cx="324.99" cy="437.18" rx="1.21" ry=".95" transform="translate(-120.65 123.89) rotate(-18.27)"/><path class="cls-2" d="m327.26,401.67c.77-.12,5.79-11.14-.46-18.01-3.81-4.19-10.56-5.46-11.17-4.88-.64.6,5.78,2.85,9.38,9.04,4.06,6.98,1.64,13.95,2.25,13.86Z"/><path class="cls-2" d="m352.4,450.56c.77-.12,5.79-11.14-.46-18.01-3.81-4.19-10.56-5.46-11.17-4.88-.64.6,5.78,2.85,9.38,9.04,4.06,6.98,1.64,13.95,2.25,13.86Z"/><path class="cls-21" d="m233.62,447c6.59-5.47,2.1-17.7-2.5-24.62-16.85-25.38-70.65-33.01-79.09-21.99-3.84,5.01,2.51,13.28,4.59,17.62,13.02,27.19,64.91,39.04,77,29Z"/><path class="cls-14" d="m192.54,384.89c3.94,16.39,1.21,40.93-13.75,48.59-8.2,4.2-15.76,1.11-19.33,6.62-3.62,5.59-.48,10.59-.8,18.68-.35,8.87-13.22,14.77-16.68,10.03-9.08-12.47-9.39-31.82-9.97-51.62-.37-12.63,28.14.83,33.18-7.06,4.68-7.31-9.79-17.23-5.7-30.64,2.65-8.7,12.42-16.57,20.02-15.11,8.49,1.64,11.56,14.39,13.03,20.51Z"/><path class="cls-14" d="m233.5,401.38c12.07,8.39-5.95,30.72,2.77,65.92,5.52,22.26,18.85,38,26.68,42.29.89.49,3.5,2.09,8.7,5.3,9.84,6.06,11.73,7.46,11.86,9.6.2,3.1-3.32,7.05-6.92,7.28-7.82.5-14.59-16.64-15.98-16.01-1.47.67,8.94,18.44,2.98,24.17-1.57,1.51-4.3,2.21-6.34,1.44-7.52-2.8-5.36-25.14-5.36-25.14,0,0,3.21,19.4-4.62,23.74-1.71.95-4.45,1.46-5.82.31-3.41-2.85,5.79-12.52,4.03-23.99-.95-6.19-4.6-9.68-8.31-14.21-7.37-9-11.08-18.2-18.49-36.61-6.77-16.82-17.46-54.43-2.97-63.97,4.73-3.12,12.75-3.62,17.79-.12Z"/><path class="cls-33" d="m116.95,194.48c69.7-69.32,163.24-73.29,183.77-74.16,11.76-.5,21.97-.17,30.85.68-5.71-17.37-12.98-32.19-24.86-46.28-46.35-54.98-124.94-53.99-123.42-64.08,1.4-9.3,69.66-19.61,137.89,3.2,37.72,12.61,67.03,32.53,89.28,53.1-21.81-44.69-65.1-72.8-59.92-77.98,5.83-5.83,67.73,22.61,113.01,74.41.79.91,1.57,1.82,2.34,2.73,2.96.18,6.02.41,9.2.72,20.44,1.97,113.59,10.96,178.97,83.9,46.69,52.09,60.44,115.84,51.68,120.35-9.5,4.89-36.15-64.69-107.15-86.19-12-3.64-23.62-5.39-35.68-5.85,29.26,24.98,69.54,69.33,82.4,134.01,13.32,66.98-8.13,128.83-18.12,128.68-10.83-.16,2.45-73.06-48.04-124.71-18.63-19.06-40.33-29.49-69.44-40.55-.56,1.09-1.12,2.13-1.68,3.12,11.88,34.76,20.58,83.92,4.35,138.02-19.67,65.58-68.07,112.03-76.95,107.73-9.63-4.67,36.67-64.44,15.8-131.82-9.44-30.49-29.15-51.29-58.23-81.05-11.41-5.76-21.06-13.42-26.65-22.42-2.63-2.49-4.62-5.27-6.17-8.4-.74-.62-1.47-1.24-2.19-1.84-32.65,6-56.44,11.68-78.43,26.2-54.58,36.04-53.6,97.13-63.61,95.95-9.24-1.09-19.47-54.15,3.18-107.2,10.38-24.32,25.76-44.16,42.36-60.08-35.5-6.76-61.93-10.27-91.24-3.1-72.18,17.66-103,85.69-112.19,80.3-8.48-4.97,9.12-67.88,58.89-117.38Z"/><path class="cls-33" d="m489.19,271.03c-5.65-9.74-18.55-32.01-43.41-37.65-35.91-8.15-78.17,22.65-77.46,45.66.39,12.64,13.46,13.35,43.41,48.06,17.67,20.48,18.93,26.96,28.94,29.64,20.53,5.49,50.77-12.26,58.73-36.85,6.49-20.05-3.97-38.09-10.21-48.86Z"/><path class="cls-48" d="m455.12,88.16c10,31,3.84,9.87,9,40,6,35-14,44-14,44-28.09,11.46-86.68,58.93-126,75-83.9,34.28-101.84,109.75-106.02,106.9-5.22-3.55,14.68-93.02,97.02-138.9,15.44-8.6,37.45-18.83,56-29-9.55-6.89-28-23,.13.15,46.23,38.05-197.48,8.52-197.13,2.85.43-6.91,115.91-22.17,166-50,54-30,17-32-35-103-8.72-11.9,136.77,74.74,125,51-23.28-46.95-33.6-60.78-33-64,.53-2.84,36.58-1.39,58,65Z"/><path class="cls-3" d="m338.32,256.36c32.05-8.88,67.98,22.41,75.98,56.44,8.78,37.31-14.87,82.73-47.51,87.02-33.87,4.45-67.06-36.74-68.46-75.07-.94-25.74,12.06-60.66,39.99-68.39Z"/><ellipse class="cls-17" cx="329.57" cy="282.18" rx="12.28" ry="3.99" transform="translate(-94.19 375.28) rotate(-52.96)"/><ellipse class="cls-17" cx="349.56" cy="288.44" rx="4" ry="12.24" transform="translate(-85.45 161.33) rotate(-23.24)"/><ellipse class="cls-17" cx="362.57" cy="274.46" rx="3.98" ry="12.3" transform="translate(-4.28 543.18) rotate(-73.35)"/><path class="cls-24" d="m389.79,280.32c5.16,5.68,23,26.65,20.77,54.82-2.07,26.25-20.67,47.39-24.01,45.85-2.68-1.24,4.96-16.89,7.52-42.63,2.38-23.91-.87-44.09-4.28-58.05Z"/><path class="cls-3" d="m185.35,764.94c-28.35-30.38-83.7-17.06-111.5,16.99-30.48,37.33-31.78,104.39-.19,129.88,32.78,26.44,90.94.01,114.31-43.12,15.7-28.97,22.09-77.27-2.61-103.74Z"/><path class="cls-24" d="m190.02,799.52c1.62,9.09,6.28,41.94-15.63,71.09-20.41,27.16-55.06,39.36-57.59,35.79-2.03-2.87,17.04-15.4,37.62-41.74,19.12-24.46,29.6-48.12,35.6-65.15Z"/><ellipse class="cls-17" cx="179.7" cy="800.11" rx="4.75" ry="16.06" transform="translate(-101.57 29.82) rotate(-7.4)"/><ellipse class="cls-17" cx="155.28" cy="794.72" rx="15.15" ry="5.04" transform="translate(-486.92 301.49) rotate(-41.42)"/><ellipse class="cls-17" cx="149.7" cy="770.47" rx="5.19" ry="14.69" transform="translate(-634.37 735) rotate(-76.41)"/><path class="cls-26" d="m16.18,861.83c16.02-57.51,59-211.84,112.72-307.93,43.1-77.09,44.08-68.12,47.96-77.07,6.8-15.68,9.76-30.11,8.97-30.02-21.82,2.5-58.63,50.89-116.98,177.44-6.17,13.38-64.42,141.43-68.54,233.71-.4,9.04-1.64,36.8,2.39,37.57,3.99.76,11.11-25.24,13.47-33.69Z"/><rect class="cls-30" x="250.47" y="115.95" width="1176" height="653" rx="12" ry="12"/><path class="cls-38" d="m1053.89,175.15c-447.55,13.66-749.64-87.48-766.27,18.91-15.14,96.89,30.86,134.89,15.1,376.55-6.56,100.56-40.62,146.63,7.55,158.19,66.41,15.94,190.28-56.43,562.43-233.84,380.46-181.37,528.71-238.12,486.94-280.27-13.09-13.2-37.17-47.75-305.75-39.55Z"/><path class="cls-14" d="m265.72,373.64c-4.05-8.34-18.42-37.93-50.42-41.37-7.44-.8-14.81-.06-21.77,1.9-2.55-2.47-6.73-3.67-9.94-5.29-19.77-9.97-20.61-44.91-20.77-51.35-.38-15.96,4.48-31.74,11.65-47.07-1.97.58-4.07.94-6,1.43-6.02,1.54-11.58,4.31-17.47,6.07-1.02,5.03-1.38,7.93-1.38,7.93,0,0-3.37,27.82,4.02,65.45.38,1.92,2.91,14.26,11.09,28.15,1.66,2.82,3.2,5.4,4.7,7.63-6.28,5.39-11.45,11.94-14.98,19.18-9.4,19.3-6.44,42.06,5.47,57.5,25.04,32.46,89.4,32.21,108.64,5.14,14.26-20.06-.05-49.52-2.86-55.3Z"/><path class="cls-14" d="m282.91,392.26c8.52,11.63-16.22,27.24-20.11,63.2-2.46,22.74,4.72,41.7,10.65,48.15.68.74,2.59,3.05,6.41,7.67,7.22,8.74,8.52,10.64,7.91,12.7-.88,2.99-5.57,5.65-9.06,4.77-7.57-1.91-8.06-20.19-9.6-20.02-1.62.18,2.1,20.17-5.51,23.77-2,.95-4.82.77-6.5-.57-6.15-4.94,3.6-25.42,3.6-25.42,0,0-3.65,19.33-12.56,21.04-1.95.38-4.71.02-5.61-1.48-2.24-3.74,9.79-10.08,12.08-21.46,1.24-6.14-1.01-10.56-2.96-15.98-3.87-10.76-4.2-20.6-4.86-40.27-.6-17.98,2.26-56.82,19.26-61.41,5.55-1.5,13.31.46,16.86,5.32Z"/><path class="cls-9" d="m291.92,332.48c13.4-6.4,29.83-1.27,36.7,11.46,4.47,8.29,3.78,17.75-.94,25.12,12.82,6.99,24.35,18.3,32.22,32.88,7.8,14.46,10.7,29.77,9.22,43.54,11.65-2.12,23.9,3.21,29.59,13.75,6.87,12.73,1.57,28.24-11.83,34.64-13.4,6.4-29.83,1.27-36.7-11.46-.14-.27-.27-.53-.41-.8-2.37,1.78-4.93,3.35-7.69,4.67-27.81,13.28-64.91-2.95-82.87-36.25-17.96-33.3-9.98-71.06,17.83-84.34.65-.31,1.31-.59,1.96-.86-5.12-12.25.32-26.33,12.92-32.35Z"/><path class="cls-15" d="m263.13,372.62c10.49-5.49,23.06-4.06,31.88,2.67,1.26-1.14,2.67-2.15,4.25-2.97,11.75-6.15,27.68-.21,35.59,13.25,4.85,8.26,5.55,17.44,2.66,24.72,8.08,1.54,15.95,6.96,20.81,15.22,7.91,13.47,4.8,29.37-6.95,35.52-2.08,1.09-4.3,1.79-6.58,2.15,1.75,10.87-3.64,22.09-14.38,27.71-8.09,4.23-17.42,4.35-25.31,1.1-14.85-3.78-32.56-19.08-45.34-40.83-15.02-25.56-18.41-51.85-9.5-64.4,2.3-5.81,6.7-10.9,12.89-14.14Z"/><path class="cls-15" d="m292.31,357.68c-3.37-6.37,5.95-20.16,15.13-19.26,6.87.67,14.14,9.64,12.02,20.99-12.71,5.75-24.47,3.33-27.14-1.72Z"/><path class="cls-15" d="m375.94,457.69c7.5.33,15.81,14.82,10.6,21.98-3.9,5.36-15.66,6.99-25.14-.34.74-13.35,8.59-21.9,14.54-21.64Z"/><ellipse class="cls-2" cx="286.54" cy="425.9" rx="3.78" ry="7.45" transform="translate(-197.93 595.55) rotate(-75.37)"/><ellipse class="cls-2" cx="294.23" cy="440.16" rx="7.17" ry="3.93" transform="translate(-234.93 422.95) rotate(-54.38)"/><path class="cls-20" d="m281.16,453.71c3.33-4.01-6.11-23.03-12.35-23.46-4-.28-8.14,6.98-5.61,14.2,3.27,9.3,15.42,12.32,17.96,9.26Z"/><path class="cls-10" d="m298.42,413.31c14.93-5.93,23.02-16.39,21.2-21.93-1.98-6.02-16.92-10.07-34.64-3.04,4.48,8.33,8.96,16.65,13.44,24.98Z"/><path class="cls-19" d="m293.74,405.28c13.64-5.13,21.87-13.06,20.94-16.89-1.02-4.16-13.51-6.13-29.7-.06,2.92,5.65,5.84,11.3,8.76,16.95Z"/><ellipse class="cls-10" cx="306.05" cy="388.92" rx="3.2" ry="2.51" transform="translate(-106.48 115.52) rotate(-18.27)"/><ellipse class="cls-10" cx="299.79" cy="388.24" rx="1.21" ry=".95" transform="translate(-106.58 113.52) rotate(-18.27)"/><path class="cls-10" d="m323.46,462.49c14.93-5.93,23.02-16.39,21.2-21.93-1.98-6.02-16.92-10.07-34.64-3.04,4.48,8.33,8.96,16.65,13.44,24.98Z"/><path class="cls-19" d="m318.78,454.46c13.64-5.13,21.87-13.06,20.94-16.89-1.02-4.16-13.51-6.13-29.7-.06l8.76,16.95Z"/><ellipse class="cls-10" cx="331.09" cy="438.1" rx="3.2" ry="2.51" transform="translate(-120.63 125.85) rotate(-18.27)"/><ellipse class="cls-10" cx="324.83" cy="437.42" rx="1.21" ry=".95" transform="translate(-120.73 123.85) rotate(-18.27)"/><path class="cls-2" d="m327.11,401.9c.77-.12,5.79-11.14-.46-18.01-3.81-4.19-10.56-5.46-11.17-4.88-.64.6,5.78,2.85,9.38,9.04,4.06,6.98,1.64,13.95,2.25,13.86Z"/><path class="cls-2" d="m352.24,450.8c.77-.12,5.79-11.14-.46-18.01-3.81-4.19-10.56-5.46-11.17-4.88-.64.6,5.78,2.85,9.38,9.04,4.06,6.98,1.64,13.95,2.25,13.86Z"/><path class="cls-21" d="m233.47,447.24c6.59-5.47,2.1-17.7-2.5-24.62-16.85-25.38-70.65-33.01-79.09-21.99-3.84,5.01,2.51,13.28,4.59,17.62,13.02,27.19,64.91,39.04,77,29Z"/><path class="cls-14" d="m192.38,385.12c3.94,16.39,1.21,40.93-13.75,48.59-8.2,4.2-15.76,1.11-19.33,6.62-3.62,5.59-.48,10.59-.8,18.68-.35,8.87-13.22,14.77-16.68,10.03-9.08-12.47-9.39-31.82-9.97-51.62-.37-12.63,28.14.83,33.18-7.06,4.68-7.31-9.79-17.23-5.7-30.64,2.65-8.7,12.42-16.57,20.02-15.11,8.49,1.64,11.56,14.39,13.03,20.51Z"/><path class="cls-14" d="m233.34,401.61c12.07,8.39-5.95,30.72,2.77,65.92,5.52,22.26,18.85,38,26.68,42.29.89.49,3.5,2.09,8.7,5.3,9.84,6.06,11.73,7.46,11.86,9.6.2,3.1-3.32,7.05-6.92,7.28-7.82.5-14.59-16.64-15.98-16.01-1.47.67,8.94,18.44,2.98,24.17-1.57,1.51-4.3,2.21-6.34,1.44-7.52-2.8-5.36-25.14-5.36-25.14,0,0,3.21,19.4-4.62,23.74-1.71.95-4.45,1.46-5.82.31-3.41-2.85,5.79-12.52,4.03-23.99-.95-6.19-4.6-9.68-8.31-14.21-7.37-9-11.08-18.2-18.49-36.61-6.77-16.82-17.46-54.43-2.97-63.97,4.73-3.12,12.75-3.62,17.79-.12Z"/><path class="cls-14" d="m1427.96,391.26c-2.79-2.67-9.18-8.67-12.57-7.08-3.73,1.76-1.89,11.81-1.23,15.36,7.11,38.71,63.86,89.88,62.58,142.98-.16,6.44-1,41.38-20.77,51.35-3.22,1.62-7.39,2.82-9.94,5.29-6.96-1.96-14.33-2.69-21.77-1.9-32,3.43-46.37,33.03-50.42,41.37-2.81,5.78-17.11,35.24-2.86,55.3,19.24,27.07,83.6,27.32,108.64-5.14,11.91-15.43,14.87-38.19,5.47-57.5-3.53-7.24-8.69-13.78-14.98-19.18,1.51-2.23,3.04-4.81,4.7-7.63,8.18-13.89,10.72-26.23,11.09-28.15,7.38-37.63,4.02-65.45,4.02-65.45s-8.27-68.32-61.97-119.63Z"/><path class="cls-14" d="m1356.64,657.26c-8.52,11.63,16.22,27.24,20.11,63.2,2.46,22.74-4.72,41.7-10.65,48.15-.68.74-2.59,3.05-6.41,7.67-7.22,8.74-8.52,10.64-7.91,12.7.88,2.99,5.57,5.65,9.06,4.77,7.57-1.91,8.06-20.19,9.6-20.02,1.62.18-2.1,20.17,5.51,23.77,2,.95,4.82.77,6.5-.57,6.15-4.94-3.6-25.42-3.6-25.42,0,0,3.65,19.33,12.56,21.04,1.95.38,4.71.02,5.61-1.48,2.24-3.74-9.79-10.08-12.08-21.46-1.24-6.14,1.01-10.56,2.96-15.98,3.87-10.76,4.2-20.6,4.86-40.27.6-17.98-2.26-56.82-19.26-61.41-5.55-1.5-13.31.46-16.86,5.32Z"/><path class="cls-9" d="m1347.64,597.48c-13.4-6.4-29.83-1.27-36.7,11.46-4.47,8.29-3.78,17.75.94,25.12-12.82,6.99-24.35,18.3-32.22,32.88-7.8,14.46-10.7,29.77-9.22,43.54-11.65-2.12-23.9,3.21-29.59,13.75-6.87,12.73-1.57,28.24,11.83,34.64,13.4,6.4,29.83,1.27,36.7-11.46.14-.27.27-.53.41-.8,2.37,1.78,4.93,3.35,7.69,4.67,27.81,13.28,64.91-2.95,82.87-36.25s9.98-71.06-17.83-84.34c-.65-.31-1.31-.59-1.96-.86,5.12-12.25-.32-26.33-12.92-32.35Z"/><path class="cls-15" d="m1376.42,637.62c-10.49-5.49-23.06-4.06-31.88,2.67-1.26-1.14-2.67-2.15-4.25-2.97-11.75-6.15-27.68-.21-35.59,13.25-4.85,8.26-5.55,17.44-2.66,24.72-8.08,1.54-15.95,6.96-20.81,15.22-7.91,13.47-4.8,29.37,6.95,35.52,2.08,1.09,4.3,1.79,6.58,2.15-1.75,10.87,3.64,22.09,14.38,27.71,8.09,4.23,17.42,4.35,25.31,1.1,14.85-3.78,32.56-19.08,45.34-40.83,15.02-25.56,18.41-51.85,9.5-64.4-2.3-5.81-6.7-10.9-12.89-14.14Z"/><path class="cls-15" d="m1347.24,622.68c3.37-6.37-5.95-20.16-15.13-19.26-6.87.67-14.14,9.64-12.02,20.99,12.71,5.75,24.47,3.33,27.14-1.72Z"/><path class="cls-15" d="m1263.62,722.69c-7.5.33-15.81,14.82-10.6,21.98,3.9,5.36,15.66,6.99,25.14-.34-.74-13.35-8.59-21.9-14.54-21.64Z"/><ellipse class="cls-2" cx="1353.01" cy="690.9" rx="7.45" ry="3.78" transform="translate(-130.65 364.22) rotate(-14.63)"/><ellipse class="cls-2" cx="1345.32" cy="705.16" rx="3.93" ry="7.17" transform="translate(-158.96 915.58) rotate(-35.62)"/><path class="cls-20" d="m1358.4,718.71c-3.33-4.01,6.11-23.03,12.35-23.46,4-.28,8.14,6.98,5.61,14.2-3.27,9.3-15.42,12.32-17.96,9.26Z"/><path class="cls-10" d="m1341.14,678.31c-14.93-5.93-23.02-16.39-21.2-21.93,1.98-6.02,16.92-10.07,34.64-3.04-4.48,8.33-8.96,16.65-13.44,24.98Z"/><path class="cls-19" d="m1345.82,670.28c-13.64-5.13-21.87-13.06-20.94-16.89,1.02-4.16,13.51-6.13,29.7-.06-2.92,5.65-5.84,11.3-8.76,16.95Z"/><ellipse class="cls-10" cx="1333.51" cy="653.92" rx="2.51" ry="3.2" transform="translate(294.58 1715.28) rotate(-71.73)"/><ellipse class="cls-10" cx="1339.76" cy="653.24" rx=".95" ry="1.21" transform="translate(299.52 1720.75) rotate(-71.73)"/><path class="cls-10" d="m1316.1,727.49c-14.93-5.93-23.02-16.39-21.2-21.93,1.98-6.02,16.92-10.07,34.64-3.04-4.48,8.33-8.96,16.65-13.44,24.98Z"/><path class="cls-19" d="m1320.78,719.46c-13.64-5.13-21.87-13.06-20.94-16.89,1.02-4.16,13.51-6.13,29.7-.06-2.92,5.65-5.84,11.3-8.76,16.95Z"/><ellipse class="cls-10" cx="1308.47" cy="703.1" rx="2.51" ry="3.2" transform="translate(230.68 1725.27) rotate(-71.73)"/><ellipse class="cls-10" cx="1314.72" cy="702.42" rx=".95" ry="1.21" transform="translate(235.63 1730.74) rotate(-71.73)"/><path class="cls-2" d="m1312.45,666.9c-.77-.12-5.79-11.14.46-18.01,3.81-4.19,10.56-5.46,11.17-4.88.64.6-5.78,2.85-9.38,9.04-4.06,6.98-1.64,13.95-2.25,13.86Z"/><path class="cls-2" d="m1287.32,715.8c-.77-.12-5.79-11.14.46-18.01,3.81-4.19,10.56-5.46,11.17-4.88.64.6-5.78,2.85-9.38,9.04-4.06,6.98-1.64,13.95-2.25,13.86Z"/><path class="cls-21" d="m1406.09,712.24c-6.59-5.47-2.1-17.7,2.5-24.62,16.85-25.38,70.65-33.01,79.09-21.99,3.84,5.01-2.51,13.28-4.59,17.62-13.02,27.19-64.91,39.04-77,29Z"/><path class="cls-14" d="m1447.18,650.12c-3.94,16.39-1.21,40.93,13.75,48.59,8.2,4.2,15.76,1.11,19.33,6.62,3.62,5.59.48,10.59.8,18.68.35,8.87,13.22,14.77,16.68,10.03,9.08-12.47,9.39-31.82,9.97-51.62.37-12.63-28.14.83-33.18-7.06-4.68-7.31,9.79-17.23,5.7-30.64-2.65-8.7-12.42-16.57-20.02-15.11-8.49,1.64-11.56,14.39-13.03,20.51Z"/><path class="cls-14" d="m1406.22,666.61c-12.07,8.39,5.95,30.72-2.77,65.92-5.52,22.26-18.85,38-26.68,42.29-.89.49-3.5,2.09-8.7,5.3-9.84,6.06-11.73,7.46-11.86,9.6-.2,3.1,3.32,7.05,6.92,7.28,7.82.5,14.59-16.64,15.98-16.01,1.47.67-8.94,18.44-2.98,24.17,1.57,1.51,4.3,2.21,6.34,1.44,7.52-2.8,5.36-25.14,5.36-25.14,0,0-3.21,19.4,4.62,23.74,1.71.95,4.45,1.46,5.82.31,3.41-2.85-5.79-12.52-4.03-23.99.95-6.19,4.6-9.68,8.31-14.21,7.37-9,11.08-18.2,18.49-36.61,6.77-16.82,17.46-54.43,2.97-63.97-4.73-3.12-12.75-3.62-17.79-.12Z"/><path class="cls-6" d="m166.1,762.41c11.59-15.06,72.31-8.29,193.29,5.86,14.74,1.72,32.68,4.08,41.42,17.58,14.1,21.79-13.09,45.83-8.05,90.26,4.52,39.92,29.65,48.53,24.16,71.5-7.14,29.89-55.88,41.3-89.74,49.23-83.51,19.56-148.43,1.36-179.48-22.27-7.17-5.46-13.5-11.92-16.11-21.1-6.19-21.77,13.75-40.42,25.31-62.12,29.95-56.22-15.5-96.84,9.2-128.94Z"/><path class="cls-12" d="m437.05,453.79c-19.59-30.53-56.28-36.18-65.51-37.6-43.56-6.71-93.98,14.18-110.25,50.52-11.51,25.7,4.81,35.14.74,94.5-3.31,48.22-15.01,55.63-7.84,78.77,10.01,32.31,46.32,61.41,80.34,58.77,42.92-3.33,65.09-55.87,86.64-106.92,19.1-45.26,41.45-98.2,15.88-138.04Z"/><path class="cls-12" d="m130.83,464.15c-55.66,6.24-101.22,58.29-114.37,109.97-15,58.96,20.74,83.77,0,133.23-20.8,49.59-66.64,48.26-69.44,82.48-3.45,42.22,61.84,99.24,112.32,88.82,22.18-4.58,29.68-19.73,83.73-105.74,68.91-109.65,83.06-126.94,89.86-169.19,4.66-28.94,12.34-76.64-16.34-109.97-30.17-35.06-79.96-30.26-85.77-29.61Z"/><path class="cls-31" d="m79.75,528.03c-7.89-6.41-34.72,23.21-44.4,60.4-6.39,24.56-5.1,51.69-3.91,76.73,1.35,28.29,4.79,38.99-.81,53.66-5.89,15.41-14.64,16.57-19,33.39-3.36,12.96-2.59,29.37,2.07,31.86,6.19,3.3,18.26-18.51,26.48-33.38,8.87-16.03,19.67-35.56,26.84-64.81,6.16-25.14,2.69-29.06,7.41-82.68,4.85-54.99,10.29-71.12,5.3-75.18Z"/><path class="cls-6" d="m434.05,651.06c-9.7-8.72-20.61-5.03-65.35-2.11-44.69,2.91-52.63.46-59.23-4.23-15.07-10.72-11.44-24.86-24.51-35.95-10.35-8.78-30.07-14.74-71.48,0,1.58,13.05,1.5,29.59-8.17,38.07-7.67,6.72-15.37,3.12-36.76,6.34-10.91,1.64-22.57,3.41-32.13,7.62l.32-1.5c-58.94,29.25-76.62,59.76-81.7,82.49-4.41,19.81.32,35.67-8.16,78.23-6.8,34.14-11.78,33.63-10.21,46.53,4.5,37.11,47.72,58.02,93.93,80.37,26.06,12.6,36.33,13.34,42.89,8.45,9.48-7,11.66-25.92,6.14-40.17-12.41-32.02-57.67-24.8-67.39-54.98-3.28-10.13,1.54-11.8,2.02-44.41.28-17.93,19.44-51.63,18.37-61.34l19.43-17.97c12.27,15.6,15.08,6.58,120.64,16.08,88.98,8.01,114.64,7.8,138.87-10.57,6.59-5,29.3-22.22,32.68-50.76.51-4.33,3.31-28.02-10.21-40.18Z"/><path class="cls-8" d="m140.97,805.22c-3.84-5.91-16.92-26.04-12.25-48.64,2.15-10.42,8.47-23.3,28.59-38.07,60.19-44.17,164.39-46.87,216.48-6.34,16.6,12.92,23.01,26.41,24.56,29.84,10.29,22.83,7.19,48.34,1.99,61.1-26.34,64.7-215.52,69.6-259.36,2.11Z"/><path class="cls-6" d="m122.43,422.43c-23.7,40.23-15.71,118.27,2.04,150.15,1.16,2.08,2.24,3.98,3.81,5.92,11.32,14.1,25.18,18.72,42.59,25.28,32.84,12.38,27.12,14.81,45.51,19.55,2.48.64,23.59,7.46,46.97,4.23,48.58-6.72,97.78-44.65,108.24-59.21,5.44-7.57,32.63-75.95,12.25-126.89-31.53-78.84-215.97-96.14-261.41-19.03Z"/><path class="cls-12" d="m367.49,356.29c-42.74-41.69-127.18-22.7-152.35,0-33.63-15.69-112.66-8.65-142.33,51.62-18.37,37.33-17.57,94.59,4.74,107.29,34.89,19.85,127.05-66.51,148.76-118.92,39.37,33.11,130.2,67.62,157.51,45.19,19.13-15.71,8.73-60.73-16.34-85.18Z"/><path class="cls-1" d="m159.25,500.86c-2.22.31-4.69.45-6.66-.3-3.21-1.24-3.68-4.34-2.81-4.8.63-.34,1.47.97,4.74,1.69.87.19,5.64,1.25,10.48-.75,1.65-.68,3.52-1.81,3.41-2.28-.16-.64-3.83.73-7.09.19-3.71-.61-5.05-3.39-4.3-3.91.54-.38,1.98.55,6.34,1.11,5.17.66,7.61-.07,8.25-.28,2.37-.77,4.6-2.19,4.47-2.67-.17-.59-3.81.85-7.09.19-2.39-.48-3.9-1.93-3.26-2.58.63-.63,2.78.01,6.99-.5,6.08-.74,8.56-2.94,11.66-2.55,2.37.29,4.03,1.96,3.67,3.8-1.03,5.21-18.31,12.17-28.79,13.63Z"/><path class="cls-11" d="m174.49,510.05c-8.55-12.76,3.54-41.05,24.82-44.73,6.21-1.07,11.36.32,14.29,1.21,18.4,5.61,32.68,26.15,27.45,38.43-7.44,17.51-55.72,21.26-66.57,5.08Z"/><path class="cls-7" d="m190.84,506.49c-6.22-10.48,2.58-33.7,18.06-36.72,4.52-.88,8.27.26,10.4.99,13.39,4.61,23.78,21.47,19.98,31.56-5.42,14.37-40.55,17.46-48.44,4.17Z"/><path class="cls-17" d="m195.66,504.29c-5.06-8.54,2.1-27.46,14.69-29.92,3.68-.72,6.72.21,8.46.81,10.89,3.75,19.34,17.5,16.25,25.71-4.4,11.71-32.98,14.22-39.4,3.4Z"/><ellipse class="cls-11" cx="220.19" cy="485.76" rx="7" ry="6.89"/><path class="cls-1" d="m357.59,495.76c2.22.31,4.69.45,6.66-.3,3.21-1.24,3.68-4.34,2.81-4.8-.63-.34-1.47.97-4.74,1.69-.87.19-5.64,1.25-10.48-.75-1.65-.68-3.52-1.81-3.41-2.28.16-.64,3.83.73,7.09.19,3.71-.61,5.05-3.39,4.3-3.91-.54-.38-1.98.55-6.34,1.11-5.17.66-7.61-.07-8.25-.28-2.37-.77-4.6-2.19-4.47-2.67.17-.59,3.81.85,7.09.19,2.39-.48,3.9-1.93,3.26-2.58-.63-.63-2.78.01-6.99-.5-6.08-.74-8.56-2.94-11.66-2.55-2.37.29-4.03,1.96-3.67,3.8,1.03,5.21,18.31,12.17,28.79,13.63Z"/><path class="cls-11" d="m343.33,504.95c8.55-12.76-3.54-41.05-24.82-44.73-6.21-1.07-11.36.32-14.29,1.21-18.4,5.61-32.68,26.15-27.45,38.43,7.44,17.51,55.72,21.26,66.57,5.08Z"/><path class="cls-7" d="m326.98,501.38c6.22-10.48-2.58-33.7-18.06-36.72-4.52-.88-8.27.26-10.4.99-13.39,4.61-23.78,21.47-19.98,31.56,5.42,14.37,40.55,17.46,48.44,4.17Z"/><path class="cls-17" d="m322.16,499.19c5.06-8.54-2.1-27.46-14.69-29.92-3.68-.72-6.72.21-8.46.81-10.89,3.75-19.34,17.5-16.25,25.71,4.4,11.71,32.98,14.22,39.4,3.4Z"/><ellipse class="cls-11" cx="311.34" cy="482.7" rx="7" ry="6.89"/><path class="cls-18" d="m253.25,547.63c.45-.07,1.1.33,3.9.88,2.12.42,3.88.61,4.34.66,2.27.24,4.09.29,4.69.31,0,0,.66.01,1.3.01,4.28,0,10.98-1.6,12.25-1.31.98.23-.43,1.8-4.31,2.77-4.68,1.17-12.8,1.45-17.86.18-4.76-1.19-5.27-3.36-4.31-3.51Z"/><path class="cls-16" d="m291.32,571.86c3.7,16.41-6.33,31.34-19.8,33.38-18.53,2.8-33.53-20.34-30.52-29.31,2.84-8.46,23.56-9.85,50.32-4.07Z"/><path class="cls-5" d="m148.12,744.7c-37.05,9.73-54.9,62.53-43.34,101.78,12.67,43.03,62.33,75.33,97.34,60.59,36.33-15.29,45.76-76.56,25.15-116.3-13.84-26.69-46.86-54.55-79.14-46.07Z"/><ellipse class="cls-17" cx="171.67" cy="765.82" rx="4.66" ry="14.17" transform="translate(-599.08 617.88) rotate(-66.5)"/><ellipse class="cls-17" cx="155.34" cy="783.86" rx="4.6" ry="14.35" transform="translate(-88.41 22.84) rotate(-6.55)"/><ellipse class="cls-17" cx="134.34" cy="777.28" rx="14.29" ry="4.62" transform="translate(-527.63 348.32) rotate(-47.25)"/><path class="cls-24" d="m110.56,799.16c-1.89,8.79-7.62,40.53,10.77,67.84,17.14,25.45,47.82,36.04,50.27,32.53,1.97-2.83-14.65-14.25-31.98-38.9-16.1-22.89-24.45-45.29-29.06-61.47Z"/><path class="cls-6" d="m65.09,855.91c33.45-7.3,49.01,34.8,103.91,43.19,37.12,5.67,58.21-9.26,75.05,5.01,10.48,8.88,15.03,25.45,9.31,37.17-14.9,30.56-102.99,35.29-163.86,4.35-7.12-3.62-59.59-30.29-55.07-60.02,1.95-12.85,14.53-26.18,30.66-29.7Z"/><path class="cls-43" d="m129.82,687.54c-1.48-6.55-19.26-1.33-31.98,15.64-9.29,12.39-13.02,27.22-19.34,52.38-2.72,10.82-7.53,29.96-4.78,31.05,2.76,1.09,13.14-15.88,19.57-33.36,6.06-16.5,4.37-21.97,9.98-30.05,6.13-8.83,10.84-6.17,18.48-16.83,3.69-5.15,9-14.71,8.07-18.83Z"/><path class="cls-43" d="m51.97,892.02c-6.49,1.24-2.11,19.55,14,33.21,11.76,9.98,26.15,14.39,50.55,21.88,10.5,3.22,29.07,8.92,30.25,6.16,1.19-2.76-15.02-14.05-31.89-21.31-15.93-6.86-21.36-5.37-29.05-11.42-8.4-6.61-5.6-11.3-15.73-19.52-4.89-3.97-14.05-9.78-18.13-9Z"/><path class="cls-31" d="m138.12,376.84c-1.98-1.64-5.74-.05-13.25,3.13-11.36,4.81-26.02,11.02-34.8,26.01-7.35,12.53-6.98,25.03-6.27,48.96.53,17.85,3.08,32.35,5.22,41.97,4.76-6.88,11.54-17.19,18.8-30.31,17.86-32.25,39.2-82.38,30.29-89.77Z"/><path class="cls-5" d="m310.28,777.24c-28.87-6.83-52.2-22.25-64.07-40.14-7.42,5.97-14.04,12.84-19.42,20.4-30.72,43.14-25.32,114.16,13.07,137.27,39.85,23.98,103.04-10.98,125.11-59.39,7.79-17.1,12.12-39.53,10.01-60.6-17.67,6.75-40.74,8.12-64.69,2.45Z"/><path class="cls-24" d="m256.29,757.66c-8.39,5.23-37.76,24.9-42.88,58.95-4.77,31.73,13.57,62.23,18.39,61.38,3.87-.68-1.68-21.48,2.31-52.74,3.71-29.05,13.73-52.03,22.19-67.59Z"/><path class="cls-37" d="m237.18,753.33c-4.47-17.33,35.63-29.21,54.44-23.22,11.69,3.72,11.45,16.74,26.36,21.88,15.23,5.25,24.38-5.27,37.48-.76,16.3,5.61,28.81,31.06,20.25,42.09-17.04,21.96-131.44-12.47-138.53-39.98Z"/><path class="cls-23" d="m242.46,746.86c-5.74-11.45,26.68-22.99,45.45-17.6,11.67,3.35,12.49,11.65,27.39,16.18,15.24,4.63,23.29-1.33,36.4,2.64,16.31,4.94,30.52,22.25,23.09,28.59-14.81,12.61-123.22-11.63-132.33-29.81Z"/><path class="cls-36" d="m307.64,765.77c29.39-51.04,39.78-93.89,29.79-101.75-.56-.44,3.09,1.03-22.84-3.52-5.04-.88-8.81-1.55-11.37.81-3.27,3.02,0,0-2.33,3.41-5.06,7.42,22.64,4.67,27.35,9.24,14.45,14.04-27.89,86.63-27.89,86.63,2.07,2.99,5.11,4.43,7.29,5.17Z"/><ellipse class="cls-27" cx="301.2" cy="760.05" rx="9.37" ry="17.85" transform="translate(-508.13 875.7) rotate(-76.51)"/><path class="cls-6" d="m415.76,658.5c14.67-8.44,36.51-7.36,47.17,5.07,5.86,6.83,14.68,24.48-19.56,115.43-33.33,88.52-49.99,132.78-86.29,156.02-42.1,26.95-104.27,32.08-126.56,2.54-7.97-10.56-12.75-28.09-6.9-38.05,7.43-12.66,27.34-5.18,60.98-11.42,15.27-2.83,37.38-6.93,54.07-20.3,14.44-11.56,21.31-27.24,43.72-123.04,13.42-57.37,16.8-76.72,33.36-86.26Z"/><path class="cls-22" d="m272.57,452.45c4.18-3.49,15.26-11.78,31.31-12.74,20.13-1.21,35.82,9.84,35.43,10.88-.3.82-10.62-4.15-27.19-3.98-6,.06-10.93.78-18.4,1.86-8.73,1.26-15.95,2.77-21.15,3.98Z"/><path class="cls-22" d="m165.24,458.65c4.18-3.49,15.26-11.78,31.31-12.74,20.13-1.21,35.82,9.84,35.43,10.88-.3.82-10.62-4.15-27.19-3.98-6,.06-10.93.78-18.4,1.86-8.73,1.26-15.95,2.77-21.15,3.98Z"/><g class="cls-50"><image width="192" height="192" transform="translate(239 454)" xlink:href="../../../../../../../../var/folders/18/6mszw04d3bz42f332xxxqz440000gn/T/TemporaryItems/NSIRD_Illustrator_AclE1C/AI_28_0/Adobe/AISVG/26/introduktion_ny/introduktion_ny1.png"/></g><g class="cls-50"><image width="192" height="192" transform="translate(98 467)" xlink:href="../../../../../../../../var/folders/18/6mszw04d3bz42f332xxxqz440000gn/T/TemporaryItems/NSIRD_Illustrator_AclE1C/AI_28_0/Adobe/AISVG/26/introduktion_ny/introduktion_ny2.png"/></g></g><g id="Layer_2"><path class="cls-44" d="m472.75,260.01h-16.33v16.48h13.65c1.27,0,2.21.45,2.83,1.34.62.89.94,2.09.94,3.58s-.32,2.68-.95,3.56-1.57,1.32-2.82,1.32h-13.65v21.23c0,2.7-.39,4.7-1.16,6-.77,1.3-1.76,1.96-2.97,1.96s-2.23-.66-3-1.98c-.77-1.32-1.16-3.31-1.16-5.98v-49.57c0-1.87.18-3.41.53-4.59s.91-2.05,1.66-2.59c.75-.54,1.72-.81,2.89-.81h19.54c1.32,0,2.3.46,2.95,1.38.64.92.96,2.13.96,3.63s-.32,2.75-.96,3.67c-.64.92-1.62,1.38-2.95,1.38Z"/><path class="cls-44" d="m500.13,308.71c-1.84,2.26-3.62,3.95-5.35,5.08-1.72,1.13-3.65,1.69-5.79,1.69-1.95,0-3.67-.61-5.15-1.82s-2.62-2.86-3.42-4.94c-.8-2.08-1.2-4.34-1.2-6.77,0-3.28.66-6.08,1.98-8.39,1.32-2.31,3.14-3.87,5.44-4.66.48-.18,1.68-.57,3.6-1.19,1.92-.62,3.56-1.18,4.93-1.69,1.37-.51,2.85-1.14,4.45-1.87-.09-3.16-.5-5.49-1.21-6.97-.72-1.48-2.2-2.22-4.45-2.22-1.94,0-3.39.42-4.37,1.27-.98.85-1.81,2.12-2.51,3.82-.7,1.7-1.19,2.82-1.48,3.36-.29.54-.91.81-1.86.81-.86,0-1.6-.43-2.22-1.3-.62-.86-.94-1.97-.94-3.32,0-2.11.47-4.16,1.42-6.15.95-1.99,2.43-3.63,4.44-4.92,2.01-1.29,4.51-1.93,7.51-1.93,3.35,0,5.98.62,7.9,1.87,1.92,1.25,3.27,3.22,4.06,5.91.79,2.7,1.19,6.27,1.19,10.72,0,2.81,0,5.2-.01,7.16,0,1.96-.02,4.15-.04,6.55,0,2.26.24,4.61.71,7.05.47,2.45.71,4.02.71,4.72,0,1.23-.37,2.35-1.1,3.36s-1.57,1.52-2.5,1.52c-.78,0-1.55-.58-2.32-1.74-.76-1.16-1.57-2.83-2.43-5.03Zm-.5-17.36c-1.12.64-2.74,1.33-4.87,2.04-2.13.72-3.61,1.25-4.42,1.58-.82.34-1.6,1-2.35,1.98-.74.98-1.12,2.35-1.12,4.11s.44,3.36,1.31,4.64c.87,1.27,2.02,1.91,3.43,1.91,1.51,0,2.9-.52,4.17-1.56,1.27-1.04,2.21-2.38,2.81-4.02.69-1.82,1.03-4.8,1.03-8.96v-1.71Z"/><path class="cls-44" d="m521.77,273.33v1.45c1.34-2.78,2.81-4.83,4.4-6.13,1.59-1.3,3.42-1.96,5.49-1.96s3.81.69,5.39,2.07c1.58,1.38,2.76,3.33,3.55,5.84.5,1.47.83,3.05.98,4.75.15,1.7.22,3.87.22,6.5v22.32c0,2.4-.35,4.22-1.05,5.45-.7,1.23-1.61,1.85-2.72,1.85s-2.06-.63-2.76-1.89c-.71-1.26-1.06-3.06-1.06-5.41v-20c0-3.96-.35-6.98-1.05-9.07-.7-2.09-2.09-3.14-4.17-3.14-1.36,0-2.6.64-3.71,1.91-1.12,1.27-1.94,3.03-2.46,5.25-.37,1.79-.56,5.13-.56,10.02v15.03c0,2.43-.36,4.26-1.07,5.47-.72,1.22-1.64,1.82-2.78,1.82s-2-.63-2.71-1.89c-.71-1.26-1.06-3.06-1.06-5.41v-34.67c0-2.29.32-3.99.95-5.12.63-1.13,1.5-1.69,2.6-1.69.67,0,1.27.25,1.81.75.54.5.97,1.25,1.3,2.24.33,1,.49,2.21.49,3.65Z"/><path class="cls-44" d="m577.41,275.48v34.85c0,3.98-.27,7.41-.81,10.28-.54,2.87-1.41,5.24-2.6,7.12-1.19,1.87-2.75,3.27-4.68,4.17-1.93.91-4.32,1.36-7.19,1.36-2.62,0-4.97-.58-7.04-1.74-2.07-1.16-3.66-2.65-4.77-4.48-1.12-1.83-1.68-3.71-1.68-5.65,0-1.47.32-2.66.95-3.58s1.4-1.38,2.29-1.38c1.12,0,2.09.78,2.93,2.33.41.79.83,1.59,1.27,2.4.44.81.92,1.49,1.45,2.07.53.57,1.17,1,1.91,1.27.74.28,1.6.42,2.57.42,1.97,0,3.5-.43,4.59-1.3,1.09-.86,1.85-2.07,2.29-3.63.44-1.55.69-3.22.77-4.99.07-1.77.13-4.62.17-8.55-1.17,2.58-2.53,4.54-4.06,5.89-1.54,1.35-3.36,2.02-5.49,2.02-2.55,0-4.78-1.03-6.69-3.08-1.91-2.05-3.37-4.92-4.4-8.61-1.02-3.69-1.54-7.95-1.54-12.79,0-3.6.31-6.86.94-9.76s1.51-5.35,2.67-7.34c1.15-1.99,2.48-3.49,3.99-4.5,1.51-1.01,3.16-1.52,4.97-1.52,2.16,0,4.03.65,5.61,1.96,1.58,1.3,3.05,3.35,4.41,6.13v-1.63c0-2.08.33-3.69.98-4.83.65-1.14,1.49-1.71,2.51-1.71,1.47,0,2.45.75,2.93,2.26.48,1.51.73,3.68.73,6.53Zm-22.08,15.21c0,4.86.67,8.54,2.02,11.03,1.35,2.49,3.09,3.74,5.23,3.74,1.27,0,2.46-.53,3.59-1.6,1.13-1.07,2.04-2.68,2.75-4.83.71-2.15,1.06-4.77,1.06-7.84,0-4.89-.68-8.7-2.05-11.43-1.37-2.72-3.17-4.09-5.4-4.09s-3.92,1.3-5.23,3.91c-1.31,2.61-1.97,6.31-1.97,11.12Z"/><path class="cls-44" d="m624.76,291.96v15.95c0,2.52-.36,4.41-1.09,5.67-.73,1.26-1.68,1.89-2.88,1.89s-2.09-.63-2.81-1.89-1.07-3.15-1.07-5.67v-19.12c0-3.02-.07-5.36-.2-7.03-.13-1.67-.48-3.04-1.06-4.11-.58-1.07-1.49-1.6-2.74-1.6-2.49,0-4.14,1.35-4.93,4.04-.79,2.7-1.19,6.56-1.19,11.6v16.22c0,2.49-.36,4.37-1.07,5.65-.72,1.27-1.66,1.91-2.83,1.91s-2.1-.64-2.83-1.91-1.1-3.16-1.1-5.65v-34.32c0-2.26.33-3.97.99-5.14.66-1.17,1.53-1.76,2.61-1.76s1.91.55,2.61,1.65c.7,1.1,1.05,2.61,1.05,4.55v1.14c1.32-2.49,2.74-4.32,4.24-5.49,1.51-1.17,3.18-1.76,5.02-1.76s3.56.6,4.94,1.8c1.38,1.2,2.51,3.02,3.41,5.45,1.28-2.46,2.66-4.28,4.13-5.47,1.47-1.19,3.1-1.78,4.89-1.78,2.08,0,3.88.64,5.39,1.93,1.51,1.29,2.63,3.14,3.38,5.54.65,2.17.98,5.58.98,10.24v23.42c0,2.52-.36,4.41-1.09,5.67-.73,1.26-1.68,1.89-2.88,1.89s-2.1-.64-2.83-1.91c-.74-1.27-1.1-3.16-1.1-5.65v-20.17c0-2.58-.07-4.64-.21-6.2-.14-1.55-.52-2.86-1.13-3.91s-1.54-1.58-2.79-1.58c-1,0-1.96.47-2.86,1.41-.9.94-1.61,2.2-2.11,3.78-.56,2.02-.84,5.6-.84,10.72Z"/><path class="cls-44" d="m653.85,261.11c-1.06,0-1.97-.51-2.72-1.54-.75-1.03-1.13-2.48-1.13-4.35,0-1.7.39-3.1,1.16-4.2.77-1.1,1.67-1.65,2.69-1.65s1.86.5,2.62,1.49c.76,1,1.14,2.45,1.14,4.35s-.37,3.29-1.12,4.33c-.74,1.04-1.63,1.56-2.65,1.56Zm3.77,12.39v34.67c0,2.4-.36,4.22-1.09,5.45s-1.65,1.85-2.76,1.85-2.02-.63-2.72-1.89-1.05-3.06-1.05-5.41v-34.32c0-2.37.35-4.16,1.05-5.36.7-1.2,1.61-1.8,2.72-1.8s2.04.6,2.76,1.8c.73,1.2,1.09,2.87,1.09,5.01Z"/><path class="cls-44" d="m672.42,273.33v1.45c1.34-2.78,2.81-4.83,4.4-6.13,1.59-1.3,3.42-1.96,5.49-1.96s3.81.69,5.39,2.07c1.58,1.38,2.76,3.33,3.55,5.84.5,1.47.83,3.05.98,4.75.15,1.7.22,3.87.22,6.5v22.32c0,2.4-.35,4.22-1.05,5.45-.7,1.23-1.61,1.85-2.72,1.85s-2.06-.63-2.76-1.89c-.71-1.26-1.06-3.06-1.06-5.41v-20c0-3.96-.35-6.98-1.05-9.07-.7-2.09-2.09-3.14-4.17-3.14-1.36,0-2.6.64-3.71,1.91-1.12,1.27-1.94,3.03-2.46,5.25-.37,1.79-.56,5.13-.56,10.02v15.03c0,2.43-.36,4.26-1.07,5.47-.72,1.22-1.64,1.82-2.78,1.82s-2-.63-2.71-1.89c-.71-1.26-1.06-3.06-1.06-5.41v-34.67c0-2.29.32-3.99.95-5.12.63-1.13,1.5-1.69,2.6-1.69.67,0,1.27.25,1.81.75.54.5.97,1.25,1.3,2.24.33,1,.49,2.21.49,3.65Z"/><path class="cls-44" d="m720.91,308.62v-1.19c-1.02,1.85-2.03,3.35-3.03,4.5-1,1.16-2.08,2.04-3.24,2.64s-2.43.9-3.81.9c-1.82,0-3.51-.61-5.07-1.82-1.55-1.22-2.9-2.95-4.03-5.21-1.14-2.26-2-4.91-2.58-7.95-.59-3.05-.88-6.34-.88-9.89,0-7.5,1.16-13.34,3.49-17.53,2.33-4.19,5.39-6.28,9.19-6.28,2.2,0,4.05.59,5.56,1.78,1.51,1.19,2.98,3.01,4.41,5.47v-17.71c0-2.46.31-4.32.94-5.58.62-1.26,1.51-1.89,2.67-1.89s2.04.58,2.67,1.74c.62,1.16.94,2.86.94,5.12v52.91c0,2.29-.33,4-1,5.14-.67,1.14-1.54,1.71-2.6,1.71s-1.9-.59-2.58-1.78-1.02-2.88-1.02-5.08Zm-14.99-17.62c0,3.25.32,6.02.96,8.31.64,2.29,1.52,4.01,2.64,5.16,1.12,1.16,2.34,1.74,3.66,1.74s2.56-.55,3.67-1.65,1.99-2.78,2.65-5.05c.66-2.27.99-5.1.99-8.5,0-3.19-.33-5.94-.99-8.24-.66-2.3-1.55-4.06-2.68-5.27-1.13-1.22-2.36-1.82-3.7-1.82s-2.64.62-3.74,1.87c-1.1,1.25-1.95,3.03-2.55,5.36-.6,2.33-.91,5.03-.91,8.11Z"/><path class="cls-44" d="m760.3,299.79c0,3.31-.51,6.15-1.54,8.5-1.02,2.36-2.54,4.15-4.54,5.36s-4.43,1.82-7.3,1.82-5.08-.66-7.04-1.98-3.4-2.97-4.33-4.94c-.93-1.98-1.4-3.96-1.4-5.95,0-1.32.3-2.45.89-3.38.6-.94,1.35-1.41,2.26-1.41.8,0,1.41.31,1.84.92s.84,1.48,1.23,2.59c.78,2.14,1.72,3.74,2.81,4.79s2.57,1.58,4.45,1.58c1.53,0,2.78-.53,3.75-1.6.98-1.07,1.47-2.29,1.47-3.67,0-2.11-.51-3.65-1.52-4.61-1.01-.97-2.69-1.89-5.01-2.77-2.62-1.03-4.76-2.1-6.41-3.23-1.65-1.13-2.96-2.61-3.95-4.46-.99-1.85-1.48-4.12-1.48-6.81,0-2.4.46-4.67,1.37-6.81.91-2.14,2.26-3.85,4.03-5.12s3.92-1.91,6.44-1.91c1.97,0,3.75.32,5.32.97,1.57.64,2.88,1.51,3.94,2.59,1.05,1.08,1.85,2.29,2.4,3.6s.82,2.61.82,3.87c0,1.38-.29,2.5-.88,3.38s-1.42,1.32-2.5,1.32c-.78,0-1.45-.35-2-1.05s-1.18-1.76-1.88-3.16c-.58-1.17-1.26-2.11-2.04-2.81s-1.84-1.05-3.18-1.05-2.52.46-3.43,1.38c-.91.92-1.37,2.07-1.37,3.45,0,1.26.33,2.29,1.01,3.1.67.81,1.57,1.47,2.71,2,1.13.53,2.7,1.17,4.69,1.93,2.36.91,4.29,1.99,5.79,3.25,1.5,1.26,2.63,2.75,3.41,4.46.77,1.71,1.16,3.67,1.16,5.87Z"/><path class="cls-44" d="m767.17,267.75h.84v-7.21c0-1.93.03-3.45.1-4.55s.25-2.04.54-2.83c.3-.82.73-1.49,1.28-2,.56-.51,1.18-.77,1.87-.77.97,0,1.84.57,2.62,1.71.52.76.85,1.69.99,2.79.14,1.1.21,2.66.21,4.68v8.17h2.79c1.08,0,1.9.4,2.47,1.21.57.81.85,1.84.85,3.1,0,1.61-.41,2.74-1.21,3.38-.81.64-1.97.97-3.48.97h-1.42v22.06c0,1.88.04,3.32.13,4.33.08,1.01.31,1.83.67,2.46.36.63.95.94,1.77.94.45,0,1.05-.12,1.81-.37.76-.25,1.36-.37,1.79-.37.61,0,1.17.39,1.66,1.16.49.78.74,1.74.74,2.88,0,1.93-.67,3.41-2.01,4.44s-3.27,1.54-5.78,1.54c-2.38,0-4.19-.63-5.42-1.89s-2.03-3-2.42-5.23c-.38-2.23-.57-5.2-.57-8.92v-23.03h-1c-1.1,0-1.94-.41-2.51-1.23-.58-.82-.87-1.86-.87-3.12s.3-2.29.91-3.1c.6-.81,1.48-1.21,2.64-1.21Z"/><path class="cls-44" d="m813.48,308.35v-39.99c-4.73,5.71-7.91,8.57-9.55,8.57-.78,0-1.48-.49-2.08-1.47-.61-.98-.91-2.12-.91-3.41,0-1.49.3-2.59.89-3.3.59-.7,1.65-1.61,3.15-2.72,2.25-1.67,4.05-3.43,5.4-5.27s2.54-3.91,3.59-6.2c1.04-2.29,1.72-3.69,2.04-4.22s.91-.79,1.79-.79c.99,0,1.78.6,2.37,1.8.6,1.2.89,2.86.89,4.97v50.32c0,5.89-1.28,8.83-3.83,8.83-1.13,0-2.05-.6-2.74-1.8-.69-1.2-1.03-2.97-1.03-5.32Z"/><path class="cls-44" d="m862.59,282.78c0,4.81-.19,8.94-.56,12.39-.37,3.46-1.06,6.59-2.07,9.4-1.27,3.46-2.9,6.12-4.91,8-2.01,1.87-4.24,2.81-6.7,2.81-2.83,0-5.37-1.26-7.61-3.78-2.24-2.52-3.93-6.01-5.07-10.46-.58-2.43-1-5.12-1.27-8.06-.27-2.94-.41-6.13-.41-9.56,0-4.42.15-8.41.45-11.95.3-3.54.76-6.59,1.4-9.14,1.1-4.22,2.69-7.43,4.79-9.65,2.09-2.21,4.59-3.32,7.5-3.32,1.92,0,3.66.49,5.22,1.47,1.56.98,2.94,2.42,4.12,4.31,1.18,1.89,2.18,4.23,3,7.01,1.41,4.83,2.12,11.67,2.12,20.52Zm-7.65-.88c0-5.36-.2-9.75-.61-13.16-.41-3.41-1.1-5.99-2.07-7.73-.97-1.74-2.31-2.61-4.02-2.61-2.46,0-4.16,1.95-5.12,5.84-.96,3.9-1.44,9.9-1.44,18.02,0,5.51.21,10.02.61,13.54s1.1,6.17,2.07,7.98c.97,1.8,2.28,2.7,3.94,2.7s3.05-.94,4.02-2.81c.97-1.87,1.65-4.56,2.04-8.04.39-3.49.59-8.06.59-13.71Z"/><path class="cls-44" d="m902.52,309.98l-6.73-17.4-4.13,6.15v9.54c0,2.31-.39,4.09-1.16,5.34-.77,1.25-1.66,1.87-2.67,1.87-1.17,0-2.09-.62-2.76-1.85s-1-3.05-1-5.45v-51.15c0-2.67.33-4.69.98-6.09.65-1.39,1.58-2.09,2.79-2.09s2.1.63,2.79,1.89c.69,1.26,1.03,3.12,1.03,5.58v29.09l8.57-14.15c1.06-1.76,1.87-2.96,2.43-3.6.56-.64,1.24-.97,2.04-.97.95,0,1.74.48,2.37,1.43.63.95.95,2.15.95,3.58,0,1.76-1.03,4.1-3.1,7.03l-4.05,5.84,7.82,19.34c.58,1.44.99,2.53,1.24,3.27s.38,1.46.38,2.13c0,1.9-.33,3.41-.99,4.5-.66,1.1-1.53,1.65-2.61,1.65-.93,0-1.65-.4-2.15-1.19-.5-.79-1.18-2.23-2.04-4.31Z"/><path class="cls-44" d="m942.66,291.08c0,3.57-.35,6.87-1.06,9.89-.71,3.02-1.73,5.61-3.07,7.78-1.34,2.17-2.94,3.83-4.8,4.99-1.86,1.16-3.96,1.74-6.28,1.74s-4.38-.59-6.23-1.76-3.44-2.85-4.79-5.03c-1.35-2.18-2.37-4.76-3.07-7.73-.7-2.97-1.05-6.26-1.05-9.87s.35-6.96,1.06-9.98c.71-3.02,1.72-5.6,3.04-7.73,1.32-2.14,2.92-3.79,4.8-4.94,1.88-1.16,3.96-1.74,6.23-1.74s4.4.59,6.28,1.76c1.88,1.17,3.49,2.84,4.83,5.01,1.34,2.17,2.36,4.75,3.06,7.73s1.05,6.28,1.05,9.89Zm-7.65,0c0-4.89-.68-8.7-2.05-11.43-1.37-2.72-3.21-4.09-5.51-4.09-1.49,0-2.8.61-3.94,1.82-1.13,1.22-2.01,3.01-2.62,5.38s-.92,5.14-.92,8.31.3,5.87.91,8.22c.6,2.34,1.47,4.14,2.6,5.38,1.13,1.25,2.45,1.87,3.98,1.87,2.31,0,4.15-1.37,5.51-4.11,1.37-2.74,2.05-6.53,2.05-11.36Z"/><path class="cls-44" d="m967.65,309.98l-6.73-17.4-4.13,6.15v9.54c0,2.31-.39,4.09-1.16,5.34-.77,1.25-1.66,1.87-2.67,1.87-1.17,0-2.09-.62-2.76-1.85s-1-3.05-1-5.45v-51.15c0-2.67.33-4.69.98-6.09.65-1.39,1.58-2.09,2.79-2.09s2.1.63,2.79,1.89c.69,1.26,1.03,3.12,1.03,5.58v29.09l8.57-14.15c1.06-1.76,1.87-2.96,2.43-3.6.56-.64,1.24-.97,2.04-.97.95,0,1.74.48,2.37,1.43.63.95.95,2.15.95,3.58,0,1.76-1.03,4.1-3.1,7.03l-4.05,5.84,7.82,19.34c.58,1.44.99,2.53,1.24,3.27s.38,1.46.38,2.13c0,1.9-.33,3.41-.99,4.5-.66,1.1-1.53,1.65-2.61,1.65-.93,0-1.65-.4-2.15-1.19-.5-.79-1.18-2.23-2.04-4.31Z"/><path class="cls-44" d="m1007.79,291.08c0,3.57-.35,6.87-1.06,9.89-.71,3.02-1.73,5.61-3.07,7.78-1.34,2.17-2.94,3.83-4.8,4.99-1.86,1.16-3.96,1.74-6.28,1.74s-4.38-.59-6.23-1.76-3.44-2.85-4.79-5.03c-1.35-2.18-2.37-4.76-3.07-7.73-.7-2.97-1.05-6.26-1.05-9.87s.35-6.96,1.06-9.98c.71-3.02,1.72-5.6,3.04-7.73,1.32-2.14,2.92-3.79,4.8-4.94,1.88-1.16,3.96-1.74,6.23-1.74s4.4.59,6.28,1.76c1.88,1.17,3.49,2.84,4.83,5.01,1.34,2.17,2.36,4.75,3.06,7.73s1.05,6.28,1.05,9.89Zm-7.65,0c0-4.89-.68-8.7-2.05-11.43-1.37-2.72-3.21-4.09-5.51-4.09-1.49,0-2.8.61-3.94,1.82-1.13,1.22-2.01,3.01-2.62,5.38s-.92,5.14-.92,8.31.3,5.87.91,8.22c.6,2.34,1.47,4.14,2.6,5.38,1.13,1.25,2.45,1.87,3.98,1.87,2.31,0,4.15-1.37,5.51-4.11,1.37-2.74,2.05-6.53,2.05-11.36Z"/><path class="cls-44" d="m1038.34,299.79c0,3.31-.51,6.15-1.54,8.5-1.02,2.36-2.54,4.15-4.54,5.36-2,1.22-4.43,1.82-7.3,1.82s-5.08-.66-7.04-1.98-3.4-2.97-4.33-4.94-1.4-3.96-1.4-5.95c0-1.32.3-2.45.89-3.38.6-.94,1.35-1.41,2.26-1.41.8,0,1.41.31,1.84.92.43.62.84,1.48,1.23,2.59.78,2.14,1.72,3.74,2.81,4.79s2.57,1.58,4.45,1.58c1.53,0,2.78-.53,3.75-1.6.98-1.07,1.47-2.29,1.47-3.67,0-2.11-.51-3.65-1.52-4.61s-2.68-1.89-5.01-2.77c-2.62-1.03-4.76-2.1-6.41-3.23-1.65-1.13-2.96-2.61-3.95-4.46-.99-1.85-1.48-4.12-1.48-6.81,0-2.4.46-4.67,1.37-6.81.91-2.14,2.26-3.85,4.03-5.12s3.92-1.91,6.44-1.91c1.97,0,3.75.32,5.32.97,1.57.64,2.88,1.51,3.94,2.59,1.05,1.08,1.85,2.29,2.4,3.6s.82,2.61.82,3.87c0,1.38-.29,2.5-.88,3.38s-1.42,1.32-2.5,1.32c-.78,0-1.45-.35-2-1.05s-1.18-1.76-1.88-3.16c-.58-1.17-1.26-2.11-2.04-2.81-.78-.7-1.84-1.05-3.18-1.05s-2.52.46-3.43,1.38-1.37,2.07-1.37,3.45c0,1.26.33,2.29,1,3.1.67.81,1.57,1.47,2.71,2,1.13.53,2.7,1.17,4.69,1.93,2.36.91,4.29,1.99,5.79,3.25,1.5,1.26,2.63,2.75,3.41,4.46s1.16,3.67,1.16,5.87Z"/><path class="cls-44" d="m1051.71,273.33v1.45c1.34-2.78,2.81-4.83,4.4-6.13,1.59-1.3,3.42-1.96,5.49-1.96s3.81.69,5.39,2.07c1.58,1.38,2.76,3.33,3.55,5.84.5,1.47.83,3.05.98,4.75.15,1.7.22,3.87.22,6.5v22.32c0,2.4-.35,4.22-1.05,5.45-.7,1.23-1.61,1.85-2.72,1.85s-2.06-.63-2.76-1.89c-.71-1.26-1.06-3.06-1.06-5.41v-20c0-3.96-.35-6.98-1.05-9.07-.7-2.09-2.09-3.14-4.17-3.14-1.36,0-2.6.64-3.71,1.91-1.12,1.27-1.94,3.03-2.46,5.25-.37,1.79-.56,5.13-.56,10.02v15.03c0,2.43-.36,4.26-1.08,5.47s-1.64,1.82-2.78,1.82-2-.63-2.71-1.89c-.71-1.26-1.06-3.06-1.06-5.41v-34.67c0-2.29.32-3.99.95-5.12.63-1.13,1.5-1.69,2.6-1.69.67,0,1.27.25,1.81.75.54.5.97,1.25,1.3,2.24.33,1,.49,2.21.49,3.65Z"/><path class="cls-44" d="m1106.54,273.68l-1.42,2.29c1.82,4.37,2.74,9.4,2.74,15.12,0,3.6-.35,6.89-1.05,9.87-.7,2.97-1.72,5.56-3.07,7.76s-2.96,3.87-4.83,5.03c-1.87,1.16-3.96,1.74-6.27,1.74-1.84,0-3.61-.42-5.29-1.27s-3.16-2.02-4.42-3.52l-1.03,1.63c-.82,1.29-1.42,2.2-1.81,2.72s-.77.79-1.14.79c-.56,0-1.02-.28-1.4-.83-.37-.56-.56-1.22-.56-1.98,0-.88.14-1.64.42-2.29.28-.64.79-1.55,1.54-2.72l1.26-1.98c-1.79-4.28-2.68-9.26-2.68-14.94,0-3.63.35-6.96,1.06-9.98.71-3.02,1.72-5.6,3.04-7.73,1.32-2.14,2.92-3.79,4.8-4.94,1.88-1.16,3.96-1.74,6.23-1.74,1.9,0,3.68.4,5.33,1.19,1.66.79,3.13,1.95,4.41,3.47l1.37-2.24c.6-.94,1.08-1.63,1.47-2.07s.82-.66,1.33-.66c.46,0,.88.27,1.24.81.36.54.54,1.27.54,2.18,0,.73-.14,1.41-.43,2.02-.29.62-.74,1.38-1.35,2.29Zm-20.85,23.77l11.95-18.72c-1.34-2.11-3.01-3.16-5-3.16-1.49,0-2.8.61-3.94,1.82-1.13,1.22-2.01,3.01-2.62,5.38s-.92,5.14-.92,8.31c0,2.23.18,4.35.53,6.37Zm13.93-12.96l-11.95,18.81c1.32,2.17,2.98,3.25,4.97,3.25,2.31,0,4.15-1.37,5.51-4.11,1.37-2.74,2.05-6.53,2.05-11.36,0-2.31-.2-4.51-.59-6.59Z"/><path class="cls-44" d="m1134.74,308.62v-1.19c-1.02,1.85-2.03,3.35-3.03,4.5-1,1.16-2.08,2.04-3.24,2.64-1.16.6-2.43.9-3.81.9-1.82,0-3.51-.61-5.07-1.82-1.55-1.22-2.9-2.95-4.03-5.21-1.14-2.26-2-4.91-2.58-7.95-.59-3.05-.88-6.34-.88-9.89,0-7.5,1.16-13.34,3.49-17.53,2.33-4.19,5.39-6.28,9.19-6.28,2.2,0,4.05.59,5.56,1.78s2.98,3.01,4.41,5.47v-17.71c0-2.46.31-4.32.93-5.58.62-1.26,1.51-1.89,2.67-1.89s2.04.58,2.67,1.74c.62,1.16.93,2.86.93,5.12v52.91c0,2.29-.33,4-1,5.14s-1.54,1.71-2.6,1.71-1.9-.59-2.58-1.78-1.02-2.88-1.02-5.08Zm-14.99-17.62c0,3.25.32,6.02.96,8.31.64,2.29,1.52,4.01,2.64,5.16,1.12,1.16,2.33,1.74,3.66,1.74s2.56-.55,3.67-1.65,1.99-2.78,2.65-5.05c.66-2.27.99-5.1.99-8.5,0-3.19-.33-5.94-.99-8.24-.66-2.3-1.55-4.06-2.68-5.27-1.13-1.22-2.36-1.82-3.7-1.82s-2.64.62-3.74,1.87c-1.1,1.25-1.95,3.03-2.55,5.36s-.91,5.03-.91,8.11Z"/><path class="cls-44" d="m1170.47,308.62v-1.19c-1.02,1.85-2.03,3.35-3.03,4.5-1,1.16-2.08,2.04-3.24,2.64-1.16.6-2.43.9-3.81.9-1.82,0-3.51-.61-5.07-1.82-1.55-1.22-2.9-2.95-4.03-5.21-1.14-2.26-2-4.91-2.58-7.95-.59-3.05-.88-6.34-.88-9.89,0-7.5,1.16-13.34,3.49-17.53,2.33-4.19,5.39-6.28,9.19-6.28,2.2,0,4.05.59,5.56,1.78s2.98,3.01,4.41,5.47v-17.71c0-2.46.31-4.32.93-5.58.62-1.26,1.51-1.89,2.67-1.89s2.04.58,2.67,1.74c.62,1.16.93,2.86.93,5.12v52.91c0,2.29-.33,4-1,5.14s-1.54,1.71-2.6,1.71-1.9-.59-2.58-1.78-1.02-2.88-1.02-5.08Zm-14.99-17.62c0,3.25.32,6.02.96,8.31.64,2.29,1.52,4.01,2.64,5.16,1.12,1.16,2.33,1.74,3.66,1.74s2.56-.55,3.67-1.65,1.99-2.78,2.65-5.05c.66-2.27.99-5.1.99-8.5,0-3.19-.33-5.94-.99-8.24-.66-2.3-1.55-4.06-2.68-5.27-1.13-1.22-2.36-1.82-3.7-1.82s-2.64.62-3.74,1.87c-1.1,1.25-1.95,3.03-2.55,5.36s-.91,5.03-.91,8.11Z"/><path class="cls-44" d="m1206.6,294.03h-14.91c.02,2.72.37,5.13,1.05,7.21.68,2.08,1.58,3.65,2.71,4.7s2.37,1.58,3.73,1.58c.91,0,1.74-.17,2.5-.51.75-.34,1.48-.86,2.19-1.58.71-.72,1.36-1.49,1.96-2.31.59-.82,1.37-1.93,2.32-3.34.39-.53.95-.79,1.68-.79.78,0,1.41.34,1.9,1.01.48.67.73,1.63.73,2.86,0,1.08-.27,2.35-.81,3.8-.54,1.45-1.35,2.84-2.44,4.17-1.09,1.33-2.46,2.44-4.1,3.32s-3.54,1.32-5.68,1.32c-4.89,0-8.7-2.2-11.42-6.59-2.72-4.39-4.08-10.36-4.08-17.89,0-3.54.33-6.83,1-9.87s1.65-5.63,2.93-7.8c1.28-2.17,2.87-3.83,4.75-4.99,1.88-1.16,3.96-1.74,6.25-1.74,2.98,0,5.53.99,7.66,2.97,2.13,1.98,3.73,4.53,4.79,7.67,1.06,3.14,1.59,6.33,1.59,9.58,0,3.02-.55,4.97-1.65,5.87-1.1.89-2.64,1.34-4.63,1.34Zm-14.91-6.81h13.82c-.19-4.1-.89-7.17-2.11-9.21-1.22-2.04-2.83-3.05-4.82-3.05s-3.46,1.03-4.68,3.1c-1.22,2.07-1.96,5.12-2.22,9.16Z"/><path class="cls-44" d="m1226.87,298.16v10.02c0,2.43-.36,4.26-1.09,5.47-.73,1.22-1.65,1.82-2.76,1.82s-2-.62-2.71-1.85-1.06-3.05-1.06-5.45v-33.4c0-5.39,1.24-8.09,3.71-8.09,1.27,0,2.18.63,2.74,1.89.56,1.26.87,3.12.92,5.58.91-2.46,1.85-4.32,2.81-5.58.96-1.26,2.24-1.89,3.84-1.89s3.15.63,4.66,1.89c1.51,1.26,2.26,2.93,2.26,5.01,0,1.47-.32,2.67-.96,3.63-.64.95-1.33,1.43-2.08,1.43-.28,0-.95-.27-2.02-.81-1.07-.54-2.01-.81-2.83-.81-1.12,0-2.03.46-2.74,1.38-.71.92-1.26,2.29-1.65,4.11-.39,1.82-.66,3.98-.81,6.48-.15,2.5-.22,5.56-.22,9.16Z"/><path class="cls-44" d="m438.18,381.42v1.45c1.43-2.78,2.92-4.83,4.47-6.13,1.54-1.3,3.29-1.96,5.25-1.96,2.35,0,4.5.95,6.48,2.86,1.97,1.9,3.53,4.69,4.68,8.35,1.15,3.66,1.72,8,1.72,13.01,0,3.69-.33,7.08-.99,10.17-.66,3.09-1.57,5.68-2.72,7.78-1.15,2.09-2.52,3.71-4.09,4.83-1.57,1.13-3.26,1.69-5.07,1.69-2.18,0-4.01-.69-5.49-2.07-1.48-1.38-2.89-3.4-4.23-6.06v18.02c0,5.27-1.22,7.91-3.66,7.91-1.43,0-2.38-.68-2.85-2.04s-.7-3.35-.7-5.95v-51.77c0-2.29.32-3.99.95-5.12.63-1.13,1.5-1.69,2.6-1.69s1.96.58,2.64,1.74c.68,1.16,1.02,2.82,1.02,4.99Zm14.94,17.45c0-3.16-.31-5.88-.92-8.15-.61-2.27-1.47-4.01-2.55-5.23-1.09-1.22-2.29-1.82-3.62-1.82-2.1,0-3.88,1.3-5.32,3.91-1.44,2.61-2.16,6.45-2.16,11.51,0,4.78.72,8.49,2.15,11.14,1.43,2.65,3.21,3.98,5.33,3.98,1.27,0,2.44-.58,3.52-1.74,1.08-1.16,1.94-2.89,2.6-5.21.65-2.31.98-5.11.98-8.39Z"/><path class="cls-44" d="m486.15,416.71c-1.84,2.26-3.62,3.95-5.35,5.08-1.72,1.13-3.65,1.69-5.79,1.69-1.95,0-3.67-.61-5.15-1.82s-2.62-2.86-3.42-4.94c-.8-2.08-1.2-4.34-1.2-6.77,0-3.28.66-6.08,1.98-8.39,1.32-2.31,3.14-3.87,5.44-4.66.48-.18,1.68-.57,3.6-1.19,1.92-.62,3.56-1.18,4.93-1.69,1.37-.51,2.85-1.14,4.45-1.87-.09-3.16-.5-5.49-1.21-6.97-.72-1.48-2.2-2.22-4.45-2.22-1.94,0-3.39.42-4.37,1.27-.98.85-1.81,2.12-2.51,3.82-.7,1.7-1.19,2.82-1.48,3.36-.29.54-.91.81-1.86.81-.86,0-1.6-.43-2.22-1.3-.62-.86-.94-1.97-.94-3.32,0-2.11.47-4.16,1.42-6.15.95-1.99,2.43-3.63,4.44-4.92,2.01-1.29,4.51-1.93,7.51-1.93,3.35,0,5.98.62,7.9,1.87,1.92,1.25,3.27,3.22,4.06,5.91.79,2.7,1.19,6.27,1.19,10.72,0,2.81,0,5.2-.01,7.16,0,1.96-.02,4.15-.04,6.55,0,2.26.24,4.61.71,7.05.47,2.45.71,4.02.71,4.72,0,1.23-.37,2.35-1.1,3.36s-1.57,1.52-2.5,1.52c-.78,0-1.55-.58-2.32-1.74-.76-1.16-1.57-2.83-2.43-5.03Zm-.5-17.36c-1.12.64-2.74,1.33-4.87,2.04-2.13.72-3.61,1.25-4.42,1.58-.82.34-1.6,1-2.35,1.98-.74.98-1.12,2.35-1.12,4.11s.44,3.36,1.31,4.64c.87,1.27,2.02,1.91,3.43,1.91,1.51,0,2.9-.52,4.17-1.56,1.27-1.04,2.21-2.38,2.81-4.02.69-1.82,1.03-4.8,1.03-8.96v-1.71Zm-6.87-45.83c1.58,0,2.94.89,4.08,2.68,1.13,1.79,1.7,3.93,1.7,6.42s-.57,4.63-1.7,6.42c-1.14,1.79-2.49,2.68-4.08,2.68-1.06,0-2.03-.41-2.9-1.23-.88-.82-1.57-1.92-2.09-3.3-.52-1.38-.78-2.9-.78-4.57,0-2.49.57-4.63,1.7-6.42,1.14-1.79,2.49-2.68,4.08-2.68Zm0,4.61c-.82,0-1.5.42-2.04,1.27-.54.85-.81,1.92-.81,3.21s.27,2.31.82,3.14c.55.83,1.22,1.25,2.02,1.25.52,0,1-.19,1.44-.57.44-.38.78-.91,1.03-1.58.25-.67.38-1.42.38-2.24,0-.62-.07-1.21-.22-1.78s-.34-1.05-.59-1.43c-.24-.38-.54-.69-.91-.92-.36-.23-.74-.35-1.13-.35Z"/><path class="cls-44" d="m523.98,412h14.57c1.45,0,2.56.47,3.32,1.41.76.94,1.15,2.21,1.15,3.82,0,1.44-.3,2.65-.91,3.65-.6,1-1.52,1.49-2.75,1.49h-20.55c-1.4,0-2.48-.61-3.27-1.82-.78-1.22-1.17-2.64-1.17-4.28,0-1.05.25-2.45.75-4.2.5-1.74,1.05-3.11,1.65-4.11,2.48-4.04,4.71-7.51,6.7-10.39,1.99-2.89,3.42-4.78,4.27-5.69,1.53-1.7,2.8-3.41,3.81-5.12,1.01-1.71,1.79-3.47,2.32-5.27.53-1.8.8-3.57.8-5.3,0-1.87-.28-3.55-.85-5.03-.57-1.48-1.34-2.63-2.32-3.45-.98-.82-2.04-1.23-3.2-1.23-2.44,0-4.36,1.69-5.75,5.05-.19.44-.5,1.64-.94,3.6-.44,1.96-.93,3.47-1.48,4.53-.55,1.05-1.35,1.58-2.42,1.58-.93,0-1.7-.48-2.32-1.45-.61-.97-.92-2.29-.92-3.96,0-2.02.29-4.13.87-6.33.58-2.2,1.44-4.19,2.58-5.98,1.14-1.79,2.6-3.23,4.35-4.33s3.82-1.65,6.18-1.65c2.85,0,5.28.7,7.29,2.11,1.3.94,2.45,2.23,3.43,3.87.99,1.64,1.75,3.54,2.3,5.69s.82,4.39.82,6.7c0,3.63-.57,6.94-1.72,9.91-1.14,2.97-2.31,5.3-3.5,6.99-1.19,1.69-3.19,4.33-5.99,7.93-2.8,3.6-4.72,6.4-5.77,8.39-.45.79-.9,1.74-1.37,2.86Z"/><path class="cls-44" d="m576.46,390.78c0,4.81-.19,8.94-.56,12.39-.37,3.46-1.06,6.59-2.07,9.4-1.27,3.46-2.9,6.12-4.91,8-2.01,1.87-4.24,2.81-6.7,2.81-2.83,0-5.36-1.26-7.61-3.78-2.24-2.52-3.93-6.01-5.07-10.46-.58-2.43-1-5.12-1.27-8.06-.27-2.94-.4-6.13-.4-9.56,0-4.42.15-8.41.45-11.95.3-3.54.76-6.59,1.4-9.14,1.1-4.22,2.69-7.43,4.79-9.65,2.09-2.21,4.59-3.32,7.5-3.32,1.92,0,3.66.49,5.22,1.47,1.56.98,2.94,2.42,4.12,4.31s2.18,4.23,3,7.01c1.41,4.83,2.12,11.67,2.12,20.52Zm-7.65-.88c0-5.36-.21-9.75-.61-13.16-.41-3.41-1.1-5.99-2.07-7.73-.97-1.74-2.31-2.61-4.02-2.61-2.46,0-4.16,1.95-5.12,5.84-.96,3.9-1.44,9.9-1.44,18.02,0,5.51.2,10.02.61,13.54.41,3.52,1.1,6.17,2.07,7.98s2.28,2.7,3.94,2.7,3.05-.94,4.02-2.81c.97-1.87,1.65-4.56,2.04-8.04.39-3.49.59-8.06.59-13.71Z"/><path class="cls-44" d="m621.94,407.79c0,3.31-.51,6.15-1.54,8.5-1.02,2.36-2.54,4.15-4.54,5.36-2,1.22-4.43,1.82-7.3,1.82s-5.08-.66-7.04-1.98-3.4-2.97-4.33-4.94c-.93-1.98-1.4-3.96-1.4-5.95,0-1.32.3-2.45.89-3.38.6-.94,1.35-1.41,2.26-1.41.8,0,1.41.31,1.84.92s.84,1.48,1.23,2.59c.78,2.14,1.72,3.74,2.81,4.79s2.57,1.58,4.45,1.58c1.53,0,2.78-.53,3.75-1.6.98-1.07,1.47-2.29,1.47-3.67,0-2.11-.51-3.65-1.52-4.61-1.01-.97-2.69-1.89-5.01-2.77-2.62-1.03-4.76-2.1-6.41-3.23-1.65-1.13-2.96-2.61-3.95-4.46-.99-1.85-1.48-4.12-1.48-6.81,0-2.4.46-4.67,1.37-6.81.91-2.14,2.26-3.85,4.03-5.12s3.92-1.91,6.44-1.91c1.97,0,3.75.32,5.32.97,1.57.64,2.88,1.51,3.94,2.59,1.05,1.08,1.85,2.29,2.4,3.6.55,1.32.82,2.61.82,3.87,0,1.38-.29,2.5-.88,3.38s-1.42,1.32-2.5,1.32c-.78,0-1.45-.35-2-1.05-.55-.7-1.18-1.76-1.88-3.16-.58-1.17-1.26-2.11-2.04-2.81s-1.84-1.05-3.18-1.05-2.52.46-3.43,1.38c-.91.92-1.37,2.07-1.37,3.45,0,1.26.33,2.29,1.01,3.1.67.81,1.57,1.47,2.71,2,1.13.53,2.7,1.17,4.69,1.93,2.36.91,4.29,1.99,5.79,3.25,1.5,1.26,2.63,2.75,3.41,4.46.77,1.71,1.16,3.67,1.16,5.87Z"/><path class="cls-44" d="m649.66,402.03h-14.91c.02,2.72.37,5.13,1.05,7.21.68,2.08,1.58,3.65,2.71,4.7,1.13,1.05,2.37,1.58,3.73,1.58.91,0,1.75-.17,2.5-.51.75-.34,1.48-.86,2.19-1.58.71-.72,1.36-1.49,1.95-2.31.6-.82,1.37-1.93,2.32-3.34.39-.53.95-.79,1.67-.79.78,0,1.41.34,1.9,1.01.48.67.73,1.63.73,2.86,0,1.08-.27,2.35-.81,3.8-.54,1.45-1.35,2.84-2.44,4.17-1.09,1.33-2.46,2.44-4.1,3.32-1.65.88-3.54,1.32-5.68,1.32-4.9,0-8.7-2.2-11.42-6.59-2.72-4.39-4.08-10.36-4.08-17.89,0-3.54.33-6.83,1-9.87s1.65-5.63,2.93-7.8c1.28-2.17,2.87-3.83,4.75-4.99,1.88-1.16,3.96-1.74,6.25-1.74,2.98,0,5.53.99,7.66,2.97,2.13,1.98,3.73,4.53,4.79,7.67,1.06,3.14,1.59,6.33,1.59,9.58,0,3.02-.55,4.97-1.65,5.87-1.1.89-2.64,1.34-4.63,1.34Zm-14.91-6.81h13.82c-.19-4.1-.89-7.17-2.11-9.21-1.22-2.04-2.82-3.05-4.82-3.05s-3.46,1.03-4.68,3.1-1.96,5.12-2.22,9.16Z"/><path class="cls-44" d="m681.35,417.98l-6.73-17.4-4.13,6.15v9.54c0,2.31-.39,4.09-1.16,5.34s-1.66,1.87-2.67,1.87c-1.17,0-2.09-.62-2.76-1.85-.67-1.23-1.01-3.05-1.01-5.45v-51.15c0-2.67.33-4.69.98-6.09.65-1.39,1.58-2.09,2.79-2.09s2.1.63,2.79,1.89c.69,1.26,1.03,3.12,1.03,5.58v29.09l8.57-14.15c1.06-1.76,1.87-2.96,2.43-3.6.56-.64,1.24-.97,2.04-.97.95,0,1.74.48,2.37,1.43.63.95.95,2.15.95,3.58,0,1.76-1.03,4.1-3.1,7.03l-4.05,5.84,7.82,19.34c.58,1.44.99,2.53,1.24,3.27.25.75.38,1.46.38,2.13,0,1.9-.33,3.41-.99,4.5-.66,1.1-1.53,1.65-2.61,1.65-.93,0-1.65-.4-2.15-1.19-.5-.79-1.18-2.23-2.04-4.31Z"/><path class="cls-44" d="m700.31,423.56c-1.23,0-2.29-.59-3.18-1.78-.89-1.19-1.34-2.85-1.34-4.99,0-1.85.44-3.4,1.31-4.66.87-1.26,1.91-1.89,3.1-1.89.89,0,1.7.38,2.43,1.14.73.76,1.29,1.88,1.7,3.36.41,1.48.61,3.3.61,5.47,0,2.9-.39,5.62-1.17,8.15-.78,2.53-1.74,4.54-2.86,6.02-1.13,1.48-2.15,2.22-3.06,2.22-.58,0-1.05-.3-1.41-.9-.36-.6-.54-1.3-.54-2.09,0-1.2.38-2.17,1.14-2.9,2.18-1.9,3.27-4.29,3.27-7.16Z"/><path class="cls-44" d="m752.68,399.96v15.95c0,2.52-.36,4.41-1.09,5.67s-1.68,1.89-2.88,1.89-2.09-.63-2.81-1.89-1.07-3.15-1.07-5.67v-19.12c0-3.02-.07-5.36-.2-7.03-.13-1.67-.48-3.04-1.06-4.11-.58-1.07-1.49-1.6-2.74-1.6-2.49,0-4.14,1.35-4.93,4.04-.79,2.7-1.19,6.56-1.19,11.6v16.22c0,2.49-.36,4.37-1.07,5.65-.72,1.27-1.66,1.91-2.83,1.91s-2.1-.64-2.83-1.91-1.1-3.16-1.1-5.65v-34.32c0-2.26.33-3.97.99-5.14.66-1.17,1.53-1.76,2.61-1.76s1.91.55,2.61,1.65c.7,1.1,1.05,2.61,1.05,4.55v1.14c1.32-2.49,2.74-4.32,4.24-5.49,1.51-1.17,3.18-1.76,5.02-1.76s3.56.6,4.94,1.8c1.38,1.2,2.51,3.02,3.41,5.45,1.28-2.46,2.66-4.28,4.13-5.47,1.47-1.19,3.1-1.78,4.89-1.78,2.08,0,3.88.64,5.39,1.93,1.51,1.29,2.63,3.14,3.38,5.54.65,2.17.98,5.58.98,10.24v23.42c0,2.52-.36,4.41-1.09,5.67-.73,1.26-1.68,1.89-2.88,1.89s-2.1-.64-2.83-1.91-1.1-3.16-1.1-5.65v-20.17c0-2.58-.07-4.64-.21-6.2-.14-1.55-.52-2.86-1.13-3.91s-1.54-1.58-2.79-1.58c-1,0-1.96.47-2.86,1.41-.9.94-1.61,2.2-2.11,3.78-.56,2.02-.84,5.6-.84,10.72Z"/><path class="cls-44" d="m799.19,402.03h-14.91c.02,2.72.37,5.13,1.05,7.21.68,2.08,1.58,3.65,2.71,4.7s2.37,1.58,3.73,1.58c.91,0,1.74-.17,2.5-.51.75-.34,1.48-.86,2.19-1.58.71-.72,1.36-1.49,1.96-2.31.59-.82,1.37-1.93,2.32-3.34.39-.53.95-.79,1.68-.79.78,0,1.41.34,1.9,1.01.48.67.73,1.63.73,2.86,0,1.08-.27,2.35-.81,3.8-.54,1.45-1.35,2.84-2.44,4.17-1.09,1.33-2.46,2.44-4.1,3.32s-3.54,1.32-5.68,1.32c-4.89,0-8.7-2.2-11.42-6.59-2.72-4.39-4.08-10.36-4.08-17.89,0-3.54.33-6.83,1-9.87s1.65-5.63,2.93-7.8c1.28-2.17,2.87-3.83,4.75-4.99,1.88-1.16,3.96-1.74,6.25-1.74,2.98,0,5.53.99,7.66,2.97,2.13,1.98,3.73,4.53,4.79,7.67,1.06,3.14,1.59,6.33,1.59,9.58,0,3.02-.55,4.97-1.65,5.87-1.1.89-2.64,1.34-4.63,1.34Zm-14.91-6.81h13.82c-.19-4.1-.89-7.17-2.11-9.21-1.22-2.04-2.83-3.05-4.82-3.05s-3.46,1.03-4.68,3.1c-1.22,2.07-1.96,5.12-2.22,9.16Z"/><path class="cls-44" d="m818.82,381.33v1.45c1.34-2.78,2.81-4.83,4.4-6.13,1.59-1.3,3.42-1.96,5.49-1.96s3.81.69,5.39,2.07c1.58,1.38,2.76,3.33,3.55,5.84.5,1.47.83,3.05.98,4.75.15,1.7.22,3.87.22,6.5v22.32c0,2.4-.35,4.22-1.05,5.45-.7,1.23-1.61,1.85-2.72,1.85s-2.06-.63-2.76-1.89c-.71-1.26-1.06-3.06-1.06-5.41v-20c0-3.96-.35-6.98-1.05-9.07-.7-2.09-2.09-3.14-4.17-3.14-1.36,0-2.6.64-3.71,1.91-1.12,1.27-1.94,3.03-2.46,5.25-.37,1.79-.56,5.13-.56,10.02v15.03c0,2.43-.36,4.26-1.08,5.47s-1.64,1.82-2.78,1.82-2-.63-2.71-1.89c-.71-1.26-1.06-3.06-1.06-5.41v-34.67c0-2.29.32-3.99.95-5.12.63-1.13,1.5-1.69,2.6-1.69.67,0,1.27.25,1.81.75.54.5.97,1.25,1.3,2.24.33,1,.49,2.21.49,3.65Z"/><path class="cls-44" d="m867.76,381.42v1.45c1.43-2.78,2.92-4.83,4.47-6.13,1.54-1.3,3.29-1.96,5.25-1.96,2.34,0,4.5.95,6.48,2.86,1.97,1.9,3.53,4.69,4.68,8.35,1.14,3.66,1.72,8,1.72,13.01,0,3.69-.33,7.08-.99,10.17-.66,3.09-1.57,5.68-2.72,7.78-1.15,2.09-2.52,3.71-4.09,4.83-1.57,1.13-3.26,1.69-5.07,1.69-2.18,0-4.01-.69-5.49-2.07s-2.89-3.4-4.23-6.06v18.02c0,5.27-1.22,7.91-3.66,7.91-1.43,0-2.38-.68-2.85-2.04-.47-1.36-.7-3.35-.7-5.95v-51.77c0-2.29.32-3.99.95-5.12.63-1.13,1.5-1.69,2.6-1.69s1.96.58,2.64,1.74c.68,1.16,1.02,2.82,1.02,4.99Zm14.94,17.45c0-3.16-.31-5.88-.92-8.15-.61-2.27-1.47-4.01-2.55-5.23-1.09-1.22-2.29-1.82-3.62-1.82-2.1,0-3.88,1.3-5.32,3.91-1.44,2.61-2.16,6.45-2.16,11.51,0,4.78.72,8.49,2.15,11.14,1.43,2.65,3.21,3.98,5.33,3.98,1.27,0,2.44-.58,3.52-1.74,1.08-1.16,1.95-2.89,2.6-5.21.65-2.31.98-5.11.98-8.39Z"/><path class="cls-44" d="m915.72,416.71c-1.84,2.26-3.62,3.95-5.35,5.08s-3.65,1.69-5.79,1.69c-1.95,0-3.67-.61-5.15-1.82-1.48-1.22-2.62-2.86-3.42-4.94-.8-2.08-1.2-4.34-1.2-6.77,0-3.28.66-6.08,1.98-8.39,1.32-2.31,3.14-3.87,5.44-4.66.48-.18,1.68-.57,3.6-1.19s3.56-1.18,4.93-1.69c1.37-.51,2.85-1.14,4.45-1.87-.09-3.16-.5-5.49-1.21-6.97-.72-1.48-2.2-2.22-4.45-2.22-1.94,0-3.39.42-4.37,1.27-.98.85-1.82,2.12-2.51,3.82-.7,1.7-1.19,2.82-1.48,3.36-.29.54-.91.81-1.86.81-.86,0-1.6-.43-2.22-1.3-.62-.86-.94-1.97-.94-3.32,0-2.11.47-4.16,1.42-6.15.95-1.99,2.43-3.63,4.44-4.92,2.01-1.29,4.51-1.93,7.51-1.93,3.35,0,5.98.62,7.9,1.87,1.92,1.25,3.27,3.22,4.06,5.91.79,2.7,1.19,6.27,1.19,10.72,0,2.81,0,5.2-.01,7.16,0,1.96-.02,4.15-.04,6.55,0,2.26.24,4.61.71,7.05.47,2.45.71,4.02.71,4.72,0,1.23-.37,2.35-1.1,3.36s-1.57,1.52-2.5,1.52c-.78,0-1.55-.58-2.32-1.74-.76-1.16-1.57-2.83-2.43-5.03Zm-.5-17.36c-1.12.64-2.74,1.33-4.87,2.04-2.13.72-3.61,1.25-4.42,1.58-.82.34-1.6,1-2.34,1.98-.75.98-1.12,2.35-1.12,4.11s.44,3.36,1.31,4.64,2.02,1.91,3.43,1.91c1.51,0,2.9-.52,4.17-1.56,1.27-1.04,2.21-2.38,2.81-4.02.69-1.82,1.03-4.8,1.03-8.96v-1.71Z"/><path class="cls-44" d="m954.97,407.79c0,3.31-.51,6.15-1.54,8.5-1.02,2.36-2.54,4.15-4.54,5.36-2,1.22-4.43,1.82-7.3,1.82s-5.08-.66-7.04-1.98-3.4-2.97-4.33-4.94-1.4-3.96-1.4-5.95c0-1.32.3-2.45.89-3.38.6-.94,1.35-1.41,2.26-1.41.8,0,1.41.31,1.84.92.43.62.84,1.48,1.23,2.59.78,2.14,1.72,3.74,2.81,4.79s2.57,1.58,4.45,1.58c1.53,0,2.78-.53,3.75-1.6.98-1.07,1.47-2.29,1.47-3.67,0-2.11-.51-3.65-1.52-4.61s-2.68-1.89-5.01-2.77c-2.62-1.03-4.76-2.1-6.41-3.23-1.65-1.13-2.96-2.61-3.95-4.46-.99-1.85-1.48-4.12-1.48-6.81,0-2.4.46-4.67,1.37-6.81.91-2.14,2.26-3.85,4.03-5.12s3.92-1.91,6.44-1.91c1.97,0,3.75.32,5.32.97,1.57.64,2.88,1.51,3.94,2.59,1.05,1.08,1.85,2.29,2.4,3.6s.82,2.61.82,3.87c0,1.38-.29,2.5-.88,3.38s-1.42,1.32-2.5,1.32c-.78,0-1.45-.35-2-1.05s-1.18-1.76-1.88-3.16c-.58-1.17-1.26-2.11-2.04-2.81-.78-.7-1.84-1.05-3.18-1.05s-2.52.46-3.43,1.38-1.37,2.07-1.37,3.45c0,1.26.33,2.29,1,3.1.67.81,1.57,1.47,2.71,2,1.13.53,2.7,1.17,4.69,1.93,2.36.91,4.29,1.99,5.79,3.25,1.5,1.26,2.63,2.75,3.41,4.46s1.16,3.67,1.16,5.87Z"/><path class="cls-44" d="m982.75,381.42v1.45c1.43-2.78,2.92-4.83,4.47-6.13,1.54-1.3,3.29-1.96,5.25-1.96,2.34,0,4.5.95,6.48,2.86,1.97,1.9,3.53,4.69,4.68,8.35,1.14,3.66,1.72,8,1.72,13.01,0,3.69-.33,7.08-.99,10.17-.66,3.09-1.57,5.68-2.72,7.78-1.15,2.09-2.52,3.71-4.09,4.83-1.57,1.13-3.26,1.69-5.07,1.69-2.18,0-4.01-.69-5.49-2.07s-2.89-3.4-4.23-6.06v18.02c0,5.27-1.22,7.91-3.66,7.91-1.43,0-2.38-.68-2.85-2.04-.47-1.36-.7-3.35-.7-5.95v-51.77c0-2.29.32-3.99.95-5.12.63-1.13,1.5-1.69,2.6-1.69s1.96.58,2.64,1.74c.68,1.16,1.02,2.82,1.02,4.99Zm14.94,17.45c0-3.16-.31-5.88-.92-8.15-.61-2.27-1.47-4.01-2.55-5.23-1.09-1.22-2.29-1.82-3.62-1.82-2.1,0-3.88,1.3-5.32,3.91-1.44,2.61-2.16,6.45-2.16,11.51,0,4.78.72,8.49,2.15,11.14,1.43,2.65,3.21,3.98,5.33,3.98,1.27,0,2.44-.58,3.52-1.74,1.08-1.16,1.95-2.89,2.6-5.21.65-2.31.98-5.11.98-8.39Z"/><path class="cls-44" d="m1030.71,416.71c-1.84,2.26-3.62,3.95-5.35,5.08s-3.65,1.69-5.79,1.69c-1.95,0-3.67-.61-5.15-1.82-1.48-1.22-2.62-2.86-3.42-4.94-.8-2.08-1.2-4.34-1.2-6.77,0-3.28.66-6.08,1.98-8.39,1.32-2.31,3.14-3.87,5.44-4.66.48-.18,1.68-.57,3.6-1.19s3.56-1.18,4.93-1.69c1.37-.51,2.85-1.14,4.45-1.87-.09-3.16-.5-5.49-1.21-6.97-.72-1.48-2.2-2.22-4.45-2.22-1.94,0-3.39.42-4.37,1.27-.98.85-1.82,2.12-2.51,3.82-.7,1.7-1.19,2.82-1.48,3.36-.29.54-.91.81-1.86.81-.86,0-1.6-.43-2.22-1.3-.62-.86-.94-1.97-.94-3.32,0-2.11.47-4.16,1.42-6.15.95-1.99,2.43-3.63,4.44-4.92,2.01-1.29,4.51-1.93,7.51-1.93,3.35,0,5.98.62,7.9,1.87,1.92,1.25,3.27,3.22,4.06,5.91.79,2.7,1.19,6.27,1.19,10.72,0,2.81,0,5.2-.01,7.16,0,1.96-.02,4.15-.04,6.55,0,2.26.24,4.61.71,7.05.47,2.45.71,4.02.71,4.72,0,1.23-.37,2.35-1.1,3.36s-1.57,1.52-2.5,1.52c-.78,0-1.55-.58-2.32-1.74-.76-1.16-1.57-2.83-2.43-5.03Zm-.5-17.36c-1.12.64-2.74,1.33-4.87,2.04-2.13.72-3.61,1.25-4.42,1.58-.82.34-1.6,1-2.34,1.98-.75.98-1.12,2.35-1.12,4.11s.44,3.36,1.31,4.64,2.02,1.91,3.43,1.91c1.51,0,2.9-.52,4.17-1.56,1.27-1.04,2.21-2.38,2.81-4.02.69-1.82,1.03-4.8,1.03-8.96v-1.71Zm-6.87-45.83c1.58,0,2.94.89,4.08,2.68,1.14,1.79,1.7,3.93,1.7,6.42s-.57,4.63-1.7,6.42c-1.13,1.79-2.49,2.68-4.08,2.68-1.06,0-2.03-.41-2.9-1.23-.88-.82-1.57-1.92-2.09-3.3-.52-1.38-.78-2.9-.78-4.57,0-2.49.57-4.63,1.7-6.42,1.13-1.79,2.49-2.68,4.08-2.68Zm0,4.61c-.82,0-1.5.42-2.04,1.27-.54.85-.81,1.92-.81,3.21s.27,2.31.82,3.14c.55.83,1.22,1.25,2.02,1.25.52,0,1-.19,1.44-.57.44-.38.78-.91,1.03-1.58.25-.67.38-1.42.38-2.24,0-.62-.07-1.21-.22-1.78-.15-.57-.34-1.05-.59-1.43-.24-.38-.54-.69-.91-.92-.36-.23-.74-.35-1.13-.35Z"/><path class="cls-44" d="m1078.99,416.71c-1.84,2.26-3.62,3.95-5.35,5.08s-3.65,1.69-5.79,1.69c-1.95,0-3.67-.61-5.15-1.82-1.48-1.22-2.62-2.86-3.42-4.94-.8-2.08-1.2-4.34-1.2-6.77,0-3.28.66-6.08,1.98-8.39,1.32-2.31,3.14-3.87,5.44-4.66.48-.18,1.68-.57,3.6-1.19s3.56-1.18,4.93-1.69c1.37-.51,2.85-1.14,4.45-1.87-.09-3.16-.5-5.49-1.21-6.97-.72-1.48-2.2-2.22-4.45-2.22-1.94,0-3.39.42-4.37,1.27-.98.85-1.82,2.12-2.51,3.82-.7,1.7-1.19,2.82-1.48,3.36-.29.54-.91.81-1.86.81-.86,0-1.6-.43-2.22-1.3-.62-.86-.94-1.97-.94-3.32,0-2.11.47-4.16,1.42-6.15.95-1.99,2.43-3.63,4.44-4.92,2.01-1.29,4.51-1.93,7.51-1.93,3.35,0,5.98.62,7.9,1.87,1.92,1.25,3.27,3.22,4.06,5.91.79,2.7,1.19,6.27,1.19,10.72,0,2.81,0,5.2-.01,7.16,0,1.96-.02,4.15-.04,6.55,0,2.26.24,4.61.71,7.05.47,2.45.71,4.02.71,4.72,0,1.23-.37,2.35-1.1,3.36s-1.57,1.52-2.5,1.52c-.78,0-1.55-.58-2.32-1.74-.76-1.16-1.57-2.83-2.43-5.03Zm-.5-17.36c-1.12.64-2.74,1.33-4.87,2.04-2.13.72-3.61,1.25-4.42,1.58-.82.34-1.6,1-2.34,1.98-.75.98-1.12,2.35-1.12,4.11s.44,3.36,1.31,4.64,2.02,1.91,3.43,1.91c1.51,0,2.9-.52,4.17-1.56,1.27-1.04,2.21-2.38,2.81-4.02.69-1.82,1.03-4.8,1.03-8.96v-1.71Z"/><path class="cls-44" d="m1099.98,363.71v18.33c1.43-2.34,2.89-4.14,4.38-5.38,1.49-1.25,3.33-1.87,5.53-1.87,2.53,0,4.75.94,6.66,2.83,1.91,1.89,3.39,4.63,4.44,8.22,1.05,3.59,1.58,7.84,1.58,12.77,0,3.63-.29,6.97-.88,10-.59,3.03-1.44,5.66-2.55,7.89-1.12,2.23-2.47,3.95-4.06,5.16-1.59,1.22-3.35,1.82-5.26,1.82-1.17,0-2.28-.22-3.31-.66-1.03-.44-1.91-1.02-2.64-1.74-.73-.72-1.34-1.46-1.86-2.22-.51-.76-1.19-1.9-2.02-3.43v1.19c0,2.26-.34,3.96-1.03,5.12s-1.56,1.74-2.62,1.74-1.94-.58-2.58-1.74c-.64-1.16-.96-2.86-.96-5.12v-52.38c0-2.43.31-4.27.94-5.52.62-1.25,1.49-1.87,2.61-1.87,1.17,0,2.08.59,2.71,1.78s.95,2.88.95,5.08Zm.36,35.64c0,4.78.69,8.44,2.08,11.01,1.39,2.56,3.21,3.85,5.46,3.85,1.92,0,3.57-1.31,4.96-3.93,1.39-2.62,2.08-6.38,2.08-11.27,0-3.16-.29-5.89-.87-8.17s-1.4-4.05-2.46-5.3c-1.06-1.25-2.3-1.87-3.71-1.87s-2.75.62-3.88,1.87c-1.14,1.25-2.03,3.05-2.68,5.41-.65,2.36-.98,5.16-.98,8.42Z"/><path class="cls-44" d="m1149.95,402.03h-14.91c.02,2.72.37,5.13,1.05,7.21.68,2.08,1.58,3.65,2.71,4.7s2.37,1.58,3.73,1.58c.91,0,1.74-.17,2.5-.51.75-.34,1.48-.86,2.19-1.58.71-.72,1.36-1.49,1.96-2.31.59-.82,1.37-1.93,2.32-3.34.39-.53.95-.79,1.68-.79.78,0,1.41.34,1.9,1.01.48.67.73,1.63.73,2.86,0,1.08-.27,2.35-.81,3.8-.54,1.45-1.35,2.84-2.44,4.17-1.09,1.33-2.46,2.44-4.1,3.32s-3.54,1.32-5.68,1.32c-4.89,0-8.7-2.2-11.42-6.59-2.72-4.39-4.08-10.36-4.08-17.89,0-3.54.33-6.83,1-9.87s1.65-5.63,2.93-7.8c1.28-2.17,2.87-3.83,4.75-4.99,1.88-1.16,3.96-1.74,6.25-1.74,2.98,0,5.53.99,7.66,2.97,2.13,1.98,3.73,4.53,4.79,7.67,1.06,3.14,1.59,6.33,1.59,9.58,0,3.02-.55,4.97-1.65,5.87-1.1.89-2.64,1.34-4.63,1.34Zm-14.91-6.81h13.82c-.19-4.1-.89-7.17-2.11-9.21-1.22-2.04-2.83-3.05-4.82-3.05s-3.46,1.03-4.68,3.1c-1.22,2.07-1.96,5.12-2.22,9.16Z"/><path class="cls-44" d="m1170.22,406.16v10.02c0,2.43-.36,4.26-1.09,5.47-.73,1.22-1.65,1.82-2.76,1.82s-2-.62-2.71-1.85-1.06-3.05-1.06-5.45v-33.4c0-5.39,1.24-8.09,3.71-8.09,1.27,0,2.18.63,2.74,1.89.56,1.26.87,3.12.92,5.58.91-2.46,1.85-4.32,2.81-5.58.96-1.26,2.24-1.89,3.84-1.89s3.15.63,4.66,1.89c1.51,1.26,2.26,2.93,2.26,5.01,0,1.47-.32,2.67-.96,3.63-.64.95-1.33,1.43-2.08,1.43-.28,0-.95-.27-2.02-.81-1.07-.54-2.01-.81-2.83-.81-1.12,0-2.03.46-2.74,1.38-.71.92-1.26,2.29-1.65,4.11-.39,1.82-.66,3.98-.81,6.48-.15,2.5-.22,5.56-.22,9.16Z"/><path class="cls-44" d="m1194.62,381.33v1.45c1.34-2.78,2.81-4.83,4.4-6.13,1.59-1.3,3.42-1.96,5.49-1.96s3.81.69,5.39,2.07c1.58,1.38,2.76,3.33,3.55,5.84.5,1.47.83,3.05.98,4.75.15,1.7.22,3.87.22,6.5v22.32c0,2.4-.35,4.22-1.05,5.45-.7,1.23-1.61,1.85-2.72,1.85s-2.06-.63-2.76-1.89c-.71-1.26-1.06-3.06-1.06-5.41v-20c0-3.96-.35-6.98-1.05-9.07-.7-2.09-2.09-3.14-4.17-3.14-1.36,0-2.6.64-3.71,1.91-1.12,1.27-1.94,3.03-2.46,5.25-.37,1.79-.56,5.13-.56,10.02v15.03c0,2.43-.36,4.26-1.08,5.47s-1.64,1.82-2.78,1.82-2-.63-2.71-1.89c-.71-1.26-1.06-3.06-1.06-5.41v-34.67c0-2.29.32-3.99.95-5.12.63-1.13,1.5-1.69,2.6-1.69.67,0,1.27.25,1.81.75.54.5.97,1.25,1.3,2.24.33,1,.49,2.21.49,3.65Z"/><path class="cls-44" d="m1243.51,402.03h-14.91c.02,2.72.37,5.13,1.05,7.21.68,2.08,1.58,3.65,2.71,4.7s2.37,1.58,3.73,1.58c.91,0,1.74-.17,2.5-.51.75-.34,1.48-.86,2.19-1.58.71-.72,1.36-1.49,1.96-2.31.59-.82,1.37-1.93,2.32-3.34.39-.53.95-.79,1.68-.79.78,0,1.41.34,1.9,1.01.48.67.73,1.63.73,2.86,0,1.08-.27,2.35-.81,3.8-.54,1.45-1.35,2.84-2.44,4.17-1.09,1.33-2.46,2.44-4.1,3.32s-3.54,1.32-5.68,1.32c-4.89,0-8.7-2.2-11.42-6.59-2.72-4.39-4.08-10.36-4.08-17.89,0-3.54.33-6.83,1-9.87s1.65-5.63,2.93-7.8c1.28-2.17,2.87-3.83,4.75-4.99,1.88-1.16,3.96-1.74,6.25-1.74,2.98,0,5.53.99,7.66,2.97,2.13,1.98,3.73,4.53,4.79,7.67,1.06,3.14,1.59,6.33,1.59,9.58,0,3.02-.55,4.97-1.65,5.87-1.1.89-2.64,1.34-4.63,1.34Zm-14.91-6.81h13.82c-.19-4.1-.89-7.17-2.11-9.21-1.22-2.04-2.83-3.05-4.82-3.05s-3.46,1.03-4.68,3.1c-1.22,2.07-1.96,5.12-2.22,9.16Z"/><path class="cls-44" d="m1258.72,394.47l-.89-21.05c-.17-4.1-.25-7.05-.25-8.83,0-2.43.4-4.33,1.21-5.69s1.88-2.04,3.2-2.04c1.6,0,2.67.87,3.21,2.61.54,1.74.81,4.26.81,7.54,0,1.93-.07,3.9-.2,5.89l-1.2,21.67c-.13,2.58-.41,4.56-.84,5.93-.43,1.38-1.13,2.07-2.12,2.07s-1.7-.67-2.09-2c-.39-1.33-.67-3.36-.84-6.09Zm3.1,28.92c-1.14,0-2.13-.58-2.97-1.74-.85-1.16-1.27-2.78-1.27-4.86,0-1.82.4-3.36,1.21-4.64s1.8-1.91,2.97-1.91,2.17.64,3,1.91,1.24,2.82,1.24,4.64c0,2.05-.42,3.66-1.26,4.83-.84,1.17-1.81,1.76-2.93,1.76Z"/></g></svg>