<?xml version="1.0" encoding="UTF-8"?><svg id="Layer_1" xmlns="http://www.w3.org/2000/svg" width="138.5" height="168" xmlns:xlink="http://www.w3.org/1999/xlink" viewBox="0 0 138.5 168"><defs><style>.cls-1{filter:url(#drop-shadow-5);}.cls-2{fill:#925f36;}.cls-2,.cls-3{stroke:#1d1d1b;stroke-miterlimit:10;}.cls-3{fill:#1d1d1b;}.cls-4{fill:#683b11;stroke-width:0px;}</style><filter id="drop-shadow-5" filterUnits="userSpaceOnUse"><feOffset dx="7" dy="7"/><feGaussianBlur result="blur" stdDeviation="5"/><feFlood flood-color="#4c3818" flood-opacity=".5"/><feComposite in2="blur" operator="in"/><feComposite in="SourceGraphic"/></filter></defs><g class="cls-1"><path class="cls-2" d="m64.8,5.87C31.57,4.52,3.72,43.17,3.67,78.13c-.05,38.33,33.33,77.16,66.09,73.91,34-3.38,56.93-51.05,49.56-88.69-4.94-25.28-25.56-56.31-54.52-57.48Z"/><ellipse class="cls-3" cx="79.2" cy="29.02" rx="3.99" ry="12.28" transform="translate(6.21 71.3) rotate(-50.21)"/><ellipse class="cls-3" cx="61.16" cy="39.67" rx="12.24" ry="4" transform="translate(11.41 92.95) rotate(-79.93)"/><ellipse class="cls-3" cx="45.31" cy="29.02" rx="12.3" ry="3.98" transform="translate(-8.43 26.37) rotate(-29.82)"/><path class="cls-4" d="m20.14,40.93c-3.74,6.71-16.32,31.19-7.74,58.11,8,25.09,30.93,41.44,33.83,39.18,2.33-1.81-8.68-15.32-17.04-39.79-7.76-22.74-9.2-43.13-9.05-57.5Z"/></g></svg>