<?xml version="1.0" encoding="UTF-8"?><svg id="Layer_1" xmlns="http://www.w3.org/2000/svg" width="118.03" height="147.4" xmlns:xlink="http://www.w3.org/1999/xlink" viewBox="0 0 118.03 147.4"><defs><style>.cls-1{filter:url(#drop-shadow-3);}.cls-2{fill:#925f36;}.cls-2,.cls-3{stroke:#1d1d1b;stroke-miterlimit:10;}.cls-3{fill:#1d1d1b;}.cls-4{fill:#683b11;stroke-width:0px;}</style><filter id="drop-shadow-3" filterUnits="userSpaceOnUse"><feOffset dx="7" dy="7"/><feGaussianBlur result="blur" stdDeviation="5"/><feFlood flood-color="#4c3818" flood-opacity=".5"/><feComposite in2="blur" operator="in"/><feComposite in="SourceGraphic"/></filter></defs><g class="cls-1"><path class="cls-2" d="m61.63.53C28.4-.81.54,37.84.5,72.8c-.05,38.33,33.33,77.16,66.09,73.91,34-3.38,56.93-51.05,49.56-88.69C111.21,32.74,90.59,1.7,61.63.53Z"/><ellipse class="cls-3" cx="76.03" cy="23.69" rx="3.99" ry="12.28" transform="translate(9.17 66.94) rotate(-50.21)"/><ellipse class="cls-3" cx="57.99" cy="34.33" rx="12.24" ry="4" transform="translate(14.05 85.43) rotate(-79.93)"/><ellipse class="cls-3" cx="42.14" cy="23.69" rx="12.3" ry="3.98" transform="translate(-6.2 24.09) rotate(-29.82)"/><path class="cls-4" d="m16.97,35.59c-3.74,6.71-16.32,31.19-7.74,58.11,8,25.09,30.93,41.44,33.83,39.18,2.33-1.81-8.68-15.32-17.04-39.79-7.76-22.74-9.2-43.13-9.05-57.5Z"/></g></svg>