<?xml version="1.0" encoding="UTF-8"?><svg id="Layer_1" xmlns="http://www.w3.org/2000/svg" width="643" height="533" xmlns:xlink="http://www.w3.org/1999/xlink" viewBox="0 0 643 533"><defs><style>.cls-1{filter:url(#drop-shadow-8);}.cls-2{fill:#fbb03b;filter:url(#drop-shadow-7);}.cls-2,.cls-3{stroke-width:0px;}.cls-3{fill:#ff1d25;}</style><filter id="drop-shadow-7" filterUnits="userSpaceOnUse"><feOffset dx="7" dy="7"/><feGaussianBlur result="blur" stdDeviation="5"/><feFlood flood-color="#4c3818" flood-opacity=".5"/><feComposite in2="blur" operator="in"/><feComposite in="SourceGraphic"/></filter><filter id="drop-shadow-8" filterUnits="userSpaceOnUse"><feOffset dx="7" dy="7"/><feGaussianBlur result="blur-2" stdDeviation="5"/><feFlood flood-color="#70251b" flood-opacity=".5"/><feComposite in2="blur-2" operator="in"/><feComposite in="SourceGraphic"/></filter></defs><path class="cls-2" d="m233.63,54.87C306.03,22.77,342.92,6.74,376.61,8.08c121.43,4.81,195.66,127.31,203.33,140.39,15.16,25.86,53.34,90.99,37.14,175.26-1.26,6.54-21.75,104.66-111.41,156.91-103.35,60.22-221.03,14.27-299.88-16.52-54.65-21.34-111.21-44.31-152.26-103.69-11.7-16.93-62.78-90.81-38.99-162.42,17.92-53.93,84.98-83.67,219.11-143.15Z"/><g class="cls-1"><path class="cls-3" d="m102.79,104.34c-9.57,5.15,5.16-10.81,54.94,1.33,11.59,2.83,3.21,29.07-7.55,34.58-13.36,6.84-29.19-12.6-40.52-5.99-10.9,6.36-7.43,30.86-2.75,44.56,4.59,13.42,15.83,32.53,26.1,31.26,9.75-1.21,9.02-19.6,22.66-23.94,9.55-3.04,22.2,2.06,27.47,9.98,10.19,15.31-4.45,45.37-26.1,57.86-25.45,14.68-59.42,4.4-78.97-11.97-32.97-27.61-28.54-76.91-10.99-109.73,9.33-17.44,41.89-31.26,35.71-27.93Z"/><path class="cls-3" d="m363.74,104.34c-9.57,5.15,5.16-10.81,54.94,1.33,11.59,2.83,3.21,29.07-7.55,34.58-13.36,6.84-29.19-12.6-40.52-5.99-10.9,6.36-7.43,30.86-2.75,44.56,4.59,13.42,15.83,32.53,26.1,31.26,9.75-1.21,9.02-19.6,22.66-23.94,9.55-3.04,22.2,2.06,27.47,9.98,10.19,15.31-4.45,45.37-26.1,57.86-25.45,14.68-59.42,4.4-78.97-11.97-32.97-27.61-28.54-76.91-10.99-109.73,9.33-17.44,41.89-31.26,35.71-27.93Z"/><path class="cls-3" d="m291.64,125.63c-4.7-5.11-19.75-21.46-42.58-22.61-30.63-1.54-57.16,25.21-65.93,50.54-14.34,41.41,12.58,96.92,54.25,104.41,31.33,5.63,56.27-18.54,57.68-19.95,30.47-30.44,22.77-83.92-3.43-112.39Zm-18.54,61.18c-2.58,10.86-12.89,24.18-25.41,22.61-12.19-1.53-19.41-16.29-18.54-27.93,1.02-13.63,12.98-21.08,14.42-21.95,3.21-1.93,9.78-5.88,16.48-3.99,10.56,2.97,15.98,18.91,13.05,31.26Z"/><path class="cls-3" d="m549.84,125.63c-4.7-5.11-19.75-21.46-42.58-22.61-30.63-1.54-57.16,25.21-65.93,50.54-14.34,41.41,12.58,96.92,54.25,104.41,31.33,5.63,56.27-18.54,57.68-19.95,30.47-30.44,22.77-83.92-3.43-112.39Zm-18.54,61.18c-2.58,10.86-12.89,24.18-25.41,22.61-12.19-1.53-19.41-16.29-18.54-27.93,1.02-13.63,12.98-21.08,14.42-21.95,3.21-1.93,9.78-5.88,16.48-3.99,10.56,2.97,15.98,18.91,13.05,31.26Z"/><path class="cls-3" d="m448.89,281.9c-4.7-5.11-19.75-21.46-42.58-22.61-30.63-1.54-57.16,25.21-65.93,50.54-14.34,41.41,12.58,96.92,54.25,104.41,31.33,5.63,56.27-18.54,57.68-19.95,30.47-30.44,22.77-83.92-3.43-112.39Zm-18.54,61.18c-2.58,10.86-12.89,24.18-25.41,22.61-12.19-1.53-19.41-16.29-18.54-27.93,1.02-13.63,12.98-21.08,14.42-21.95,3.21-1.93,9.78-5.88,16.48-3.99,10.56,2.97,15.98,18.91,13.05,31.26Z"/><path class="cls-3" d="m139.88,270.6c-7.91-4.62-24.46-14.26-39.97-7.98-9.62,3.9-17.3,13.31-29.98,55.2-16.46,54.39-26.64,88.02-13.74,98.42,9.6,7.74,30.81,1.65,39.34-11.31,10.39-15.77-4.12-32.38,5.62-48.55,10.38-17.23,41.37-22.45,53.71-9.98,7.3,7.39,7.4,20.31,7.49,33.25.16,21.38-6.22,31.2-1.87,35.25,5.22,4.86,23.02-1.27,31.85-13.97,21.2-30.49-6.25-103.39-52.46-130.34Zm-5.62,45.22c-6.08,11.52-26.88,11.71-32.48,2-3.92-6.81-.68-19.03,7.49-24.61,5.66-3.86,14.78-5.29,21.23.67,6.26,5.77,7.03,15.73,3.75,21.95Z"/><path class="cls-3" d="m208.48,412.66c-29.75-22.15-21.59-142.68,0-149.08,15.34-4.55,30.69,7.27,44.75,27.27,9.4,13.37,11.93-31.88,26.85-39.09,12.27-5.93,25.22,5.59,28.13,8.18,33.61,29.9,36.7,130.45,14.7,149.08-8.6,7.28-22.87,3.6-28.77-7.27-10.8-19.91,7.64-61.83,1.92-66.36-3.36-2.66-8.45,12.74-19.82,15.45-15.99,3.81-27.89-21.4-33.25-16.36-6.72,6.32,12.76,45.27,2.56,67.27-6.75,14.54-25.47,19.55-37.08,10.91Z"/><path class="cls-3" d="m503.15,406.26c-37.22-25.53-41.09-99.72-9.61-133.67,2.27-2.44,13.69-14.77,21.98-11.97,12.02,4.06,11.74,38.03,11.67,45.89-.11,13.94-2.31,23.55-.69,23.94,1.8.43,5.49-11.25,13.73-28.6,11.25-23.67,17.06-35.53,26.1-36.58,8.34-.97,19.67,6.92,21.98,16.63,5.85,24.62-48.21,52.84-42.58,62.51,2.77,4.75,15.4-2.71,30.9,2.66,23.52,8.15,38.11,40.47,30.22,49.88-6.05,7.21-25.38,1.07-32.96-1.33-30.65-9.72-49.08-32.86-50.82-31.26-1.21,1.12,9.34,11.01,15.11,28.6,2.41,7.35,5.58,17.01,1.37,21.28-5.88,5.96-24.76,0-36.4-7.98Z"/></g></svg>