<?xml version="1.0" encoding="UTF-8"?>
<svg id="Layer_2" data-name="Layer 2" xmlns="http://www.w3.org/2000/svg" viewBox="0 0 43.02 150.44">
  <defs>
    <style>
      .cls-1 {
        fill: #009245;
        stroke: #006837;
      }

      .cls-1, .cls-2, .cls-3, .cls-4, .cls-5 {
        stroke-miterlimit: 10;
      }

      .cls-2 {
        fill: #d9e021;
        stroke: #fcee21;
        stroke-width: .75px;
      }

      .cls-3 {
        fill: gray;
        stroke: #333;
      }

      .cls-3, .cls-5 {
        stroke-width: .5px;
      }

      .cls-4 {
        fill: #ccc;
        stroke: gray;
      }

      .cls-5 {
        fill: #006837;
        stroke: #002b37;
      }
    </style>
  </defs>
  <path class="cls-1" d="M16.11,149.93c-3.54.01-7.07.01-10.57,0-.82-.17-2.01-.56-3.02-1.51-2.15-2.04-2.05-5.35-2.01-6.54.36-12.87.38-62.95.25-66.16,0-.1-.02-.49,0-1.01.09-2.25.78-3.98,2.01-6.54,1.51-3.13,2.27-4.69,3.52-6.54,1.76-2.59,2.39-2.8,3.02-4.53.65-1.8.5-3.06.5-5.53,0-2.69.36-5.37.5-8.05.14-2.66.43-5.97,1.01-12.58.37-4.2.86-9.65,1.51-16.1.17-.67.34-1.34.5-2.01,5.03.17,10.06.34,15.09.5.44.27,1.07.74,1.51,1.51.33.58.45,1.13.5,1.51,2.42,17.21,2.52,36.73,2.52,36.73,0,.64.02,1.94.5,3.52.54,1.76,1.34,2.85,2.52,4.53,2.36,3.37,3.54,5.06,4.03,6.04,1.51,3.06,1.86,5.81,2.01,7.04.27,2.24.17,4.15,0,5.53.17,21.47.34,42.93.5,64.4-.05.56-.26,2.13-1.51,3.52-1.74,1.94-4.12,2.01-4.53,2.01-6.71.14-13.51.22-20.38.25Z"/>
  <ellipse class="cls-2" cx="21.64" cy="105.15" rx="19.37" ry="27.42"/>
  <ellipse class="cls-4" cx="21.64" cy="105.41" rx="16.86" ry="25.16"/>
  <rect class="cls-5" x="10.07" y="6.54" width="22.64" height="8.05" rx="4.03" ry="4.03"/>
  <rect class="cls-3" x="11.83" y=".25" width="19.12" height="6.04" rx="3.02" ry="3.02"/>
</svg>