<?xml version="1.0" encoding="UTF-8"?><svg id="Layer_1" xmlns="http://www.w3.org/2000/svg" width="551.5" height="755" xmlns:xlink="http://www.w3.org/1999/xlink" viewBox="0 0 551.5 755"><defs><style>.cls-1,.cls-2,.cls-3,.cls-4,.cls-5,.cls-6,.cls-7,.cls-8,.cls-9,.cls-10,.cls-11,.cls-12,.cls-13,.cls-14,.cls-15,.cls-16{stroke-miterlimit:10;}.cls-1,.cls-3,.cls-5,.cls-7,.cls-10,.cls-12,.cls-13{stroke:#1d1d1b;}.cls-2,.cls-11,.cls-15{stroke:#006837;}.cls-2,.cls-17{fill:#009245;}.cls-3{fill:#925f36;}.cls-4{fill:#ffd28a;}.cls-4,.cls-8,.cls-14{stroke:#c69c6d;}.cls-5{fill:#009ee2;}.cls-6{fill:#ff7bac;stroke:#683b11;}.cls-7{fill:#fff;}.cls-8{fill:#ffe4ab;}.cls-9{fill:#f29100;stroke:#f15a24;}.cls-10{fill:#bd1622;}.cls-11{fill:#8cc63f;}.cls-12{fill:#1d1d1b;}.cls-13{fill:#422918;}.cls-14{fill:#754c24;}.cls-15,.cls-18{fill:#39b54a;}.cls-16{stroke:#b3b3b3;}.cls-16,.cls-19{fill:#f2f2f2;}.cls-19,.cls-20,.cls-18,.cls-21,.cls-22,.cls-23,.cls-24,.cls-17{stroke-width:0px;}.cls-20{fill:#f7b51e;}.cls-21{fill:#d9e021;}.cls-22{fill:#c7b299;}.cls-23{fill:#fff2d7;}.cls-24{fill:#683b11;}</style></defs><path class="cls-4" d="m321.8,827.45c-5.56,1.44-7.91-6.93-2.37-8.36,13.22-3.41,26.52-6.48,39.92-9.14-.03-7.31-.07-13.6-.18-19.08-18.25-4.49-36.48-9.06-54.78-13.16-5.64-1.26-3.2-9.41,2.37-8.36,17.15,3.2,34.42,4.88,51.75,5.62-1.01-12.83-3.27-18.61-8.55-24.02-24.3-24.89-112.36-28.45-118.7,14.93-10.58,72.37,30.56,151.64,45.83,193,6.35,17.19,47.21,13.22,66.99-1.15,13.58-9.87,15.64-24.44,15.29-138.97-12.62,2.57-25.16,5.48-37.58,8.69Z"/><path class="cls-8" d="m406.36,775.11v-16.22c0-5.59,8.91-5.58,8.91,0v15.95c20.67-.71,41.35-1.83,61.94-2.39-.23-2.2-.5-4.39-.82-6.58-6.34-43.39-94.4-39.82-118.7-14.93-5.21,5.34-7.49,11.04-8.51,23.53,18.99,1.21,38.07,1.16,57.17.64Z"/><path class="cls-4" d="m234.2,428.71c11.84-14.76,73.87-8.12,197.44,5.74,15.06,1.69,33.38,4,42.31,17.23,14.4,21.36-13.37,44.92-8.23,88.46,4.62,39.13,30.29,47.56,24.68,70.08-7.3,29.29-57.08,40.48-91.67,48.25-85.31,19.17-151.62,1.34-183.34-21.83-7.33-5.35-13.79-11.68-16.45-20.68-6.32-21.33,14.04-39.62,25.86-60.89,30.59-55.1-15.83-94.91,9.4-126.37Z"/><path class="cls-9" d="m510.97,126.25c-20.01-29.92-57.49-35.45-66.92-36.85-44.5-6.57-96,13.89-112.62,49.51-11.76,25.19,4.92,34.44.75,92.62-3.38,47.26-15.34,54.52-8.01,77.2,10.23,31.66,47.32,60.19,82.07,57.6,43.84-3.27,66.49-54.75,88.5-104.79,19.51-44.36,42.34-96.24,16.22-135.29Z"/><path class="cls-9" d="m198.17,136.4c-56.86,6.12-103.39,57.12-116.82,107.78-15.32,57.79,21.19,82.1,0,130.58-21.25,48.61-68.07,47.3-70.93,80.83-3.52,41.38,63.17,97.26,114.74,87.05,22.65-4.49,30.32-19.34,85.53-103.63,70.39-107.47,84.84-124.41,91.79-165.81,4.76-28.36,12.6-75.12-16.69-107.78-30.81-34.36-81.68-29.66-87.62-29.02Z"/><path class="cls-20" d="m146,199c-8.06-6.28-35.47,22.75-45.35,59.19-6.52,24.07-5.21,50.66-3.99,75.2,1.37,27.73,4.9,38.21-.83,52.59-6.01,15.1-14.95,16.24-19.4,32.72-3.43,12.7-2.65,28.79,2.11,31.22,6.33,3.24,18.65-18.14,27.05-32.71,9.06-15.71,20.09-34.85,27.42-63.52,6.3-24.64,2.74-28.48,7.57-81.03,4.95-53.89,10.51-69.7,5.42-73.68Z"/><path class="cls-4" d="m507.91,319.58c-9.91-8.55-21.05-4.93-66.76-2.07-45.65,2.86-53.76.45-60.5-4.15-15.4-10.51-11.69-24.36-25.03-35.24-10.57-8.61-30.72-14.45-73.01,0,1.61,12.79,1.53,29-8.34,37.31-7.83,6.59-15.7,3.06-37.55,6.22-11.14,1.61-23.06,3.35-32.83,7.47l.33-1.47c-60.21,28.67-78.27,58.57-83.46,80.84-4.51,19.42.33,34.95-8.34,76.67-6.95,33.45-12.04,32.96-10.42,45.6,4.59,36.37,48.75,56.86,95.95,78.77,26.62,12.35,37.11,13.07,43.81,8.28,9.68-6.86,11.91-25.4,6.27-39.37-12.68-31.38-58.91-24.31-68.83-53.88-3.35-9.93,1.57-11.57,2.07-43.52.29-17.57,19.86-50.6,18.76-60.11l19.85-17.61c12.53,15.29,15.4,6.45,123.24,15.76,90.9,7.85,117.11,7.64,141.86-10.36,6.74-4.9,29.93-21.77,33.38-49.74.52-4.25,3.38-27.47-10.43-39.38Z"/><path class="cls-6" d="m208.53,470.66c-3.92-5.79-17.28-25.52-12.52-47.67,2.2-10.21,8.65-22.84,29.21-37.31,61.49-43.29,167.93-45.94,221.13-6.22,16.96,12.66,23.51,25.89,25.08,29.24,10.51,22.38,7.34,47.37,2.04,59.88-26.91,63.41-220.16,68.21-264.94,2.07Z"/><path class="cls-4" d="m189.59,95.51c-24.21,39.43-16.05,115.92,2.09,147.16,1.18,2.04,2.29,3.9,3.89,5.81,11.57,13.82,25.72,18.35,43.5,24.78,33.55,12.13,27.7,14.51,46.49,19.16,2.53.63,24.09,7.32,47.98,4.15,49.62-6.58,99.88-43.76,110.57-58.03,5.56-7.42,33.33-74.43,12.52-124.36-32.21-77.27-220.62-94.23-267.03-18.65Z"/><path class="cls-9" d="m439.93,30.68c-43.66-40.85-129.92-22.24-155.62,0-34.35-15.37-115.08-8.48-145.39,50.59-18.77,36.58-17.95,92.7,4.85,105.15,35.64,19.45,129.78-65.18,151.96-116.55,40.21,32.45,133,66.27,160.9,44.29,19.54-15.4,8.92-59.52-16.69-83.48Z"/><path class="cls-1" d="m227.2,172.38c-2.27.3-4.79.44-6.8-.3-3.28-1.21-3.76-4.25-2.87-4.71.65-.33,1.51.95,4.85,1.66.89.19,5.76,1.23,10.7-.74,1.69-.67,3.6-1.77,3.48-2.23-.16-.62-3.91.72-7.24.19-3.79-.6-5.16-3.32-4.39-3.84.55-.37,2.02.54,6.47,1.09,5.28.65,7.78-.07,8.43-.27,2.43-.75,4.7-2.15,4.56-2.61-.17-.58-3.89.83-7.24.19-2.45-.47-3.99-1.89-3.33-2.53.64-.62,2.84.01,7.14-.49,6.21-.73,8.74-2.88,11.91-2.5,2.42.29,4.12,1.92,3.75,3.73-1.05,5.1-18.7,11.92-29.41,13.36Z"/><path class="cls-7" d="m242.77,181.38c-8.74-12.51,3.62-40.23,25.36-43.84,6.35-1.05,11.6.31,14.6,1.19,18.8,5.5,33.38,25.63,28.05,37.67-7.6,17.16-56.92,20.84-68,4.98Z"/><path class="cls-5" d="m259.47,177.89c-6.36-10.27,2.63-33.03,18.45-35.99,4.62-.86,8.44.25,10.62.97,13.68,4.51,24.29,21.04,20.41,30.93-5.53,14.09-41.42,17.11-49.48,4.09Z"/><path class="cls-12" d="m264.4,175.74c-5.17-8.37,2.14-26.91,15.01-29.32,3.76-.7,6.87.21,8.64.79,11.13,3.68,19.76,17.15,16.6,25.2-4.5,11.48-33.69,13.94-40.25,3.33Z"/><ellipse class="cls-7" cx="289.45" cy="157.57" rx="7.15" ry="6.75"/><path class="cls-1" d="m429.81,167.38c2.27.3,4.79.44,6.8-.3,3.28-1.21,3.76-4.25,2.87-4.71-.65-.33-1.51.95-4.85,1.66-.89.19-5.76,1.23-10.7-.74-1.69-.67-3.6-1.77-3.48-2.23.16-.62,3.91.72,7.24.19,3.79-.6,5.16-3.32,4.39-3.84-.55-.37-2.02.54-6.47,1.09-5.28.65-7.78-.07-8.43-.27-2.43-.75-4.7-2.15-4.56-2.61.17-.58,3.89.83,7.24.19,2.45-.47,3.99-1.89,3.33-2.53-.64-.62-2.84.01-7.14-.49-6.21-.73-8.74-2.88-11.91-2.5-2.42.29-4.12,1.92-3.75,3.73,1.05,5.1,18.7,11.92,29.41,13.36Z"/><path class="cls-7" d="m415.25,176.38c8.74-12.51-3.62-40.23-25.36-43.84-6.35-1.05-11.6.31-14.6,1.19-18.8,5.5-33.38,25.63-28.05,37.67,7.6,17.16,56.92,20.84,68,4.98Z"/><path class="cls-5" d="m398.54,172.89c6.36-10.27-2.63-33.03-18.45-35.99-4.62-.86-8.44.25-10.62.97-13.68,4.51-24.29,21.04-20.41,30.93,5.53,14.09,41.42,17.11,49.48,4.09Z"/><path class="cls-12" d="m393.62,170.74c5.17-8.37-2.14-26.91-15.01-29.32-3.76-.7-6.87.21-8.64.79-11.13,3.68-19.76,17.15-16.6,25.2,4.5,11.48,33.69,13.94,40.25,3.33Z"/><ellipse class="cls-7" cx="382.57" cy="154.57" rx="7.15" ry="6.75"/><path class="cls-13" d="m323.23,218.21c.46-.07,1.13.32,3.98.86,2.17.41,3.96.6,4.43.65,2.32.24,4.18.29,4.79.3,0,0,.67.01,1.33.01,4.37,0,11.22-1.57,12.51-1.28,1,.23-.44,1.76-4.4,2.71-4.78,1.15-13.07,1.42-18.24.18-4.86-1.17-5.38-3.3-4.4-3.44Z"/><path class="cls-10" d="m362.12,241.96c3.78,16.08-6.47,30.72-20.22,32.71-18.93,2.75-34.25-19.94-31.18-28.73,2.9-8.29,24.07-9.66,51.4-3.99Z"/><path class="cls-3" d="m215.84,411.35c-37.85,9.54-56.08,61.28-44.27,99.75,12.95,42.17,63.67,73.83,99.43,59.38,37.11-14.99,46.74-75.03,25.69-113.98-14.14-26.16-47.86-53.47-80.85-45.15Z"/><ellipse class="cls-12" cx="239.89" cy="432.05" rx="4.6" ry="14.39" transform="translate(-251.02 488.79) rotate(-67.55)"/><ellipse class="cls-12" cx="223.21" cy="449.74" rx="4.7" ry="14.07" transform="translate(-52.36 30.04) rotate(-6.89)"/><ellipse class="cls-12" cx="201.76" cy="443.28" rx="14.28" ry="4.63" transform="translate(-256.66 278.79) rotate(-45.79)"/><path class="cls-24" d="m177.47,464.72c-1.93,8.61-7.79,39.72,11,66.48,17.51,24.94,48.85,35.33,51.35,31.88,2.01-2.77-14.96-13.97-32.67-38.12-16.45-22.44-24.98-44.39-29.69-60.24Z"/><image width="346" height="226" transform="translate(186 599)" xlink:href="../../../../../../var/folders/18/6mszw04d3bz42f332xxxqz440000gn/T/TemporaryItems/NSIRD_Illustrator_AclE1C/AI_28_0/Adobe/AISVG/27/pige/pige1.png"/><path class="cls-15" d="m178.67,710.76c-14.54,67.08-3.89,138.74,13.51,142.07,16.42,3.14,37.67-54.81,43.35-70.3,29.09-79.33,32.02-180.2,11.25-187.63-16.91-6.05-49.92,49.73-64.16,99.99-1.48,5.24-2.8,10.54-3.95,15.87"/><path class="cls-11" d="m321.8,827.45c-5.56,1.44-7.91-6.93-2.37-8.36,10.84-2.8,21.75-5.36,32.71-7.66,1.39-7.3,2.47-14.76,3.3-21.47-17.01-4.2-33.99-8.42-51.04-12.24-5.64-1.26-3.2-9.41,2.37-8.36,16.67,3.12,33.45,4.78,50.3,5.56.19-2.02.35-3.78.47-5.19,7.47-83.6-15.67-179.16-37.47-179.59-17.76-.35-35.05,62.41-35.76,114.05-1.01,73.09,30.85,147.72,49.77,145.16,7.33-.99,12.49-13.55,16.08-28.65-9.51,2.07-18.97,4.33-28.37,6.76Z"/><path class="cls-11" d="m405.69,775.13c.22,0,.44-.01.66-.02v-16.22c0-5.59,8.91-5.58,8.91,0v15.95c16.88-.58,33.76-1.43,50.61-2.03.42-8.17.52-15.16.58-19.21,1.13-78.17-29.02-163.75-50.71-161.55-17.66,1.8-30.12,61.87-26.95,109.7,1.73,26.13,8.36,51.86,16.89,73.38Z"/><path class="cls-2" d="m452.01,773.35c14.29-.59,28.56-1.1,42.77-1.21,3.94-15.98,4.92-35.69,5.3-43.3,3.34-67.09-24.19-139.44-45.79-136.79-17.59,2.16-31.66,54.11-29.87,95.03,1.47,33.45,13.82,65.81,27.58,86.28Z"/><path class="cls-15" d="m474.32,772.54c8.41-.25,16.81-.41,25.19-.42,5.75,0,5.74,8.67,0,8.67-7.21,0-14.43.13-21.65.32,2.76,6.33,5.68,12.22,8.66,17.55,15.11.61,30.18,2.03,45.13,4.42,3.51-18.56,3.85-41.8,3.98-50.72,1.13-78.17-29.02-163.75-50.71-161.55-17.66,1.8-30.12,61.87-26.95,109.7,1.7,25.58,8.08,50.8,16.36,72.04Z"/><path class="cls-15" d="m346.77,774.31c19.79,1.37,39.68,1.35,59.59.81v-16.22c0-3.64,3.78-4.9,6.42-3.8.16-80.75-25.63-165.5-46.22-164.76-17.75.64-32.06,64.83-30.32,116.91.77,23.18,4.8,46.33,10.54,67.07Z"/><path class="cls-2" d="m295.02,813.21c2.67-10.96,4.6-20.74,5.63-26,.67-3.43,1.3-6.89,1.88-10.36-2.3-1.84-1.47-5.66,1.12-7.06,12.24-81.73.35-170.95-19.8-173.94-17.59-2.61-41.88,60.4-48.45,113.97-9.3,75.82,13.84,157.41,32.92,157.16,11.45-.15,20.86-29.77,26.7-53.76"/><path class="cls-17" d="m214.55,642.28c-3.69-1.17-16.68,40.8-17.71,44.13-2.59,8.38-9,30.31-12.48,59.6-3.29,27.74-4.76,68.77-.86,68.82,7.95.1,38.34-170.23,31.05-172.55Z"/><path class="cls-17" d="m357.07,774.9c4.22.19,8.44.33,12.67.42-2.02-50.54-12.06-142.68-17.61-142.68-3.85,0-5.18,44.21-5.29,47.72-.27,8.83-.6,31.81,3.83,60.95,1.58,10.41,3.91,22.55,6.41,33.58Z"/><path class="cls-17" d="m506.08,622.55c-3.85,0-5.18,44.21-5.29,47.72-.27,8.83-.6,31.81,3.83,60.95,4.19,27.6,13.66,67.38,17.41,66.24,7.65-2.33-8.35-174.91-15.95-174.91Z"/><path class="cls-18" d="m251.99,641.83c-4.06.02-5.61,44.24-5.74,47.75-.31,8.83-.74,31.82,3.83,60.95,4.33,27.59,14.18,67.34,18.14,66.19,8.08-2.36-8.22-174.92-16.24-174.89Z"/><path class="cls-4" d="m131.03,520.34c34.17-7.15,50.06,34.11,106.14,42.33,37.91,5.56,59.46-9.08,76.66,4.91,10.7,8.71,15.35,24.94,9.51,36.43-15.22,29.95-105.21,34.59-167.39,4.27-7.27-3.55-60.87-29.68-56.25-58.83,1.99-12.59,14.84-25.66,31.32-29.11Z"/><path class="cls-23" d="m197.14,355.33c-1.52-6.42-19.67-1.31-32.67,15.33-9.49,12.15-13.3,26.68-19.76,51.33-2.78,10.61-7.69,29.36-4.88,30.43,2.82,1.07,13.43-15.56,19.99-32.69,6.19-16.18,4.46-21.53,10.2-29.45,6.27-8.65,11.08-6.05,18.88-16.5,3.77-5.04,9.19-14.42,8.24-18.45Z"/><path class="cls-23" d="m117.62,555.74c-6.63,1.21-2.16,19.16,14.3,32.55,12.02,9.78,26.71,14.1,51.64,21.45,10.73,3.16,29.69,8.74,30.9,6.04,1.21-2.71-15.34-13.77-32.58-20.89-16.27-6.73-21.82-5.26-29.68-11.19-8.58-6.48-5.72-11.07-16.07-19.13-5-3.89-14.35-9.58-18.52-8.82Z"/><path class="cls-20" d="m205.63,50.82c-2.02-1.61-5.86-.05-13.53,3.07-11.6,4.72-26.58,10.8-35.55,25.49-7.5,12.28-7.13,24.53-6.4,47.99.54,17.49,3.15,31.7,5.34,41.13,4.87-6.74,11.78-16.85,19.21-29.71,18.24-31.6,40.04-80.74,30.95-87.98Z"/><path class="cls-3" d="m381.48,443.24c-29.49-6.69-53.32-21.8-65.45-39.33-7.58,5.85-14.34,12.58-19.84,19.99-31.38,42.28-25.87,111.89,13.35,134.54,40.7,23.5,105.25-10.76,127.79-58.21,7.96-16.76,12.38-38.75,10.22-59.39-18.05,6.62-41.62,7.96-66.08,2.4Z"/><path class="cls-24" d="m326.33,424.05c-8.57,5.12-38.57,24.4-43.8,57.78-4.88,31.1,13.86,60.99,18.78,60.16,3.95-.67-1.72-21.05,2.36-51.69,3.79-28.47,14.02-50.99,22.66-66.24Z"/><path class="cls-22" d="m306.81,419.81c-4.56-16.99,36.4-28.63,55.61-22.76,11.95,3.65,11.7,16.4,26.92,21.44,15.56,5.15,24.9-5.16,38.29-.75,16.65,5.5,29.43,30.44,20.69,41.25-17.4,21.52-134.26-12.22-141.51-39.19Z"/><path class="cls-16" d="m312.2,413.47c-5.86-11.22,27.25-22.53,46.43-17.25,11.93,3.29,12.76,11.42,27.98,15.85,15.56,4.54,23.79-1.31,37.18,2.59,16.66,4.84,31.18,21.81,23.58,28.02-15.12,12.36-125.87-11.4-135.18-29.21Z"/><path class="cls-21" d="m378.78,432c30.02-50.02,40.64-92.01,30.43-99.72-.57-.43,3.16,1.01-23.33-3.45-5.15-.87-9-1.52-11.61.79-3.34,2.96,0,0-2.38,3.35-5.17,7.27,23.13,4.58,27.93,9.06,14.76,13.76-28.49,84.9-28.49,84.9,2.11,2.93,5.22,4.34,7.45,5.06Z"/><ellipse class="cls-19" cx="372.21" cy="426.39" rx="9.2" ry="18.2" transform="translate(-125.05 696.73) rotate(-77.41)"/><path class="cls-4" d="m489.23,326.87c14.98-8.27,37.29-7.22,48.18,4.97,5.98,6.69,15,23.99-19.98,113.13-34.04,86.76-51.06,130.13-88.14,152.91-43,26.41-106.51,31.44-129.28,2.49-8.14-10.35-13.02-27.53-7.05-37.3,7.59-12.4,27.93-5.08,62.29-11.19,15.6-2.77,38.18-6.79,55.24-19.89,14.75-11.33,21.77-26.69,44.66-120.59,13.71-56.22,17.16-75.19,34.08-84.54Z"/><path class="cls-14" d="m342.96,124.93c4.27-3.42,15.59-11.55,31.99-12.49,20.56-1.18,36.59,9.64,36.2,10.67-.31.8-10.85-4.07-27.78-3.9-6.12.06-11.16.76-18.8,1.82-8.91,1.24-16.29,2.72-21.61,3.9Z"/><path class="cls-14" d="m233.32,131c4.27-3.42,15.59-11.55,31.99-12.49,20.56-1.18,36.59,9.64,36.2,10.67-.31.8-10.85-4.07-27.78-3.9-6.12.06-11.16.76-18.8,1.82-8.91,1.24-16.29,2.72-21.61,3.9Z"/></svg>