<?xml version="1.0" encoding="UTF-8"?><svg id="Layer_1" xmlns="http://www.w3.org/2000/svg" width="386" height="142" xmlns:xlink="http://www.w3.org/1999/xlink" viewBox="0 0 386 142"><defs><style>.cls-1{fill:#f8b133;filter:url(#drop-shadow-1);}.cls-1,.cls-2,.cls-3{stroke-width:0px;}.cls-2{fill:#ff1d25;}.cls-3{fill:#f7931e;}</style><filter id="drop-shadow-1" filterUnits="userSpaceOnUse"><feOffset dx="7" dy="7"/><feGaussianBlur result="blur" stdDeviation="5"/><feFlood flood-color="#4c3818" flood-opacity=".5"/><feComposite in2="blur" operator="in"/><feComposite in="SourceGraphic"/></filter></defs><rect class="cls-1" x="8.2" y="8.2" width="354.86" height="111.21" rx="12" ry="12"/><path class="cls-3" d="m226,29c-24.53-9.2-151.97-9.7-186.28-3.52-26.82,4.83-22.63,11.35-22.74,48.24-.04,14.75-3.39,29.94,6.59,32.23,18.08,4.14,36.58-8.69,76.43-24.95,49-20,134-49,126-52Z"/><path class="cls-2" d="m90.96,43.82h26.47c5.77,0,10.08,1.37,12.96,4.11,2.87,2.74,4.31,6.64,4.31,11.71s-1.56,9.27-4.69,12.2-7.9,4.39-14.33,4.39h-8.72v19.12h-16v-51.54Zm16,21.97h3.9c3.07,0,5.23-.53,6.47-1.6,1.24-1.07,1.86-2.43,1.86-4.1s-.54-2.99-1.62-4.11c-1.08-1.12-3.11-1.69-6.08-1.69h-4.54v11.5Z"/><path class="cls-2" d="m143.02,43.82h15.93v38.85h24.86v12.69h-40.78v-51.54Z"/><path class="cls-2" d="m222.73,86.85h-18.08l-2.51,8.51h-16.26l19.37-51.54h17.37l19.37,51.54h-16.68l-2.58-8.51Zm-3.3-11.14l-5.69-18.53-5.63,18.53h11.32Z"/><path class="cls-2" d="m236.73,43.82h17.69l10.38,17.39,10.41-17.39h17.59l-20.04,29.95v21.59h-15.96v-21.59l-20.07-29.95Z"/></svg>