<?xml version="1.0" encoding="UTF-8"?><svg id="Layer_1" xmlns="http://www.w3.org/2000/svg" width="386" height="142" xmlns:xlink="http://www.w3.org/1999/xlink" viewBox="0 0 386 142"><defs><style>.cls-1{fill:#f8b133;filter:url(#drop-shadow-1);}.cls-1,.cls-2,.cls-3{stroke-width:0px;}.cls-2{fill:#ff1d25;}.cls-3{fill:#f7931e;}</style><filter id="drop-shadow-1" filterUnits="userSpaceOnUse"><feOffset dx="7" dy="7"/><feGaussianBlur result="blur" stdDeviation="5"/><feFlood flood-color="#4c3818" flood-opacity=".5"/><feComposite in2="blur" operator="in"/><feComposite in="SourceGraphic"/></filter></defs><rect class="cls-1" x="8.2" y="8.2" width="354.86" height="111.21" rx="12" ry="12"/><path class="cls-3" d="m226,29c-24.53-9.2-151.97-9.7-186.28-3.52-26.82,4.83-22.63,11.35-22.74,48.24-.04,14.75-3.39,29.94,6.59,32.23,18.08,4.14,36.58-8.69,76.43-24.95,49-20,134-49,126-52Z"/><path class="cls-2" d="m51.66,68.8l10.1-.63c.22,1.64.66,2.89,1.34,3.75,1.09,1.39,2.66,2.09,4.69,2.09,1.52,0,2.68-.36,3.5-1.07s1.23-1.54,1.23-2.47-.39-1.69-1.17-2.39-2.59-1.37-5.44-1.99c-4.66-1.05-7.98-2.44-9.96-4.17-2-1.73-3-3.95-3-6.63,0-1.77.51-3.43,1.54-5s2.56-2.8,4.62-3.7,4.87-1.35,8.45-1.35c4.39,0,7.74.82,10.04,2.45s3.68,4.23,4.11,7.79l-10.01.59c-.27-1.55-.82-2.67-1.68-3.38s-2.03-1.05-3.53-1.05c-1.23,0-2.16.26-2.79.79s-.94,1.16-.94,1.91c0,.55.26,1.04.77,1.48.5.45,1.69.88,3.56,1.27,4.64,1,7.96,2.01,9.97,3.04s3.47,2.29,4.38,3.81,1.37,3.21,1.37,5.09c0,2.2-.61,4.23-1.83,6.09s-2.92,3.27-5.11,4.23-4.95,1.44-8.27,1.44c-5.84,0-9.89-1.12-12.14-3.38s-3.52-5.11-3.82-8.58Z"/><path class="cls-2" d="m88.13,45.81h17.65c3.84,0,6.72.91,8.64,2.74s2.87,4.43,2.87,7.8-1.04,6.18-3.13,8.13-5.27,2.93-9.55,2.93h-5.81v12.75h-10.66v-34.36Zm10.66,14.65h2.6c2.05,0,3.48-.36,4.31-1.07s1.24-1.62,1.24-2.73-.36-1.99-1.08-2.74-2.07-1.12-4.05-1.12h-3.02v7.66Z"/><path class="cls-2" d="m123.27,45.81h10.64v34.36h-10.64v-34.36Z"/><path class="cls-2" d="m141.52,45.81h10.62v25.9h16.57v8.46h-27.19v-34.36Z"/><path class="cls-2" d="m189.97,45.81h10.64v34.36h-10.64v-34.36Z"/><path class="cls-2" d="m225.5,67.73v-7.15h16.41v14.65c-3.14,2.14-5.92,3.6-8.33,4.37s-5.28,1.16-8.59,1.16c-4.08,0-7.4-.7-9.97-2.09s-4.56-3.46-5.98-6.21-2.12-5.91-2.12-9.47c0-3.75.77-7.01,2.32-9.79s3.81-4.88,6.8-6.32c2.33-1.11,5.46-1.66,9.4-1.66s6.64.34,8.52,1.03,3.45,1.75,4.69,3.2,2.18,3.28,2.8,5.5l-10.24,1.83c-.42-1.3-1.14-2.29-2.14-2.98s-2.29-1.03-3.86-1.03c-2.33,0-4.18.81-5.57,2.43s-2.07,4.18-2.07,7.68c0,3.72.7,6.38,2.1,7.97s3.35,2.39,5.85,2.39c1.19,0,2.32-.17,3.4-.52s2.31-.93,3.7-1.76v-3.23h-7.1Z"/><path class="cls-2" d="m248.19,45.81h28.45v7.34h-17.81v5.46h16.52v7.01h-16.52v6.77h18.33v7.78h-28.97v-34.36Z"/><path class="cls-2" d="m282.94,45.81h9.91l12.94,19.01v-19.01h10.01v34.36h-10.01l-12.87-18.87v18.87h-9.98v-34.36Z"/></svg>