<?xml version="1.0" encoding="utf-8"?>
<!-- Generator: Adobe Illustrator 28.0.0, SVG Export Plug-In . SVG Version: 6.00 Build 0)  -->
<svg version="1.1" id="Layer_1" xmlns="http://www.w3.org/2000/svg" xmlns:xlink="http://www.w3.org/1999/xlink" x="0px" y="0px"
	 viewBox="0 0 1600 900" style="enable-background:new 0 0 1600 900;" xml:space="preserve">
<style type="text/css">
	.st0{fill:#DFFFF8;stroke:#000000;stroke-miterlimit:10;}
	.st1{fill:#FFF1BF;}
	.st2{fill:#FFE8B8;}
	.st3{opacity:0.7;}
	.st4{opacity:0.5;fill:#FFFF2A;enable-background:new    ;}
	.st5{opacity:0.5;fill:#FFE84A;enable-background:new    ;}
	.st6{fill:#422A18;}
	.st7{fill:#422A20;}
	.st8{fill:#006837;}
	.st9{fill:#009245;}
	.st10{fill:#7F4400;}
	.st11{fill:#603813;}
	.st12{fill:#025500;}
	.st13{fill:#8C6239;}
	.st14{fill:#754C24;}
	.st15{fill:#007F2B;}
	.st16{fill:#A67C52;}
	.st17{fill:#39A935;}
	.st18{fill:#A67C52;stroke:#683B11;stroke-miterlimit:10;}
	.st19{fill:#925F36;stroke:#683B11;stroke-miterlimit:10;}
	.st20{fill:#C99D66;stroke:#683B11;stroke-miterlimit:10;}
	.st21{fill:#683B11;stroke:#683B11;stroke-miterlimit:10;}
	.st22{fill:#422918;stroke:#683B11;stroke-miterlimit:10;}
	.st23{fill:#FFFFFF;stroke:#683B11;stroke-miterlimit:10;}
	.st24{fill:#1D1D1B;stroke:#683B11;stroke-miterlimit:10;}
	.st25{fill:#C69C6D;stroke:#683B11;stroke-miterlimit:10;}
	.st26{fill:#925F36;stroke:#603813;stroke-miterlimit:10;}
	.st27{fill:#1D1D1B;stroke:#1D1D1B;stroke-miterlimit:10;}
	.st28{fill:#683B11;}
	.st29{fill:#925F36;stroke:#754C24;stroke-miterlimit:10;}
	.st30{fill:#003F0C;}
	.st31{fill:#D3FF94;}
	.st32{fill:#DFFFB2;}
	.st33{fill:#FBB03B;}
	.st34{fill:#FFD28A;stroke:#C69C6D;stroke-miterlimit:10;}
	.st35{fill:#F29100;stroke:#F15A24;stroke-miterlimit:10;}
	.st36{fill:#F7B51E;}
	.st37{fill:#FF7BAC;stroke:#683B11;stroke-miterlimit:10;}
	.st38{stroke:#1D1D1B;stroke-miterlimit:10;}
	.st39{fill:#FFFFFF;stroke:#1D1D1B;stroke-miterlimit:10;}
	.st40{fill:#009EE2;stroke:#1D1D1B;stroke-miterlimit:10;}
	.st41{fill:#422918;stroke:#1D1D1B;stroke-miterlimit:10;}
	.st42{fill:#BD1622;}
	.st43{fill:#925F36;stroke:#1D1D1B;stroke-miterlimit:10;}
	.st44{fill:#FFF2D7;}
	.st45{fill:#C7B299;}
	.st46{fill:#F2F2F2;stroke:#B3B3B3;stroke-miterlimit:10;}
	.st47{fill:#D9E021;}
	.st48{fill:#F2F2F2;}
	.st49{fill:#754C24;stroke:#C69C6D;stroke-miterlimit:10;}
	.st50{opacity:0.3;}
</style>
<g id="Layer_1_00000129912019755090899600000010414223933234811572_">
	<path class="st0" d="M42.93,1.1C18.65,1.19-1.33,1.15-14.7,1.1v151.17c0,50.05,0,100.11,0,150.16c-0.01,262-1.55,261.58,0,268.07
		C7.45,663.34,317.05,732.22,1604,617.87c-1.16-99.77-1.83-199.54-2.02-299.31c-0.2-105.81,0.13-211.63,1.01-317.45
		c-222.1-0.53-444.19-0.87-666.29-1.02c-181.65-0.12-363.3-0.12-544.95,0h-44.49c-20.56,0-41.12,0-61.67,0
		c-127.28,0-119.28-0.16-140.54,0C101.77,0.43,91.89,0.92,42.93,1.1L42.93,1.1z"/>
	<path class="st1" d="M-13.7,507.33c70.05-28.82,125.12-31.18,161.19-28.6c81.85,5.85,119.01,37.26,228,49.78
		c165.33,19,214.76-59.69,389-92.19c229.45-42.8,338.15,117.67,658,70.06c71.96-10.71,128.68-29.88,162.81-43.05v443h-240
		c-26.33,1-52.67,2-79,3c-57.33-1.45-114.66-2.45-172-3c-70.66-0.68-141.32-0.68-212,0h-897C-14.37,773.33-14.03,640.33-13.7,507.33
		L-13.7,507.33z"/>
	<path class="st2" d="M76.72,684.33c13.61-57.15-36.54-83.54-8.47-119c24.69-31.19,84.86-37.78,95.99-39
		c105.17-11.52,136.28,59.64,249.84,63c98.63,2.91,121.92-49.39,220.2-40c67.04,6.4,141.97,38.94,145.39,73
		c5.12,51-143.13,118.67-285.13,126c-101.89,5.26-161.76-22.56-203.26,6c-43.98,30.26-2.97,79.52-52.23,111
		c-36.61,23.4-100.05,22.26-145.39,7c-43.01-14.47-79.76-45.03-83.28-79C5.74,748.59,63.21,741.09,76.72,684.33L76.72,684.33z"/>
	<g class="st3">
		<path class="st4" d="M221.56,71.8c9.49-8.83,48.36,61.51,80.09,51.13c31.3-10.24,36.83-92.92,47.79-91.08
			c11.34,1.9-0.65,89.23,25.83,105.46c27.8,17.03,81.23-54.48,89.13-44.74c6.76,8.34-37.07,55.08-27.13,92.68
			c10.83,40.95,78.77,45.77,77.5,57.53c-1.36,12.64-79.04-0.93-89.13,30.36c-7.16,22.2,24.01,53.54,18.08,62.32
			c-8.27,12.24-66.85-51.56-94.3-30.36c-21.36,16.49-12.03,75.29-20.67,76.7c-10.8,1.76-17.68-91.43-47.79-99.07
			c-26.13-6.63-56.64,54.46-62,49.54c-5.49-5.04,36.67-59.82,24.54-99.07c-13.9-45-92.64-48.51-91.71-55.93
			c0.85-6.84,65.73,12.51,81.38-17.58c14.2-27.3-20.08-80.02-11.63-87.89L221.56,71.8z"/>
		<circle class="st5" cx="341.8" cy="219.83" r="90"/>
	</g>
	<path class="st6" d="M1580.23,751.11c23.21-94.71-12.91-285.21-48.99-382.97c-58.67-158.95-159.98-188.59-146.38-258.89
		c6.34-32.76,34.95-60.47,62.73-62.86c91.99-7.92,118.27,266.49,253.33,548.39c11.53,24.07,40.38,82.68,27.48,140.61
		c-11.42,51.3-49.26,73.68-54.97,76.92c-34.13,19.36-81.52,14.71-93.8-16.54c-6.68-17-1.2-37.33,0.6-44.67L1580.23,751.11z"/>
	<path class="st7" d="M19.04,757.11C-4.17,662.4,31.95,471.9,68.03,374.14c58.66-158.95,159.98-188.59,146.38-258.9
		c-6.34-32.76-34.95-60.47-62.73-62.86C59.69,44.46,33.41,318.87-101.65,600.77c-11.53,24.07-40.38,82.68-27.48,140.61
		c11.42,51.3,49.26,73.68,54.97,76.92c34.13,19.36,81.52,14.71,93.8-16.54c6.68-17,1.2-37.33-0.6-44.67L19.04,757.11z"/>
	<path class="st8" d="M352.76,244.11c28.29-93.15,107.57-139.01,124.97-149.08c9.97-5.77,18.97-10.09,27.07-13.35
		c-13.01-12.86-26.19-22.74-43.02-29.88c-65.7-27.9-133.39,8.54-136.75-1.11c-3.1-8.9,51.31-48.95,121.07-59.55
		c38.56-5.86,73.22-1.41,102.05,6.8c-39.64-29.86-90.22-35.25-88.13-42.2c2.35-7.82,69.22-10.55,132.51,15
		c1.11,0.45,2.21,0.91,3.3,1.37c2.65-1.18,5.41-2.36,8.31-3.52c18.64-7.5,103.59-41.66,194.12-6.41
		C862.91-12.65,904.4,37.8,898.89,45.77c-5.97,8.64-61.36-41.14-132.9-28.13c-12.1,2.2-22.98,5.9-33.66,10.94
		c36.96,8.96,92.46,30.16,133.62,81.83c42.61,53.51,52.7,118.19,43.97,122.58c-9.46,4.76-31.76-66.05-99.5-89.12
		c-24.99-8.51-48.65-7.96-79.03-4.63c0.02,1.22,0.02,2.4-0.01,3.53c26.42,25.52,56.77,65.28,67.78,120.71
		c13.36,67.2-7.07,130.38-16.77,130.58c-10.51,0.21,1.92-73.87-47.43-124.32c-22.33-22.83-49.07-32.4-88.08-45.69
		c-12.57,0.05-24.49-2.4-33.51-7.87c-3.43-1.03-6.45-2.59-9.24-4.68c-0.93-0.22-1.85-0.44-2.76-0.65
		c-25.53,20.11-43.52,35.92-55.86,58.78c-30.62,56.73-1.43,110.59-10.67,114.07c-8.52,3.21-42-39.33-46.96-96.72
		c-2.28-26.32,1.86-50.91,8.87-72.57c-33.92,10.06-58.47,18.89-80.57,38.53c-54.41,48.36-49.58,122.78-60.05,122.15
		C346.48,374.51,332.55,310.63,352.76,244.11L352.76,244.11z"/>
	<path class="st9" d="M1257.41,260.88c-22.28-91.22-95.6-137.53-111.68-147.69c-9.22-5.82-17.59-10.22-25.15-13.56
		c13.06-12.23,26.14-21.56,42.55-28.15c64.09-25.74,126.82,11.16,130.52,1.84c3.41-8.6-46.48-48.71-112.49-60.51
		c-36.49-6.52-69.78-2.94-97.7,4.44c39.33-28.2,87.85-32.37,86.21-39.17c-1.85-7.66-65.51-11.74-127.17,11.77
		c-1.08,0.41-2.15,0.83-3.22,1.26c-2.47-1.2-5.04-2.41-7.75-3.6c-17.4-7.69-96.72-42.74-184.87-10.37
		c-62.95,23.11-105.08,71.3-100.23,79.17c5.26,8.54,60.62-38.71,128.21-24.53c11.43,2.4,21.63,6.23,31.56,11.36
		c-35.71,7.93-89.74,27.36-131.61,76.76c-43.36,51.15-56.25,113.85-48.14,118.3c8.79,4.83,33.63-63.57,99.43-84.57
		c24.27-7.75,46.82-6.7,75.62-2.82c-0.08,1.18-0.14,2.33-0.17,3.44c-26.5,24.26-57.46,62.29-70.77,115.98
		c-16.14,65.08,0.16,126.99,9.4,127.38c10.02,0.43,1.91-71.9,51.53-119.92c22.46-21.73,48.45-30.47,86.34-42.57
		c11.99,0.32,23.48-1.81,32.37-6.94c3.33-0.93,6.29-2.38,9.05-4.35c0.9-0.2,1.78-0.39,2.66-0.57
		c23.34,20.11,39.71,35.87,50.32,58.37c26.34,55.84-4.23,107.61,4.41,111.2c7.96,3.31,42.05-37.36,49.69-93.09
		c3.5-25.55,0.8-49.56-4.79-70.79c31.86,10.51,54.83,19.63,74.92,39.2c49.46,48.2,41.1,120.5,51.12,120.11
		c9.24-0.36,25.75-62.21,9.84-127.35L1257.41,260.88z"/>
	<path class="st10" d="M1375.73,749.71c61.21-61.82,91.78-227.88,87.87-321.93c-6.37-152.92-108.56-226.95-67.17-274.67
		c19.28-22.24,61.58-29.34,93.52-17.2c105.76,40.17,32.93,266.41,78.88,553.24c3.92,24.49,14.33,84.51-21.65,122.99
		c-31.87,34.07-82.49,32.39-90.08,32.03c-45.35-2.16-96.58-29.63-98.67-60.08c-1.14-16.56,12.56-29.58,17.3-34.37V749.71z"/>
	<path class="st11" d="M1476.48,585.89c1.96-46.87,7.21-172.65-9.25-257.2c-13.2-67.83-40.34-108.96-35.85-114.29
		c3.28-3.9,17.89,18.05,19.66,20.73c9.97,15.1,30.8,51.76,43.4,160.25c1.33,11.47,13.51,121.05-5.43,191.27
		c-1.86,6.88-7.55,28-10.68,27.64c-3.1-0.35-2.13-21.52-1.84-28.4H1476.48z"/>
	<path class="st12" d="M1686.56,179.24c-55.03-66.05-135.31-76.13-152.92-78.35c-10.1-1.27-18.9-1.7-26.62-1.57
		c6.17-14.92,13.5-27.48,24.74-39.07c43.88-45.23,111.5-38.83,110.91-47.83c-0.54-8.31-58.58-22.2-118.99-6.88
		c-33.39,8.47-60.08,23.98-80.72,40.55c22-37.89,61.32-59.63,57.22-64.56c-4.6-5.55-59.96,15.17-102.69,57.67
		c-0.75,0.75-1.48,1.49-2.22,2.24c-2.56-0.05-5.21-0.06-7.97-0.01c-17.74,0.3-98.62,1.67-160.19,61.41
		c-43.97,42.66-60.4,97.92-53.18,102.51c7.83,4.98,35.8-54.51,98.49-68.48c10.6-2.36,20.73-3.09,31.15-2.65
		c-27,19.97-64.89,56.25-80.63,112.4c-16.3,58.14-2.28,114.2,6.33,114.77c9.34,0.62,3.15-64.61,50.36-106.62
		c17.42-15.5,36.86-23.17,62.73-30.88c0.4,1,0.81,1.96,1.22,2.87c-12.74,29.82-23.77,72.57-13.69,121.42
		c12.22,59.23,50.55,103.6,58.51,100.43c8.63-3.44-26.94-59.41-4.11-117.37c10.33-26.23,28.81-43.18,55.99-67.38
		c10.25-4.27,19.11-10.36,24.57-17.9c2.44-2.01,4.36-4.32,5.92-6.98c0.68-0.5,1.35-0.99,2.02-1.47
		c27.68,7.59,47.76,14.28,65.66,28.63c44.41,35.63,39.16,89.44,47.87,89.1c8.03-0.31,20.67-46.39,4.99-94.77
		c-7.19-22.18-19.01-40.76-32.15-55.97c31.07-3.46,54.08-4.7,78.81,3.68c60.89,20.65,82.54,82.83,90.84,78.72
		c7.66-3.79-2.96-60.51-42.26-107.67L1686.56,179.24z"/>
	<path class="st9" d="M1366.94,258.53c9.55-36.33,20.99-74.95,27.83-100.89c15.2-23.89,13.25-62.8-8.14-78.89
		c-21.25-15.99-53.79-3.53-81,6.89c-56.54,21.65-88.03,61.46-86.35,63.35c1.9,2.14,43.59-47.65,88.06-39.03
		c22.49,4.35,43.68,23.25,41.33,36.09c-1.85,10.12-17.36,11.24-37.21,21.85c-43.97,23.5-65.18,70-60.66,73.99
		c3.71,3.27,22.97-23.63,69.52-46.95c15.62-7.83,27.7-11.94,37.44-15c-2.73,18.52-4.69,37.98-6.86,53.47
		c-11.58,82.61-0.61,160.92,4.56,159.13c4.15-1.44-8.87-56.5,11.5-134.01L1366.94,258.53z"/>
	<path class="st13" d="M1270.3,937.22c49.72-106.12,29.79-333.77-5.84-453.6c-57.93-194.83-199.62-246.65-167.97-326.05
		c14.75-37,60.89-64.31,101.54-62.33c134.57,6.55,125.96,330.06,273.63,680.92c12.61,29.95,44.42,103.04,15.89,168.18
		c-25.26,57.68-83.86,77.22-92.68,80.01c-52.72,16.66-120.55,3.13-133.03-35.3c-6.79-20.9,4.61-43.61,8.46-51.82V937.22z"/>
	<path class="st14" d="M1331.58,682.37c-13.27-61.39-48.9-226.14-95.76-328.32c-37.6-81.98-82.33-123.48-78.95-132.28
		c2.47-6.44,26.49,15.65,29.41,18.35c16.43,15.23,52.45,53.67,102.82,188.42c5.32,14.24,55.57,150.6,57.1,249.44
		c0.15,9.68,0.61,39.41-3.1,40.29C1339.43,719.14,1333.53,691.38,1331.58,682.37L1331.58,682.37z"/>
	<path class="st15" d="M1437.83,66.92c-84.97-61.73-180.36-40.33-201.29-35.64c-12,2.69-22.24,5.91-31.04,9.39
		c2.14-21.92,6.39-41.29,15.44-61.08c35.34-77.26,114.99-97.98,111.34-109.36c-3.37-10.5-74.52-3.56-138.71,42.14
		c-35.48,25.26-60.95,56.74-79.13,87c12.69-58.38,50.57-103.33,44.24-107.95c-7.12-5.2-63.73,45.32-98.65,118.55
		c-0.61,1.29-1.21,2.57-1.8,3.85c-2.95,1.03-6,2.16-9.15,3.4c-20.25,8-112.53,44.45-163.35,148.03
		c-36.29,73.96-36.84,152.41-27.04,155.25c10.63,3.08,23-85.78,90.26-130.71c11.37-7.6,22.75-12.88,34.84-16.79
		c-24.35,37.38-55.78,100.51-55.24,179.79c0.56,82.11,35.19,148.51,45.26,145.56c10.91-3.2-17.78-84.82,22.44-159.34
		c14.84-27.49,34.6-45.74,61.7-66.8c0.79,1.12,1.57,2.18,2.35,3.18c-4.73,43.99-3.23,103.95,24.5,162.74
		c33.62,71.28,92.27,112.17,100.34,104.66c8.75-8.14-50.56-65.21-43.57-149.88c3.16-38.32,18.73-68.14,41.89-111.07
		c10.33-9.91,18.48-21.57,22.25-33.66c2.13-3.65,3.57-7.45,4.47-11.55c0.61-0.94,1.22-1.86,1.83-2.77
		c34.26-2.06,59.5-2.04,84.76,8.83c62.72,26.98,74.52,98.76,84.39,94.59c9.11-3.85,8.34-68.8-25.66-124.58
		c-15.59-25.58-35.29-44.51-55.4-58.53c34.47-17.8,60.45-29.27,91.58-29.04c76.66,0.57,122.06,71.62,130.23,62.75
		c7.53-8.18-23.43-76.91-84.1-120.99L1437.83,66.92z"/>
	<path class="st9" d="M1097.6,306.41c-1.08-51.03-0.75-105.83-1.5-142.28c9.51-37.38-5.6-86.81-35.45-98.43
		c-29.66-11.54-62.85,18.51-90.6,43.64c-57.67,52.22-80.59,117.16-78.04,118.88c2.89,1.95,34.2-80.25,88.04-88.19
		c27.23-4.02,57.78,11.31,59.34,28.91c1.23,13.86-16.18,21.97-35.43,44.19c-42.63,49.22-51.56,118.39-45.05,121.6
		c5.34,2.64,18.51-40.37,64.16-90.47c15.32-16.81,27.81-27.3,37.96-35.44c3.01,25.1,7.19,51.08,9.83,72.02
		c14.08,111.69,52.57,208.16,57.91,203.63c4.28-3.63-28.87-69.19-31.19-178.06H1097.6z"/>
	<path class="st16" d="M1476.84,878.75c33.07-91.72-18.39-276.2-69.8-370.87c-83.58-153.93-227.91-182.64-208.54-250.72
		c9.03-31.73,49.79-58.56,89.37-60.88c131.06-7.67,168.49,258.07,360.9,531.08c16.43,23.31,57.53,80.07,39.15,136.17
		c-16.27,49.68-70.17,71.36-78.31,74.5c-48.62,18.75-116.13,14.25-133.63-16.02c-9.52-16.46-1.71-36.15,0.85-43.26L1476.84,878.75z"
		/>
	<path class="st17" d="M1521.81,202.64c-69.7-69.32-163.24-73.29-183.77-74.16c-11.76-0.5-21.97-0.17-30.85,0.68
		c5.71-17.37,12.98-32.19,24.86-46.28c46.35-54.98,124.94-53.99,123.42-64.08c-1.4-9.3-69.66-19.61-137.89,3.2
		c-37.72,12.61-67.03,32.53-89.28,53.1c21.81-44.69,65.1-72.8,59.92-77.98c-5.83-5.83-67.73,22.61-113.01,74.41
		c-0.79,0.91-1.57,1.82-2.34,2.73c-2.96,0.18-6.02,0.41-9.2,0.72c-20.44,1.97-113.59,10.96-178.97,83.9
		c-46.69,52.09-60.44,115.84-51.68,120.35c9.5,4.89,36.15-64.69,107.15-86.19c12-3.64,23.62-5.39,35.68-5.85
		c-29.26,24.98-69.54,69.33-82.4,134.01c-13.32,66.98,8.13,128.83,18.12,128.68c10.83-0.16-2.45-73.06,48.04-124.71
		c18.63-19.06,40.33-29.49,69.44-40.55c0.56,1.09,1.12,2.13,1.68,3.12c-11.88,34.76-20.58,83.92-4.35,138.02
		c19.67,65.58,68.07,112.03,76.95,107.73c9.63-4.67-36.67-64.44-15.8-131.82c9.44-30.49,29.15-51.29,58.23-81.05
		c11.41-5.76,21.06-13.42,26.65-22.42c2.63-2.49,4.62-5.27,6.17-8.4c0.74-0.62,1.47-1.24,2.19-1.84c32.65,6,56.44,11.68,78.43,26.2
		c54.58,36.04,53.6,97.13,63.61,95.95c9.24-1.09,19.47-54.15-3.18-107.2c-10.38-24.32-25.76-44.16-42.36-60.08
		c35.5-6.76,61.93-10.27,91.24-3.1c72.18,17.66,103,85.69,112.19,80.3C1589.18,315.06,1571.58,252.15,1521.81,202.64L1521.81,202.64
		z"/>
	<path class="st18" d="M1292,303.17c-2.79-2.67-9.18-8.67-12.57-7.08c-3.73,1.76-1.89,11.81-1.23,15.36
		c7.11,38.71,63.86,89.88,62.58,142.98c-0.16,6.44-1,41.38-20.77,51.35c-3.22,1.62-7.39,2.82-9.94,5.29
		c-6.96-1.96-14.33-2.69-21.77-1.9c-32,3.43-46.37,33.03-50.42,41.37c-2.81,5.78-17.11,35.24-2.86,55.3
		c19.24,27.07,83.6,27.32,108.64-5.14c11.91-15.43,14.87-38.19,5.47-57.5c-3.53-7.24-8.69-13.78-14.98-19.18
		c1.51-2.23,3.04-4.81,4.7-7.63c8.18-13.89,10.72-26.23,11.09-28.15c7.38-37.63,4.02-65.45,4.02-65.45s-8.27-68.32-61.97-119.63
		L1292,303.17z"/>
	<path class="st18" d="M1220.69,569.17c-8.52,11.63,16.22,27.24,20.11,63.2c2.46,22.74-4.72,41.7-10.65,48.15
		c-0.68,0.74-2.59,3.05-6.41,7.67c-7.22,8.74-8.52,10.64-7.91,12.7c0.88,2.99,5.57,5.65,9.06,4.77c7.57-1.91,8.06-20.19,9.6-20.02
		c1.62,0.18-2.1,20.17,5.51,23.77c2,0.95,4.82,0.77,6.5-0.57c6.15-4.94-3.6-25.42-3.6-25.42s3.65,19.33,12.56,21.04
		c1.95,0.38,4.71,0.02,5.61-1.48c2.24-3.74-9.79-10.08-12.08-21.46c-1.24-6.14,1.01-10.56,2.96-15.98
		c3.87-10.76,4.2-20.6,4.86-40.27c0.6-17.98-2.26-56.82-19.26-61.41c-5.55-1.5-13.31,0.46-16.86,5.32V569.17z"/>
	<path class="st19" d="M1211.68,509.39c-13.4-6.4-29.83-1.27-36.7,11.46c-4.47,8.29-3.78,17.75,0.94,25.12
		c-12.82,6.99-24.35,18.3-32.22,32.88c-7.8,14.46-10.7,29.77-9.22,43.54c-11.65-2.12-23.9,3.21-29.59,13.75
		c-6.87,12.73-1.57,28.24,11.83,34.64c13.4,6.4,29.83,1.27,36.7-11.46c0.14-0.27,0.27-0.53,0.41-0.8c2.37,1.78,4.93,3.35,7.69,4.67
		c27.81,13.28,64.91-2.95,82.87-36.25s9.98-71.06-17.83-84.34c-0.65-0.31-1.31-0.59-1.96-0.86
		C1229.72,529.49,1224.28,515.41,1211.68,509.39L1211.68,509.39z"/>
	<path class="st20" d="M1238.42,548.1c-10.68-5.1-23.19-3.22-31.76,3.83c-1.3-1.1-2.75-2.05-4.35-2.82
		c-11.96-5.71-27.67,0.8-35.09,14.54c-4.55,8.44-4.91,17.63-1.75,24.8c-8.01,1.83-15.69,7.54-20.24,15.97
		c-7.41,13.75-3.73,29.52,8.24,35.24c2.12,1.01,4.36,1.63,6.65,1.91c-1.35,10.93,4.44,21.94,15.38,27.17
		c8.24,3.94,17.57,3.71,25.34,0.17c14.71-4.31,31.85-20.25,43.82-42.46c14.07-26.09,16.51-52.49,7.15-64.7
		c-2.51-5.72-7.09-10.65-13.39-13.66V548.1z"/>
	<path class="st20" d="M1211.29,534.59c3.37-6.37-5.95-20.16-15.13-19.26c-6.87,0.67-14.14,9.64-12.02,20.99
		c12.71,5.75,24.47,3.33,27.14-1.72L1211.29,534.59z"/>
	<path class="st20" d="M1127.66,634.6c-7.5,0.33-15.81,14.82-10.6,21.98c3.9,5.36,15.66,6.99,25.14-0.34
		C1141.46,642.89,1133.61,634.34,1127.66,634.6L1127.66,634.6z"/>
	
		<ellipse transform="matrix(0.9676 -0.2526 0.2526 0.9676 -112.8141 326.9436)" class="st21" cx="1217.04" cy="602.88" rx="7.45" ry="3.78"/>
	
		<ellipse transform="matrix(0.8129 -0.5824 0.5824 0.8129 -133.1752 819.8315)" class="st21" cx="1209.39" cy="617.19" rx="3.93" ry="7.17"/>
	<path class="st22" d="M1222.44,630.62c-3.33-4.01,6.11-23.03,12.35-23.46c4-0.28,8.14,6.98,5.61,14.2
		C1237.13,630.66,1224.98,633.68,1222.44,630.62z"/>
	<path class="st23" d="M1205.18,590.22c-14.93-5.93-23.02-16.39-21.2-21.93c1.98-6.02,16.92-10.07,34.64-3.04
		c-4.48,8.33-8.96,16.65-13.44,24.98L1205.18,590.22z"/>
	<path class="st24" d="M1209.86,582.2c-13.64-5.13-21.87-13.06-20.94-16.89c1.02-4.16,13.51-6.13,29.7-0.06
		C1215.7,570.9,1212.78,576.55,1209.86,582.2z"/>
	
		<ellipse transform="matrix(0.3135 -0.9496 0.9496 0.3135 284.794 1525.7474)" class="st23" cx="1197.62" cy="565.91" rx="2.51" ry="3.2"/>
	
		<ellipse transform="matrix(0.3135 -0.9496 0.9496 0.3135 289.7455 1531.2152)" class="st23" cx="1203.88" cy="565.22" rx="0.95" ry="1.21"/>
	<path class="st23" d="M1180.14,639.4c-14.93-5.93-23.02-16.39-21.2-21.93c1.98-6.02,16.92-10.07,34.64-3.04
		c-4.48,8.33-8.96,16.65-13.44,24.98L1180.14,639.4z"/>
	<path class="st24" d="M1184.82,631.38c-13.64-5.13-21.87-13.06-20.94-16.89c1.02-4.16,13.51-6.13,29.7-0.06
		C1190.66,620.08,1187.74,625.73,1184.82,631.38z"/>
	
		<ellipse transform="matrix(0.3135 -0.9496 0.9496 0.3135 220.8985 1535.7367)" class="st23" cx="1172.58" cy="615.09" rx="2.51" ry="3.2"/>
	
		<ellipse transform="matrix(0.3135 -0.9496 0.9496 0.3135 225.8431 1541.1948)" class="st23" cx="1178.83" cy="614.4" rx="0.95" ry="1.21"/>
	<path class="st21" d="M1176.49,578.82c-0.77-0.12-5.79-11.14,0.46-18.01c3.81-4.19,10.56-5.46,11.17-4.88
		c0.64,0.6-5.78,2.85-9.38,9.04C1174.68,571.95,1177.1,578.92,1176.49,578.82L1176.49,578.82z"/>
	<path class="st21" d="M1151.36,627.71c-0.77-0.12-5.79-11.14,0.46-18.01c3.81-4.19,10.56-5.46,11.17-4.88
		c0.64,0.6-5.78,2.85-9.38,9.04C1149.55,620.84,1151.97,627.81,1151.36,627.71L1151.36,627.71z"/>
	<path class="st25" d="M1270.13,624.15c-6.59-5.47-2.1-17.7,2.5-24.62c16.85-25.38,70.65-33.01,79.09-21.99
		c3.84,5.01-2.51,13.28-4.59,17.62c-13.02,27.19-64.91,39.04-77,29V624.15z"/>
	<path class="st18" d="M1311.22,562.04c-3.94,16.39-1.21,40.93,13.75,48.59c8.2,4.2,15.76,1.11,19.33,6.62
		c3.62,5.59,0.48,10.59,0.8,18.68c0.35,8.87,13.22,14.77,16.68,10.03c9.08-12.47,9.39-31.82,9.97-51.62
		c0.37-12.63-28.14,0.83-33.18-7.06c-4.68-7.31,9.79-17.23,5.7-30.64c-2.65-8.7-12.42-16.57-20.02-15.11
		C1315.76,543.17,1312.69,555.92,1311.22,562.04L1311.22,562.04z"/>
	<path class="st18" d="M1270.26,578.53c-12.07,8.39,5.95,30.72-2.77,65.92c-5.52,22.26-18.85,38-26.68,42.29
		c-0.89,0.49-3.5,2.09-8.7,5.3c-9.84,6.06-11.73,7.46-11.86,9.6c-0.2,3.1,3.32,7.05,6.92,7.28c7.82,0.5,14.59-16.64,15.98-16.01
		c1.47,0.67-8.94,18.44-2.98,24.17c1.57,1.51,4.3,2.21,6.34,1.44c7.52-2.8,5.36-25.14,5.36-25.14s-3.21,19.4,4.62,23.74
		c1.71,0.95,4.45,1.46,5.82,0.31c3.41-2.85-5.79-12.52-4.03-23.99c0.95-6.19,4.6-9.68,8.31-14.21c7.37-9,11.08-18.2,18.49-36.61
		c6.77-16.82,17.46-54.43,2.97-63.97C1283.32,575.53,1275.3,575.03,1270.26,578.53L1270.26,578.53z"/>
	<path class="st17" d="M1149.57,279.18c5.65-9.74,18.55-32.01,43.41-37.65c35.91-8.15,78.17,22.65,77.46,45.66
		c-0.39,12.64-13.46,13.35-43.41,48.06c-17.67,20.48-18.93,26.96-28.94,29.64c-20.53,5.49-50.77-12.26-58.73-36.85
		C1132.87,307.99,1143.33,289.95,1149.57,279.18z"/>
	<path class="st9" d="M1162.34,106.16c-26.01-16.05-62.37,0.98-92.78,15.22c-63.18,29.59-95.74,77.33-93.63,79.3
		c2.4,2.24,45.78-57.67,97.88-52.07c26.35,2.84,52.57,22.17,51.07,36.85c-1.18,11.56-18.96,14.26-40.86,28.04
		c-48.49,30.52-68.58,84.84-62.99,88.91c4.59,3.34,24.26-28.72,75.75-59.28c46.04-27.32,65.57-22.6,80.01-44.86
		c18.17-28.01,12.98-75.18-14.47-92.12L1162.34,106.16z"/>
	<path class="st9" d="M1182.72,159.33c-46.78-40.88-43.59,66.04-47.03,124.31c-5.57,94.1,14.46,181.29,20.26,178.8
		c4.65-2-15.55-62.82,0.63-151.99c12.65-69.69,30.8-147.06,26.15-151.12L1182.72,159.33z"/>
	<path class="st26" d="M1275.44,273.51c-32.05-8.88-67.98,22.41-75.98,56.44c-8.78,37.31,14.87,82.73,47.51,87.02
		c33.87,4.45,67.06-36.74,68.46-75.07C1316.37,316.16,1303.37,281.24,1275.44,273.51z"/>
	
		<ellipse transform="matrix(0.7982 -0.6024 0.6024 0.7982 78.8361 833.9415)" class="st27" cx="1284.17" cy="299.3" rx="3.99" ry="12.28"/>
	
		<ellipse transform="matrix(0.3946 -0.9189 0.9189 0.3946 484.57 1346.6432)" class="st27" cx="1264.21" cy="305.6" rx="12.24" ry="4"/>
	
		<ellipse transform="matrix(0.9581 -0.2865 0.2865 0.9581 -31.1051 370.7259)" class="st27" cx="1251.19" cy="291.65" rx="12.3" ry="3.98"/>
	<path class="st28" d="M1223.97,297.47c-5.16,5.68-23,26.65-20.77,54.82c2.07,26.25,20.67,47.39,24.01,45.85
		c2.68-1.24-4.96-16.89-7.52-42.63C1217.31,331.6,1220.56,311.42,1223.97,297.47L1223.97,297.47z"/>
	<path class="st26" d="M1300.79,267.35c23.84-23.19,70.38-13.02,93.76,12.97c25.63,28.5,26.72,79.69,0.16,99.15
		c-27.56,20.19-76.47,0.01-96.12-32.92C1285.39,324.43,1280.01,287.56,1300.79,267.35L1300.79,267.35z"/>
	
		<ellipse transform="matrix(0.1445 -0.9895 0.9895 0.1445 825.7522 1543.501)" class="st27" cx="1305.54" cy="294.19" rx="12.28" ry="3.99"/>
	
		<ellipse transform="matrix(0.6161 -0.7877 0.7877 0.6161 280.6394 1155.8604)" class="st27" cx="1326.04" cy="290.04" rx="4" ry="12.24"/>
	
		<ellipse transform="matrix(0.9779 -0.2093 0.2093 0.9779 -27.3507 284.5088)" class="st27" cx="1330.76" cy="271.5" rx="12.3" ry="3.98"/>
	<path class="st28" d="M1299.37,298.65c-0.63,7.65-1.98,35.15,16.96,56.12c17.65,19.54,45.28,24.96,46.99,21.71
		c1.37-2.62-14.23-10.36-31.95-29.2c-16.46-17.5-26.19-35.48-31.99-48.62L1299.37,298.65z"/>
	<path class="st29" d="M1303.41,774.09c28.35-30.38,83.7-17.06,111.5,16.99c30.48,37.33,31.78,104.39,0.19,129.88
		c-32.78,26.44-90.94,0.01-114.31-43.12c-15.7-28.97-22.09-77.27,2.61-103.74L1303.41,774.09z"/>
	<path class="st28" d="M1298.74,808.67c-1.62,9.09-6.28,41.94,15.63,71.09c20.41,27.16,55.06,39.36,57.59,35.79
		c2.03-2.87-17.04-15.4-37.62-41.74c-19.12-24.46-29.6-48.12-35.6-65.15V808.67z"/>
	
		<ellipse transform="matrix(0.1288 -0.9917 0.9917 0.1288 337.9228 2003.1337)" class="st27" cx="1309.02" cy="809.24" rx="16.06" ry="4.75"/>
	
		<ellipse transform="matrix(0.6616 -0.7499 0.7499 0.6616 -151.5397 1272.0135)" class="st27" cx="1333.48" cy="803.9" rx="5.04" ry="15.15"/>
	
		<ellipse transform="matrix(0.972 -0.235 0.235 0.972 -145.6724 336.4714)" class="st27" cx="1339.08" cy="779.51" rx="14.69" ry="5.19"/>
	<path class="st13" d="M1553.89,862.23c-18.1-63.65-66.67-234.46-125.09-340.66c-46.87-85.2-99.96-128.59-96.52-137.66
		c2.52-6.64,31.01,16.46,34.47,19.29c19.5,15.93,62.49,56.06,126.46,195.99c6.76,14.79,70.68,156.38,77.15,258.65
		c0.63,10.02,2.58,40.78-1.61,41.65c-4.15,0.87-12.21-27.91-14.87-37.26H1553.89z"/>
	<path class="st26" d="M1519.16,737.29c-37.62-16.49-87.1,15.04-102.93,54.9c-17.35,43.7,3.53,103.02,42.68,114.06
		c40.63,11.45,88.52-32.6,97.03-78.84c5.71-31.06-4-75.74-36.79-90.12L1519.16,737.29z"/>
	
		<ellipse transform="matrix(0.8746 -0.4848 0.4848 0.8746 -182.1574 836.0379)" class="st27" cx="1525.28" cy="770.19" rx="4.91" ry="15.1"/>
	
		<ellipse transform="matrix(0.5264 -0.8503 0.8503 0.5264 51.9945 1641.9563)" class="st27" cx="1499.79" cy="774.31" rx="15.03" ry="4.94"/>
	
		<ellipse transform="matrix(0.9898 -0.1425 0.1425 0.9898 -92.3739 219.4347)" class="st27" cx="1486.32" cy="754.85" rx="15.19" ry="4.89"/>
	<path class="st28" d="M1451.97,757.17c-7.32,5.97-32.85,28.23-35.12,62.8c-2.11,32.22,16.88,61.19,21.24,59.92
		c3.5-1.02-3.08-21.38-1.65-53.06c1.33-29.43,8.88-53.33,15.52-69.66L1451.97,757.17z"/>
	<path class="st10" d="M223.56,739.61c-61.21-61.82-91.78-227.88-87.87-321.93c6.37-152.92,108.56-226.95,67.17-274.67
		c-19.28-22.24-61.58-29.34-93.52-17.2C3.58,165.98,76.41,392.21,30.46,679.04c-3.92,24.49-14.33,84.51,21.65,122.99
		c31.87,34.07,82.49,32.39,90.08,32.03c45.35-2.16,96.58-29.63,98.67-60.08C242,757.42,228.3,744.4,223.56,739.61L223.56,739.61z"/>
	<path class="st11" d="M122.81,575.79c-1.96-46.87-7.21-172.65,9.25-257.2c13.2-67.83,40.34-108.96,35.85-114.29
		c-3.28-3.9-17.89,18.05-19.66,20.73c-9.97,15.1-30.8,51.76-43.4,160.25c-1.33,11.47-13.51,121.05,5.43,191.27
		c1.86,6.88,7.55,28,10.68,27.64c3.1-0.35,2.13-21.52,1.84-28.4H122.81z"/>
	<path class="st12" d="M-87.28,169.14C-32.24,103.1,48.03,93.01,65.65,90.8c10.1-1.27,18.9-1.7,26.62-1.57
		c-6.17-14.92-13.5-27.48-24.74-39.07C23.64,4.93-43.98,11.34-43.39,2.33c0.54-8.31,58.58-22.2,118.99-6.88
		c33.39,8.47,60.08,23.98,80.72,40.55C134.31-1.88,95-23.62,99.09-28.56c4.6-5.55,59.96,15.17,102.69,57.67
		c0.75,0.75,1.48,1.49,2.22,2.24c2.56-0.05,5.21-0.06,7.97-0.01c17.74,0.3,98.62,1.67,160.19,61.41
		c43.97,42.66,60.4,97.92,53.18,102.51c-7.83,4.98-35.8-54.51-98.49-68.48c-10.6-2.36-20.73-3.09-31.15-2.65
		c27,19.97,64.89,56.25,80.63,112.4c16.3,58.14,2.28,114.2-6.33,114.77c-9.34,0.62-3.15-64.61-50.36-106.62
		c-17.42-15.5-36.86-23.17-62.73-30.88c-0.4,1-0.81,1.96-1.22,2.87c12.74,29.82,23.77,72.57,13.69,121.42
		c-12.22,59.23-50.55,103.6-58.51,100.43c-8.63-3.44,26.94-59.41,4.11-117.37c-10.33-26.23-28.81-43.18-55.99-67.38
		c-10.25-4.27-19.11-10.36-24.57-17.9c-2.44-2.01-4.36-4.32-5.92-6.98c-0.68-0.5-1.35-0.99-2.02-1.47
		c-27.68,7.59-47.76,14.28-65.66,28.63c-44.41,35.63-39.16,89.44-47.87,89.1c-8.03-0.31-20.67-46.39-4.99-94.77
		c7.19-22.18,19.01-40.76,32.15-55.97c-31.07-3.46-54.08-4.7-78.81,3.68c-60.89,20.65-82.54,82.83-90.84,78.72
		C-137.2,273.02-126.58,216.3-87.28,169.14L-87.28,169.14z"/>
	<path class="st9" d="M232.34,248.43c-9.55-36.33-20.99-74.95-27.83-100.89c-15.2-23.89-13.25-62.8,8.14-78.89
		c21.25-15.99,53.79-3.53,81,6.89C350.19,97.19,381.68,137,380,138.89c-1.9,2.14-43.59-47.65-88.06-39.03
		c-22.49,4.35-43.68,23.25-41.33,36.09c1.85,10.12,17.36,11.24,37.21,21.85c43.97,23.5,65.18,70,60.66,73.99
		c-3.71,3.27-22.97-23.63-69.52-46.95c-15.62-7.83-27.7-11.94-37.44-15c2.73,18.52,4.69,37.98,6.86,53.47
		c11.58,82.61,0.61,160.92-4.56,159.13c-4.15-1.44,8.87-56.5-11.5-134.01L232.34,248.43z"/>
	<path class="st30" d="M200.78,52.27c11.95,25.64,4.35,8.11,12.11,33.42c9.01,29.4-6.9,38.81-6.9,38.81
		c-22.48,12.21-66.71,57.82-98.17,74.93C40.7,235.94,34,301.99,30.14,299.92c-4.81-2.59,1.96-80.77,66.47-127.07
		c12.09-8.68,29.56-19.31,44.12-29.6c-8.85-5.07-26.27-17.26,0.12,0.12c43.39,28.56-166.12,24.24-166.46,19.36
		c-0.41-5.94,95.57-28.91,134.82-56.99c42.31-30.28,10.78-28.81-41.19-85.04c-8.71-9.43,124.11,52.15,111.49,32.86
		c-24.96-38.13-35.25-49.06-35.1-51.87c0.13-2.48,30.79-4.33,56.38,50.58H200.78z"/>
	<path class="st16" d="M353.98,936.12c-49.72-106.12-29.79-333.77,5.84-453.6c57.93-194.83,199.62-246.65,167.97-326.05
		c-14.75-37-60.89-64.31-101.54-62.33c-134.57,6.55-125.96,330.06-273.63,680.92c-12.61,29.95-44.42,103.04-15.89,168.18
		c25.26,57.68,83.86,77.22,92.68,80.01c52.72,16.66,120.55,3.13,133.03-35.3c6.79-20.9-4.61-43.61-8.46-51.82L353.98,936.12z"/>
	<path class="st14" d="M292.7,681.27c13.27-61.39,48.9-226.14,95.76-328.32c37.6-81.98,82.33-123.48,78.95-132.28
		c-2.47-6.44-26.49,15.65-29.41,18.35c-16.43,15.23-52.45,53.67-102.82,188.42c-5.32,14.24-55.57,150.6-57.1,249.44
		c-0.15,9.68-0.61,39.41,3.1,40.29C284.85,718.04,290.75,690.28,292.7,681.27L292.7,681.27z"/>
	<path class="st14" d="M56.7,794.27c13.27-61.39,48.9-226.14,95.76-328.32c37.6-81.98,82.33-123.48,78.95-132.28
		c-2.47-6.44-26.49,15.65-29.41,18.35c-16.43,15.23-52.45,53.67-102.82,188.42c-5.32,14.24-55.57,150.6-57.1,249.44
		c-0.15,9.68-0.61,39.41,3.1,40.29C48.85,831.04,54.75,803.28,56.7,794.27L56.7,794.27z"/>
	<path class="st15" d="M186.45,65.82c84.97-61.73,180.36-40.34,201.29-35.64c12,2.69,22.24,5.91,31.04,9.39
		c-2.14-21.92-6.39-41.29-15.44-61.08C368-98.77,288.35-119.49,292-130.87c3.37-10.5,74.52-3.56,138.71,42.14
		c35.48,25.26,60.95,56.74,79.13,87c-12.69-58.38-50.57-103.33-44.24-107.95c7.12-5.2,63.73,45.32,98.65,118.55
		c0.61,1.29,1.21,2.57,1.8,3.85c2.95,1.03,6,2.16,9.15,3.4c20.25,8,112.53,44.45,163.35,148.03
		c36.29,73.96,36.84,152.41,27.04,155.25c-10.63,3.08-23-85.78-90.26-130.71c-11.37-7.6-22.75-12.88-34.84-16.79
		c24.35,37.38,55.78,100.51,55.24,179.79c-0.56,82.11-35.19,148.51-45.26,145.56c-10.91-3.2,17.78-84.82-22.44-159.34
		c-14.84-27.49-34.6-45.74-61.7-66.8c-0.79,1.12-1.57,2.18-2.35,3.18c4.73,43.99,3.23,103.95-24.5,162.74
		c-33.62,71.28-92.27,112.17-100.34,104.66c-8.75-8.14,50.56-65.21,43.57-149.88c-3.16-38.32-18.73-68.14-41.89-111.07
		c-10.33-9.91-18.48-21.57-22.25-33.66c-2.13-3.65-3.57-7.45-4.47-11.55c-0.61-0.94-1.22-1.86-1.83-2.77
		c-34.26-2.06-59.5-2.04-84.76,8.83c-62.72,26.98-74.52,98.76-84.39,94.59c-9.11-3.85-8.34-68.8,25.66-124.58
		c15.59-25.58,35.29-44.51,55.4-58.53c-34.47-17.8-60.45-29.27-91.58-29.04c-76.66,0.57-122.06,71.62-130.23,62.75
		c-7.53-8.18,23.43-76.91,84.1-120.99L186.45,65.82z"/>
	<path class="st9" d="M562.37,40.29c4.87,32.21,2.19,10.36,2.44,40.93c0.28,35.51-20.91,41.17-20.91,41.17
		c-29.57,6.78-95.04,44.2-136.44,53.72c-88.32,20.32-118.19,91.91-121.86,88.42c-4.58-4.34,29.47-89.44,118.13-121.45
		c16.62-6,39.99-12.55,59.94-19.6c-8.31-8.34-23.93-27.21,0.1,0.17c39.49,45-196.27-23.41-195.01-28.95
		c1.54-6.75,117.97-3.21,171.89-22.6c58.13-20.91,21.93-28.84-17.95-107.29c-6.69-13.15,122.94,95.8,115.15,70.47
		c-15.41-50.09-23.37-65.39-22.26-68.48C516.57-35.92,551.92-28.68,562.37,40.29L562.37,40.29z"/>
	<path class="st13" d="M147.44,877.65c-33.07-91.72,18.39-276.2,69.8-370.87c83.58-153.93,227.91-182.64,208.54-250.72
		c-9.03-31.73-49.79-58.56-89.37-60.88c-131.06-7.67-168.49,258.07-360.9,531.08c-16.43,23.31-57.53,80.07-39.15,136.17
		c16.27,49.68,70.17,71.36,78.31,74.5c48.62,18.75,116.13,14.25,133.63-16.02c9.52-16.46,1.71-36.15-0.85-43.26L147.44,877.65z"/>
	<path class="st18" d="M197.28,133.08c2.79-2.67,9.18-8.67,12.57-7.08c3.73,1.76,1.89,11.81,1.23,15.36
		c-7.11,38.71-63.86,89.88-62.58,142.98c0.16,6.44,1,41.38,20.77,51.35c3.22,1.62,7.39,2.82,9.94,5.29
		c6.96-1.96,14.33-2.69,21.77-1.9c32,3.43,46.37,33.03,50.42,41.37c2.81,5.78,17.11,35.24,2.86,55.3
		c-19.24,27.07-83.6,27.32-108.64-5.14c-11.91-15.43-14.87-38.19-5.47-57.5c3.53-7.24,8.69-13.78,14.98-19.18
		c-1.51-2.23-3.04-4.81-4.7-7.63c-8.18-13.89-10.72-26.23-11.09-28.15c-7.38-37.63-4.02-65.45-4.02-65.45s8.27-68.32,61.97-119.63
		L197.28,133.08z"/>
	<path class="st18" d="M268.6,399.07c8.52,11.63-16.22,27.24-20.11,63.2c-2.46,22.74,4.72,41.7,10.65,48.15
		c0.68,0.74,2.59,3.05,6.41,7.67c7.22,8.74,8.52,10.64,7.91,12.7c-0.88,2.99-5.57,5.65-9.06,4.77c-7.57-1.91-8.06-20.19-9.6-20.02
		c-1.62,0.18,2.1,20.17-5.51,23.77c-2,0.95-4.82,0.77-6.5-0.57c-6.15-4.94,3.6-25.42,3.6-25.42s-3.65,19.33-12.56,21.04
		c-1.95,0.38-4.71,0.02-5.61-1.48c-2.24-3.74,9.79-10.08,12.08-21.46c1.24-6.14-1.01-10.56-2.96-15.98
		c-3.87-10.76-4.2-20.6-4.86-40.27c-0.6-17.98,2.26-56.82,19.26-61.41c5.55-1.5,13.31,0.46,16.86,5.32L268.6,399.07z"/>
	<path class="st19" d="M277.6,339.3c13.4-6.4,29.83-1.27,36.7,11.46c4.47,8.29,3.78,17.75-0.94,25.12
		c12.82,6.99,24.35,18.3,32.22,32.88c7.8,14.46,10.7,29.77,9.22,43.54c11.65-2.12,23.9,3.21,29.59,13.75
		c6.87,12.73,1.57,28.24-11.83,34.64c-13.4,6.4-29.83,1.27-36.7-11.46c-0.14-0.27-0.27-0.53-0.41-0.8
		c-2.37,1.78-4.93,3.35-7.69,4.67c-27.81,13.28-64.91-2.95-82.87-36.25s-9.98-71.06,17.83-84.34c0.65-0.31,1.31-0.59,1.96-0.86
		C259.56,359.4,265,345.32,277.6,339.3L277.6,339.3z"/>
	<path class="st20" d="M248.82,379.43c10.49-5.49,23.06-4.06,31.88,2.67c1.26-1.14,2.67-2.15,4.25-2.97
		c11.75-6.15,27.68-0.21,35.59,13.25c4.85,8.26,5.55,17.44,2.66,24.72c8.08,1.54,15.95,6.96,20.81,15.22
		c7.91,13.47,4.8,29.37-6.95,35.52c-2.08,1.09-4.3,1.79-6.58,2.15c1.75,10.87-3.64,22.09-14.38,27.71
		c-8.09,4.23-17.42,4.35-25.31,1.1c-14.85-3.78-32.56-19.08-45.34-40.83c-15.02-25.56-18.41-51.85-9.5-64.4
		c2.3-5.81,6.7-10.9,12.89-14.14L248.82,379.43z"/>
	<path class="st20" d="M278,364.49c-3.37-6.37,5.95-20.16,15.13-19.26c6.87,0.67,14.14,9.64,12.02,20.99
		c-12.71,5.75-24.47,3.33-27.14-1.72L278,364.49z"/>
	<path class="st20" d="M361.62,464.51c7.5,0.33,15.81,14.82,10.6,21.98c-3.9,5.36-15.66,6.99-25.14-0.34
		C347.82,472.8,355.67,464.25,361.62,464.51L361.62,464.51z"/>
	
		<ellipse transform="matrix(0.2526 -0.9676 0.9676 0.2526 -215.1992 586.7963)" class="st21" cx="272.22" cy="432.69" rx="3.78" ry="7.45"/>
	
		<ellipse transform="matrix(0.5824 -0.8129 0.8129 0.5824 -246.4194 414.1896)" class="st21" cx="279.93" cy="446.94" rx="7.17" ry="3.93"/>
	<path class="st22" d="M266.84,460.53c3.33-4.01-6.11-23.03-12.35-23.46c-4-0.28-8.14,6.98-5.61,14.2
		C252.15,460.57,264.3,463.59,266.84,460.53L266.84,460.53z"/>
	<path class="st23" d="M284.1,420.12c14.93-5.93,23.02-16.39,21.2-21.93c-1.98-6.02-16.92-10.07-34.64-3.04
		c4.48,8.33,8.96,16.65,13.44,24.98L284.1,420.12z"/>
	<path class="st24" d="M279.42,412.1c13.64-5.13,21.87-13.06,20.94-16.89c-1.02-4.16-13.51-6.13-29.7-0.06
		C273.58,400.8,276.5,406.45,279.42,412.1L279.42,412.1z"/>
	
		<ellipse transform="matrix(0.9496 -0.3135 0.3135 0.9496 -109.3477 111.4092)" class="st23" cx="291.75" cy="395.71" rx="3.2" ry="2.51"/>
	
		<ellipse transform="matrix(0.9496 -0.3135 0.3135 0.9496 -109.4446 109.4144)" class="st23" cx="285.5" cy="395.02" rx="1.21" ry="0.95"/>
	<path class="st23" d="M309.14,469.31c14.93-5.93,23.02-16.39,21.2-21.93c-1.98-6.02-16.92-10.07-34.64-3.04
		c4.48,8.33,8.96,16.65,13.44,24.98V469.31z"/>
	<path class="st24" d="M304.46,461.28c13.64-5.13,21.87-13.06,20.94-16.89c-1.02-4.16-13.51-6.13-29.7-0.06
		C298.62,449.98,301.54,455.63,304.46,461.28L304.46,461.28z"/>
	
		<ellipse transform="matrix(0.9496 -0.3135 0.3135 0.9496 -123.5 121.7396)" class="st23" cx="316.79" cy="444.89" rx="3.2" ry="2.51"/>
	
		<ellipse transform="matrix(0.9496 -0.3135 0.3135 0.9496 -123.6001 119.7452)" class="st23" cx="310.54" cy="444.2" rx="1.21" ry="0.95"/>
	<path class="st21" d="M312.79,408.72c0.77-0.12,5.79-11.14-0.46-18.01c-3.81-4.19-10.56-5.46-11.17-4.88
		c-0.64,0.6,5.78,2.85,9.38,9.04C314.6,401.85,312.18,408.82,312.79,408.72L312.79,408.72z"/>
	<path class="st21" d="M337.92,457.61c0.77-0.12,5.79-11.14-0.46-18.01c-3.81-4.19-10.56-5.46-11.17-4.88
		c-0.64,0.6,5.78,2.85,9.38,9.04C339.73,450.74,337.31,457.71,337.92,457.61L337.92,457.61z"/>
	<path class="st25" d="M219.15,454.06c6.59-5.47,2.1-17.7-2.5-24.62c-16.85-25.38-70.65-33.01-79.09-21.99
		c-3.84,5.01,2.51,13.28,4.59,17.62c13.02,27.19,64.91,39.04,77,29V454.06z"/>
	<path class="st18" d="M178.06,391.94c3.94,16.39,1.21,40.93-13.75,48.59c-8.2,4.2-15.76,1.11-19.33,6.62
		c-3.62,5.59-0.48,10.59-0.8,18.68c-0.35,8.87-13.22,14.77-16.68,10.03c-9.08-12.47-9.39-31.82-9.97-51.62
		c-0.37-12.63,28.14,0.83,33.18-7.06c4.68-7.31-9.79-17.23-5.7-30.64c2.65-8.7,12.42-16.57,20.02-15.11
		C173.52,373.07,176.59,385.82,178.06,391.94z"/>
	<path class="st18" d="M219.02,408.43c12.07,8.39-5.95,30.72,2.77,65.92c5.52,22.26,18.85,38,26.68,42.29
		c0.89,0.49,3.5,2.09,8.7,5.3c9.84,6.06,11.73,7.46,11.86,9.6c0.2,3.1-3.32,7.05-6.92,7.28c-7.82,0.5-14.59-16.64-15.98-16.01
		c-1.47,0.67,8.94,18.44,2.98,24.17c-1.57,1.51-4.3,2.21-6.34,1.44c-7.52-2.8-5.36-25.14-5.36-25.14s3.21,19.4-4.62,23.74
		c-1.71,0.95-4.45,1.46-5.82,0.31c-3.41-2.85,5.79-12.52,4.03-23.99c-0.95-6.19-4.6-9.68-8.31-14.21c-7.37-9-11.08-18.2-18.49-36.61
		c-6.77-16.82-17.46-54.43-2.97-63.97C205.96,405.43,213.98,404.93,219.02,408.43L219.02,408.43z"/>
	<path class="st17" d="M102.48,201.54c69.7-69.32,163.24-73.29,183.77-74.16c11.76-0.5,21.97-0.17,30.85,0.68
		c-5.71-17.37-12.98-32.19-24.86-46.28C245.89,26.8,167.3,27.79,168.82,17.7c1.4-9.3,69.66-19.61,137.89,3.2
		c37.72,12.61,67.03,32.53,89.28,53.1c-21.82-44.69-65.11-72.79-59.93-77.98c5.83-5.83,67.73,22.61,113.01,74.41
		c0.79,0.91,1.57,1.82,2.34,2.73c2.96,0.18,6.02,0.41,9.2,0.72c20.44,1.97,113.59,10.96,178.97,83.9
		c46.69,52.09,60.44,115.84,51.68,120.35c-9.5,4.89-36.15-64.69-107.15-86.19c-12-3.64-23.62-5.39-35.68-5.85
		c29.26,24.98,69.54,69.33,82.4,134.01c13.32,66.98-8.13,128.83-18.12,128.68c-10.83-0.16,2.45-73.06-48.04-124.71
		c-18.63-19.06-40.33-29.49-69.44-40.55c-0.56,1.09-1.12,2.13-1.68,3.12c11.88,34.76,20.58,83.92,4.35,138.02
		c-19.67,65.58-68.07,112.03-76.95,107.73c-9.63-4.67,36.67-64.44,15.8-131.82c-9.44-30.49-29.15-51.29-58.23-81.05
		c-11.41-5.76-21.06-13.42-26.65-22.42c-2.63-2.49-4.62-5.27-6.17-8.4c-0.74-0.62-1.47-1.24-2.19-1.84
		c-32.65,6-56.44,11.68-78.43,26.2c-54.58,36.04-53.6,97.13-63.61,95.95c-9.24-1.09-19.47-54.15,3.18-107.2
		c10.38-24.32,25.76-44.16,42.36-60.08c-35.5-6.76-61.93-10.27-91.24-3.1c-72.18,17.66-103,85.69-112.19,80.3
		C35.1,313.96,52.7,251.05,102.48,201.54L102.48,201.54z"/>
	<path class="st17" d="M474.72,278.08c-5.65-9.74-18.55-32.01-43.41-37.65c-35.91-8.15-78.17,22.65-77.46,45.66
		c0.39,12.64,13.46,13.35,43.41,48.06c17.67,20.48,18.93,26.96,28.94,29.64c20.53,5.49,50.77-12.26,58.73-36.85
		C491.42,306.89,480.96,288.85,474.72,278.08L474.72,278.08z"/>
	<path class="st9" d="M440.65,95.21c10,31,3.84,9.87,9,40c6,35-14,44-14,44c-28.09,11.46-86.68,58.93-126,75
		c-83.9,34.28-101.84,109.75-106.02,106.9c-5.22-3.55,14.68-93.02,97.02-138.9c15.44-8.6,37.45-18.83,56-29
		c-9.55-6.89-28-23,0.13,0.15c46.23,38.05-197.48,8.52-197.13,2.85c0.43-6.91,115.91-22.17,166-50c54-30,17-32-35-103
		c-8.72-11.9,136.77,74.74,125,51c-23.28-46.95-33.6-60.78-33-64C383.18,27.37,419.23,28.82,440.65,95.21z"/>
	<path class="st26" d="M323.84,263.41c32.05-8.88,67.98,22.41,75.98,56.44c8.78,37.31-14.87,82.73-47.51,87.02
		c-33.87,4.45-67.06-36.74-68.46-75.07C282.91,306.06,295.91,271.14,323.84,263.41L323.84,263.41z"/>
	
		<ellipse transform="matrix(0.6024 -0.7982 0.7982 0.6024 -105.5921 366.535)" class="st27" cx="315.1" cy="289.25" rx="12.28" ry="3.99"/>
	
		<ellipse transform="matrix(0.9189 -0.3946 0.3946 0.9189 -89.4061 156.1917)" class="st27" cx="335.08" cy="295.49" rx="4" ry="12.24"/>
	
		<ellipse transform="matrix(0.2865 -0.9581 0.9581 0.2865 -21.3649 534.3442)" class="st27" cx="348.08" cy="281.52" rx="3.98" ry="12.3"/>
	<path class="st28" d="M375.32,287.37c5.16,5.68,23,26.65,20.77,54.82c-2.07,26.25-20.67,47.39-24.01,45.85
		c-2.68-1.24,4.96-16.89,7.52-42.63C381.98,321.5,378.73,301.32,375.32,287.37L375.32,287.37z"/>
	<path class="st26" d="M170.87,772c-28.35-30.38-83.7-17.06-111.5,16.99c-30.48,37.33-31.78,104.39-0.19,129.88
		c32.78,26.44,90.94,0.01,114.31-43.12c15.7-28.97,22.09-77.27-2.61-103.74L170.87,772z"/>
	<path class="st28" d="M175.55,806.57c1.62,9.09,6.28,41.94-15.63,71.09c-20.41,27.16-55.06,39.36-57.59,35.79
		c-2.03-2.87,17.04-15.4,37.62-41.74c19.12-24.46,29.6-48.12,35.6-65.15L175.55,806.57z"/>
	
		<ellipse transform="matrix(0.9917 -0.1288 0.1288 0.9917 -102.5847 28.0016)" class="st27" cx="165.21" cy="807.18" rx="4.75" ry="16.06"/>
	
		<ellipse transform="matrix(0.7499 -0.6616 0.6616 0.7499 -495.1982 293.6981)" class="st27" cx="140.82" cy="801.76" rx="15.15" ry="5.04"/>
	
		<ellipse transform="matrix(0.235 -0.972 0.972 0.235 -652.3542 726.3232)" class="st27" cx="135.24" cy="777.58" rx="5.19" ry="14.69"/>
	<path class="st14" d="M1.71,868.88c16.02-57.51,59-211.84,112.72-307.93c43.1-77.09,44.08-68.12,47.96-77.07
		c6.8-15.68,9.76-30.11,8.97-30.02c-21.82,2.5-58.63,50.89-116.98,177.44c-6.17,13.38-64.42,141.43-68.54,233.71
		c-0.4,9.04-1.64,36.8,2.39,37.57c3.99,0.76,11.11-25.24,13.47-33.69L1.71,868.88z"/>
</g>
<g id="Layer_2_00000021082290187838264750000015676718864862268588_">
	<path class="st31" d="M248,123h1152c6.63,0,12,5.37,12,12v629c0,6.63-5.37,12-12,12H248c-6.63,0-12-5.37-12-12V135
		C236,128.37,241.37,123,248,123z"/>
	<path class="st32" d="M1039.41,182.2c-447.55,13.66-749.64-87.48-766.27,18.91C258,298,304,336,288.24,577.66
		c-6.56,100.56-40.62,146.63,7.55,158.19c66.41,15.94,190.28-56.43,562.43-233.84c380.46-181.37,528.71-238.12,486.94-280.27
		c-13.09-13.2-37.17-47.75-305.75-39.55L1039.41,182.2z"/>
	<g>
		<path class="st33" d="M633,203.79c-2.38-0.36-10.94-1.66-18.65,3.04c-12.94,7.88-7.5,22.88-20.15,51.69
			c-7.78,17.72-14.93,23.66-11.94,33.45c1.94,6.36,7.56,12.39,14.92,14.44c5.52,1.54,14.3,1.48,18.65-3.8
			c6.33-7.69-3.21-18.55,2.24-26.61c6.59-9.73,30.84-9.13,36.56,0.76c5.17,8.94-6.87,21.86-2.24,26.61
			c3.91,4.01,18.04,0.52,24.62-8.36c16.71-22.53-10.46-86.12-44.02-91.22L633,203.79z M647.92,247.88
			c-4.98,6.96-18.43,6.31-23.13-1.52c-3.03-5.05-2.42-13.07,2.98-17.48c4.97-4.06,11.92-3.36,16.42,0
			C650.23,233.39,651.71,242.59,647.92,247.88L647.92,247.88z"/>
		<path class="st33" d="M621.59,162.09c-5.2,3.91-8.89,12.17-6.41,19.98c2.7,8.52,11.43,12.36,18.43,11.29
			c10.11-1.54,17.66-13.5,15.23-22.58C646.06,160.39,630.65,155.29,621.59,162.09L621.59,162.09z"/>
		<path class="st33" d="M687.87,201.13c-5.91,8.56,4.04,17.87,7.11,43.39c3.92,32.56-8.64,47.69,1.42,59.37
			c7.13,8.28,21.26,9.79,25.6,4.57c6.05-7.29-9.63-24.48-2.84-35.78c5-8.33,20.32-10.29,24.89-4.57
			c6.13,7.67-10.25,25.14-3.56,35.78c4.65,7.39,18.98,9.15,24.89,3.04c6.72-6.94-2.28-19.07-4.27-46.43
			c-2.47-33.96,8.84-50.33-0.71-59.37c-6.48-6.13-19-5.53-22.76,0c-6.05,8.89,12.54,27.57,6.4,36.54c-3.82,5.58-16.17,5.9-21.34,0
			c-7.92-9.05,6.19-26.9-1.42-37.3c-6.61-9.04-26.89-8.71-33.43,0.76L687.87,201.13z"/>
		<path class="st33" d="M837.67,300.36c-17.32-22.94-19.56-99.19-6.04-103.66c13.53-4.47,37.28,62.93,44.26,58.63
			c5.87-3.61-11.68-50.78,1.34-63.73c4.87-4.84,13.96-5.19,16.77-0.85c15.93,24.64,18.33,90.06,7.38,110.46
			c-2.99,5.57-6.41,4.43-13.04,2.55c-9.22-2.62-17.64-13.76-20-16.99c-9.52-13.09-15.12-26.39-15.25-26.34
			c-0.19,0.07,12.56,35.42,4.69,44.18C853.47,309.41,842.47,306.74,837.67,300.36L837.67,300.36z"/>
		<path class="st33" d="M926.51,202.35c-22.98,22.38-18.19,71.8,8.57,91.22c17.88,12.98,47.87,14.24,56.07,2.32
			c4.51-6.55,3.16-18.16-2.34-21.65c-7.85-4.98-20.43,8.97-28.04,3.87c-5.25-3.53-6.16-14.81-1.56-19.33
			c5.83-5.72,17.04,2.85,24.14-3.09c5.62-4.7,6.2-16.39,1.56-20.1c-6.3-5.04-18.4,7.72-28.04,2.32c-6.45-3.62-9.57-14.12-6.23-18.55
			c4.82-6.4,20.25,3.65,28.82-3.87c5.59-4.91,6.71-15.96,2.34-21.65C973.63,183.23,942.68,186.59,926.51,202.35L926.51,202.35z"/>
		<path class="st33" d="M1000.35,202.66c-2.14,5.62-4,18.64,1.06,19.21c12.17,1.37,29.49-11.65,41.27-2.74
			c12.19,9.21,9.3,45.64,0,54.89c-9.58,9.53-29.05-9.31-37.04,1.37c-3.12,4.17-3.54,11.66-1.59,16.47
			c5.69,14.01,36.24,16.8,52.39-1.37c19.96-22.46,17.47-76.43-4.76-95.37C1034.94,180.85,1006.64,186.14,1000.35,202.66
			L1000.35,202.66z"/>
	</g>
	<path class="st18" d="M251.25,380.69c-4.05-8.34-18.42-37.93-50.42-41.37c-7.44-0.8-14.81-0.06-21.77,1.9
		c-2.55-2.47-6.73-3.67-9.94-5.29c-19.77-9.97-20.61-44.91-20.77-51.35c-0.38-15.96,4.48-31.74,11.65-47.07
		c-1.97,0.58-4.07,0.94-6,1.43c-6.02,1.54-11.58,4.31-17.47,6.07c-1.02,5.03-1.38,7.93-1.38,7.93s-3.37,27.82,4.02,65.45
		c0.38,1.92,2.91,14.26,11.09,28.15c1.66,2.82,3.2,5.4,4.7,7.63c-6.28,5.39-11.45,11.94-14.98,19.18c-9.4,19.3-6.44,42.06,5.47,57.5
		c25.04,32.46,89.4,32.21,108.64,5.14c14.26-20.06-0.05-49.52-2.86-55.3L251.25,380.69z"/>
	<path class="st18" d="M268.44,399.31c8.52,11.63-16.22,27.24-20.11,63.2c-2.46,22.74,4.72,41.7,10.65,48.15
		c0.68,0.74,2.59,3.05,6.41,7.67c7.22,8.74,8.52,10.64,7.91,12.7c-0.88,2.99-5.57,5.65-9.06,4.77c-7.57-1.91-8.06-20.19-9.6-20.02
		c-1.62,0.18,2.1,20.17-5.51,23.77c-2,0.95-4.82,0.77-6.5-0.57c-6.15-4.94,3.6-25.42,3.6-25.42s-3.65,19.33-12.56,21.04
		c-1.95,0.38-4.71,0.02-5.61-1.48c-2.24-3.74,9.79-10.08,12.08-21.46c1.24-6.14-1.01-10.56-2.96-15.98
		c-3.87-10.76-4.2-20.6-4.86-40.27c-0.6-17.98,2.26-56.82,19.26-61.41c5.55-1.5,13.31,0.46,16.86,5.32V399.31z"/>
	<path class="st19" d="M277.45,339.53c13.4-6.4,29.83-1.27,36.7,11.46c4.47,8.29,3.78,17.75-0.94,25.12
		c12.82,6.99,24.35,18.3,32.22,32.88c7.8,14.46,10.7,29.77,9.22,43.54c11.65-2.12,23.9,3.21,29.59,13.75
		c6.87,12.73,1.57,28.24-11.83,34.64s-29.83,1.27-36.7-11.46c-0.14-0.27-0.27-0.53-0.41-0.8c-2.37,1.78-4.93,3.35-7.69,4.67
		c-27.81,13.28-64.91-2.95-82.87-36.25s-9.98-71.06,17.83-84.34c0.65-0.31,1.31-0.59,1.96-0.86
		C259.41,359.63,264.85,345.55,277.45,339.53L277.45,339.53z"/>
	<path class="st20" d="M248.66,379.67c10.49-5.49,23.06-4.06,31.88,2.67c1.26-1.14,2.67-2.15,4.25-2.97
		c11.75-6.15,27.68-0.21,35.59,13.25c4.85,8.26,5.55,17.44,2.66,24.72c8.08,1.54,15.95,6.96,20.81,15.22
		c7.91,13.47,4.8,29.37-6.95,35.52c-2.08,1.09-4.3,1.79-6.58,2.15c1.75,10.87-3.64,22.09-14.38,27.71
		c-8.09,4.23-17.42,4.35-25.31,1.1c-14.85-3.78-32.56-19.08-45.34-40.83c-15.02-25.56-18.41-51.85-9.5-64.4
		c2.3-5.81,6.7-10.9,12.89-14.14H248.66z"/>
	<path class="st20" d="M277.84,364.73c-3.37-6.37,5.95-20.16,15.13-19.26c6.87,0.67,14.14,9.64,12.02,20.99
		C292.28,372.21,280.52,369.79,277.84,364.73L277.84,364.73z"/>
	<path class="st20" d="M361.46,464.74c7.5,0.33,15.81,14.82,10.6,21.98c-3.9,5.36-15.66,6.99-25.14-0.34
		C347.66,473.03,355.51,464.48,361.46,464.74z"/>
	
		<ellipse transform="matrix(0.2526 -0.9676 0.9676 0.2526 -215.5426 586.8177)" class="st21" cx="272.06" cy="432.92" rx="3.78" ry="7.45"/>
	
		<ellipse transform="matrix(0.5824 -0.8129 0.8129 0.5824 -246.6804 414.1612)" class="st21" cx="279.77" cy="447.18" rx="7.17" ry="3.93"/>
	<path class="st22" d="M266.69,460.76c3.33-4.01-6.11-23.03-12.35-23.46c-4-0.28-8.14,6.98-5.61,14.2
		C252,460.8,264.15,463.82,266.69,460.76L266.69,460.76z"/>
	<path class="st23" d="M283.94,420.36c14.93-5.93,23.02-16.39,21.2-21.93c-1.98-6.02-16.92-10.07-34.64-3.04
		c4.48,8.33,8.96,16.65,13.44,24.98V420.36z"/>
	<path class="st24" d="M279.26,412.34c13.64-5.13,21.87-13.06,20.94-16.89c-1.02-4.16-13.51-6.13-29.7-0.06
		C273.42,401.04,276.34,406.69,279.26,412.34L279.26,412.34z"/>
	
		<ellipse transform="matrix(0.9496 -0.3135 0.3135 0.9496 -109.4302 111.3721)" class="st23" cx="291.59" cy="395.95" rx="3.2" ry="2.51"/>
	
		<ellipse transform="matrix(0.9496 -0.3135 0.3135 0.9496 -109.5272 109.3773)" class="st23" cx="285.34" cy="395.26" rx="1.21" ry="0.95"/>
	<path class="st23" d="M308.98,469.54c14.93-5.93,23.02-16.39,21.2-21.93c-1.98-6.02-16.92-10.07-34.64-3.04
		c4.48,8.33,8.96,16.65,13.44,24.98L308.98,469.54z"/>
	<path class="st24" d="M304.3,461.52c13.64-5.13,21.87-13.06,20.94-16.89c-1.02-4.16-13.51-6.13-29.7-0.06
		C298.46,450.22,301.38,455.87,304.3,461.52L304.3,461.52z"/>
	
		<ellipse transform="matrix(0.9496 -0.3135 0.3135 0.9496 -123.5856 121.7029)" class="st23" cx="316.64" cy="445.13" rx="3.2" ry="2.51"/>
	
		<ellipse transform="matrix(0.9496 -0.3135 0.3135 0.9496 -123.6826 119.7081)" class="st23" cx="310.38" cy="444.44" rx="1.21" ry="0.95"/>
	<path class="st21" d="M312.63,408.96c0.77-0.12,5.79-11.14-0.46-18.01c-3.81-4.19-10.56-5.46-11.17-4.88
		c-0.64,0.6,5.78,2.85,9.38,9.04C314.44,402.09,312.02,409.06,312.63,408.96L312.63,408.96z"/>
	<path class="st21" d="M337.76,457.85c0.77-0.12,5.79-11.14-0.46-18.01c-3.81-4.19-10.56-5.46-11.17-4.88
		c-0.64,0.6,5.78,2.85,9.38,9.04C339.57,450.98,337.15,457.95,337.76,457.85L337.76,457.85z"/>
	<path class="st25" d="M218.99,454.29c6.59-5.47,2.1-17.7-2.5-24.62c-16.85-25.38-70.65-33.01-79.09-21.99
		c-3.84,5.01,2.51,13.28,4.59,17.62c13.02,27.19,64.91,39.04,77,29V454.29z"/>
	<path class="st18" d="M177.91,392.18c3.94,16.39,1.21,40.93-13.75,48.59c-8.2,4.2-15.76,1.11-19.33,6.62
		c-3.62,5.59-0.48,10.59-0.8,18.68c-0.35,8.87-13.22,14.77-16.68,10.03c-9.08-12.47-9.39-31.82-9.97-51.62
		c-0.37-12.63,28.14,0.83,33.18-7.06c4.68-7.31-9.79-17.23-5.7-30.64c2.65-8.7,12.42-16.57,20.02-15.11
		C173.37,373.31,176.44,386.06,177.91,392.18z"/>
	<path class="st18" d="M218.87,408.67c12.07,8.39-5.95,30.72,2.77,65.92c5.52,22.26,18.85,38,26.68,42.29
		c0.89,0.49,3.5,2.09,8.7,5.3c9.84,6.06,11.73,7.46,11.86,9.6c0.2,3.1-3.32,7.05-6.92,7.28c-7.82,0.5-14.59-16.64-15.98-16.01
		c-1.47,0.67,8.94,18.44,2.98,24.17c-1.57,1.51-4.3,2.21-6.34,1.44c-7.52-2.8-5.36-25.14-5.36-25.14s3.21,19.4-4.62,23.74
		c-1.71,0.95-4.45,1.46-5.82,0.31c-3.41-2.85,5.79-12.52,4.03-23.99c-0.95-6.19-4.6-9.68-8.31-14.21c-7.37-9-11.08-18.2-18.49-36.61
		c-6.77-16.82-17.46-54.43-2.97-63.97C205.81,405.67,213.83,405.17,218.87,408.67L218.87,408.67z"/>
	<path class="st18" d="M1413.48,398.31c-2.79-2.67-9.18-8.67-12.57-7.08c-3.73,1.76-1.89,11.81-1.23,15.36
		c7.11,38.71,63.86,89.88,62.58,142.98c-0.16,6.44-1,41.38-20.77,51.35c-3.22,1.62-7.39,2.82-9.94,5.29
		c-6.96-1.96-14.33-2.69-21.77-1.9c-32,3.43-46.37,33.03-50.42,41.37c-2.81,5.78-17.11,35.24-2.86,55.3
		c19.24,27.07,83.6,27.32,108.64-5.14c11.91-15.43,14.87-38.19,5.47-57.5c-3.53-7.24-8.69-13.78-14.98-19.18
		c1.51-2.23,3.04-4.81,4.7-7.63c8.18-13.89,10.72-26.23,11.09-28.15c7.38-37.63,4.02-65.45,4.02-65.45s-8.27-68.32-61.97-119.63
		L1413.48,398.31z"/>
	<path class="st18" d="M1342.17,664.31c-8.52,11.63,16.22,27.24,20.11,63.2c2.46,22.74-4.72,41.7-10.65,48.15
		c-0.68,0.74-2.59,3.05-6.41,7.67c-7.22,8.74-8.52,10.64-7.91,12.7c0.88,2.99,5.57,5.65,9.06,4.77c7.57-1.91,8.06-20.19,9.6-20.02
		c1.62,0.18-2.1,20.17,5.51,23.77c2,0.95,4.82,0.77,6.5-0.57c6.15-4.94-3.6-25.42-3.6-25.42s3.65,19.33,12.56,21.04
		c1.95,0.38,4.71,0.02,5.61-1.48c2.24-3.74-9.79-10.08-12.08-21.46c-1.24-6.14,1.01-10.56,2.96-15.98
		c3.87-10.76,4.2-20.6,4.86-40.27c0.6-17.98-2.26-56.82-19.26-61.41c-5.55-1.5-13.31,0.46-16.86,5.32V664.31z"/>
	<path class="st19" d="M1333.16,604.53c-13.4-6.4-29.83-1.27-36.7,11.46c-4.47,8.29-3.78,17.75,0.94,25.12
		c-12.82,6.99-24.35,18.3-32.22,32.88c-7.8,14.46-10.7,29.77-9.22,43.54c-11.65-2.12-23.9,3.21-29.59,13.75
		c-6.87,12.73-1.57,28.24,11.83,34.64c13.4,6.4,29.83,1.27,36.7-11.46c0.14-0.27,0.27-0.53,0.41-0.8c2.37,1.78,4.93,3.35,7.69,4.67
		c27.81,13.28,64.91-2.95,82.87-36.25s9.98-71.06-17.83-84.34c-0.65-0.31-1.31-0.59-1.96-0.86
		C1351.2,624.63,1345.76,610.55,1333.16,604.53z"/>
	<path class="st20" d="M1361.95,644.67c-10.49-5.49-23.06-4.06-31.88,2.67c-1.26-1.14-2.67-2.15-4.25-2.97
		c-11.75-6.15-27.68-0.21-35.59,13.25c-4.85,8.26-5.55,17.44-2.66,24.72c-8.08,1.54-15.95,6.96-20.81,15.22
		c-7.91,13.47-4.8,29.37,6.95,35.52c2.08,1.09,4.3,1.79,6.58,2.15c-1.75,10.87,3.64,22.09,14.38,27.71
		c8.09,4.23,17.42,4.35,25.31,1.1c14.85-3.78,32.56-19.08,45.34-40.83c15.02-25.56,18.41-51.85,9.5-64.4
		c-2.3-5.81-6.7-10.9-12.89-14.14L1361.95,644.67z"/>
	<path class="st20" d="M1332.77,629.73c3.37-6.37-5.95-20.16-15.13-19.26c-6.87,0.67-14.14,9.64-12.02,20.99
		c12.71,5.75,24.47,3.33,27.14-1.72L1332.77,629.73z"/>
	<path class="st20" d="M1249.15,729.74c-7.5,0.33-15.81,14.82-10.6,21.98c3.9,5.36,15.66,6.99,25.14-0.34
		C1262.95,738.03,1255.1,729.48,1249.15,729.74L1249.15,729.74z"/>
	
		<ellipse transform="matrix(0.9676 -0.2526 0.2526 0.9676 -132.9063 360.7092)" class="st21" cx="1338.52" cy="698.03" rx="7.45" ry="3.78"/>
	
		<ellipse transform="matrix(0.8129 -0.5824 0.5824 0.8129 -165.8608 908.3854)" class="st21" cx="1330.87" cy="712.34" rx="3.93" ry="7.17"/>
	<path class="st22" d="M1343.92,725.76c-3.33-4.01,6.11-23.03,12.35-23.46c4-0.28,8.14,6.98,5.61,14.2
		C1358.61,725.8,1346.46,728.82,1343.92,725.76z"/>
	<path class="st23" d="M1326.67,685.36c-14.93-5.93-23.02-16.39-21.2-21.93c1.98-6.02,16.92-10.07,34.64-3.04
		c-4.48,8.33-8.96,16.65-13.44,24.98L1326.67,685.36z"/>
	<path class="st24" d="M1331.34,677.34c-13.64-5.13-21.87-13.06-20.94-16.89c1.02-4.16,13.51-6.13,29.7-0.06
		C1337.18,666.04,1334.26,671.69,1331.34,677.34z"/>
	
		<ellipse transform="matrix(0.3135 -0.9496 0.9496 0.3135 277.8423 1706.4314)" class="st23" cx="1319.11" cy="661.06" rx="2.51" ry="3.2"/>
	
		<ellipse transform="matrix(0.3135 -0.9496 0.9496 0.3135 282.7939 1711.899)" class="st23" cx="1325.37" cy="660.37" rx="0.95" ry="1.21"/>
	<path class="st23" d="M1301.62,734.54c-14.93-5.93-23.02-16.39-21.2-21.93c1.98-6.02,16.92-10.07,34.64-3.04
		c-4.48,8.33-8.96,16.65-13.44,24.98L1301.62,734.54z"/>
	<path class="st24" d="M1306.3,726.52c-13.64-5.13-21.87-13.06-20.94-16.89c1.02-4.16,13.51-6.13,29.7-0.06
		C1312.14,715.22,1309.22,720.87,1306.3,726.52z"/>
	
		<ellipse transform="matrix(0.3135 -0.9496 0.9496 0.3135 213.9468 1716.4205)" class="st23" cx="1294.07" cy="710.24" rx="2.51" ry="3.2"/>
	
		<ellipse transform="matrix(0.3135 -0.9496 0.9496 0.3135 218.8916 1721.8787)" class="st23" cx="1300.32" cy="709.55" rx="0.95" ry="1.21"/>
	<path class="st21" d="M1297.98,673.96c-0.77-0.12-5.79-11.14,0.46-18.01c3.81-4.19,10.56-5.46,11.17-4.88
		c0.64,0.6-5.78,2.85-9.38,9.04C1296.17,667.09,1298.59,674.06,1297.98,673.96L1297.98,673.96z"/>
	<path class="st21" d="M1272.84,722.85c-0.77-0.12-5.79-11.14,0.46-18.01c3.81-4.19,10.56-5.46,11.17-4.88
		c0.64,0.6-5.78,2.85-9.38,9.04C1271.03,715.98,1273.45,722.95,1272.84,722.85L1272.84,722.85z"/>
	<path class="st25" d="M1391.62,719.29c-6.59-5.47-2.1-17.7,2.5-24.62c16.85-25.38,70.65-33.01,79.09-21.99
		c3.84,5.01-2.51,13.28-4.59,17.62c-13.02,27.19-64.91,39.04-77,29V719.29z"/>
	<path class="st18" d="M1432.7,657.18c-3.94,16.39-1.21,40.93,13.75,48.59c8.2,4.2,15.76,1.11,19.33,6.62
		c3.62,5.59,0.48,10.59,0.8,18.68c0.35,8.87,13.22,14.77,16.68,10.03c9.08-12.47,9.39-31.82,9.97-51.62
		c0.37-12.63-28.14,0.83-33.18-7.06c-4.68-7.31,9.79-17.23,5.7-30.64c-2.65-8.7-12.42-16.57-20.02-15.11
		C1437.24,638.31,1434.17,651.06,1432.7,657.18L1432.7,657.18z"/>
	<path class="st18" d="M1391.74,673.67c-12.07,8.39,5.95,30.72-2.77,65.92c-5.52,22.26-18.85,38-26.68,42.29
		c-0.89,0.49-3.5,2.09-8.7,5.3c-9.84,6.06-11.73,7.46-11.86,9.6c-0.2,3.1,3.32,7.05,6.92,7.28c7.82,0.5,14.59-16.64,15.98-16.01
		c1.47,0.67-8.94,18.44-2.98,24.17c1.57,1.51,4.3,2.21,6.34,1.44c7.52-2.8,5.36-25.14,5.36-25.14s-3.21,19.4,4.62,23.74
		c1.71,0.95,4.45,1.46,5.82,0.31c3.41-2.85-5.79-12.52-4.03-23.99c0.95-6.19,4.6-9.68,8.31-14.21c7.37-9,11.08-18.2,18.49-36.61
		c6.77-16.82,17.46-54.43,2.97-63.97C1404.8,670.67,1396.78,670.17,1391.74,673.67L1391.74,673.67z"/>
	<path class="st34" d="M136.5,783.03c11.84-14.76,73.87-8.12,197.44,5.74c15.06,1.69,33.38,4,42.31,17.23
		c14.4,21.36-13.37,44.92-8.23,88.46c4.62,39.13,30.29,47.56,24.68,70.08c-7.3,29.29-57.08,40.48-91.67,48.25
		c-85.31,19.17-151.62,1.34-183.34-21.83c-7.33-5.35-13.79-11.68-16.45-20.68c-6.32-21.33,14.04-39.62,25.86-60.89
		c30.59-55.1-15.83-94.91,9.4-126.37L136.5,783.03z"/>
	<path class="st35" d="M413.27,480.57c-20.01-29.92-57.49-35.45-66.92-36.85c-44.5-6.57-96,13.89-112.62,49.51
		c-11.76,25.19,4.92,34.44,0.75,92.62c-3.38,47.26-15.34,54.52-8.01,77.2c10.23,31.66,47.32,60.19,82.07,57.6
		c43.84-3.27,66.49-54.75,88.5-104.79c19.51-44.36,42.34-96.24,16.22-135.29L413.27,480.57z"/>
	<path class="st35" d="M100.46,490.72C43.6,496.84-2.93,547.84-16.36,598.5c-15.32,57.79,21.19,82.1,0,130.58
		c-21.25,48.61-68.07,47.3-70.93,80.83c-3.52,41.38,63.17,97.26,114.74,87.05c22.65-4.49,30.32-19.34,85.53-103.63
		c70.39-107.47,84.84-124.41,91.79-165.81c4.76-28.36,12.6-75.12-16.69-107.78C157.27,485.38,106.4,490.08,100.46,490.72
		L100.46,490.72z"/>
	<path class="st36" d="M48.29,553.33c-8.06-6.28-35.47,22.75-45.35,59.19c-6.52,24.07-5.21,50.66-3.99,75.2
		c1.37,27.73,4.9,38.21-0.83,52.59c-6.01,15.1-14.95,16.24-19.4,32.72c-3.43,12.7-2.65,28.79,2.11,31.22
		c6.33,3.24,18.65-18.14,27.05-32.71c9.06-15.71,20.09-34.85,27.42-63.52c6.3-24.64,2.74-28.48,7.57-81.03
		c4.95-53.89,10.51-69.7,5.42-73.68V553.33z"/>
	<path class="st34" d="M410.2,673.91c-9.91-8.55-21.05-4.93-66.76-2.07c-45.65,2.86-53.76,0.45-60.5-4.15
		c-15.4-10.51-11.69-24.36-25.03-35.24c-10.57-8.61-30.72-14.45-73.01,0c1.61,12.79,1.53,29-8.34,37.31
		c-7.83,6.59-15.7,3.06-37.55,6.22c-11.14,1.61-23.06,3.35-32.83,7.47l0.33-1.47c-60.21,28.67-78.27,58.57-83.46,80.84
		c-4.51,19.42,0.33,34.95-8.34,76.67c-6.95,33.45-12.04,32.96-10.42,45.6c4.59,36.37,48.75,56.86,95.95,78.77
		c26.62,12.35,37.11,13.07,43.81,8.28c9.68-6.86,11.91-25.4,6.27-39.37c-12.68-31.38-58.91-24.31-68.83-53.88
		c-3.35-9.93,1.57-11.57,2.07-43.52c0.29-17.57,19.86-50.6,18.76-60.11l19.85-17.61c12.53,15.29,15.4,6.45,123.24,15.76
		c90.9,7.85,117.11,7.64,141.86-10.36c6.74-4.9,29.93-21.77,33.38-49.74c0.52-4.25,3.38-27.47-10.43-39.38L410.2,673.91z"/>
	<path class="st37" d="M110.83,824.99c-3.92-5.79-17.28-25.52-12.52-47.67c2.2-10.21,8.65-22.84,29.21-37.31
		c61.49-43.29,167.93-45.94,221.13-6.22c16.96,12.66,23.51,25.89,25.08,29.24c10.51,22.38,7.34,47.37,2.04,59.88
		C348.86,886.32,155.61,891.12,110.83,824.99L110.83,824.99z"/>
	<path class="st34" d="M91.88,449.84C67.67,489.27,75.83,565.76,93.97,597c1.18,2.04,2.29,3.9,3.89,5.81
		c11.57,13.82,25.72,18.35,43.5,24.78c33.55,12.13,27.7,14.51,46.49,19.16c2.53,0.63,24.09,7.32,47.98,4.15
		c49.62-6.58,99.88-43.76,110.57-58.03c5.56-7.42,33.33-74.43,12.52-124.36c-32.21-77.27-220.62-94.23-267.03-18.65L91.88,449.84z"
		/>
	<path class="st35" d="M342.22,385.01c-43.66-40.85-129.92-22.24-155.62,0c-34.35-15.37-115.08-8.48-145.39,50.59
		c-18.77,36.58-17.95,92.7,4.85,105.15C81.7,560.2,175.84,475.57,198.02,424.2c40.21,32.45,133,66.27,160.9,44.29
		c19.54-15.4,8.92-59.52-16.69-83.48H342.22z"/>
	<path class="st38" d="M129.5,526.7c-2.27,0.3-4.79,0.44-6.8-0.3c-3.28-1.21-3.76-4.25-2.87-4.71c0.65-0.33,1.51,0.95,4.85,1.66
		c0.89,0.19,5.76,1.23,10.7-0.74c1.69-0.67,3.6-1.77,3.48-2.23c-0.16-0.62-3.91,0.72-7.24,0.19c-3.79-0.6-5.16-3.32-4.39-3.84
		c0.55-0.37,2.02,0.54,6.47,1.09c5.28,0.65,7.78-0.07,8.43-0.27c2.43-0.75,4.7-2.15,4.56-2.61c-0.17-0.58-3.89,0.83-7.24,0.19
		c-2.45-0.47-3.99-1.89-3.33-2.53c0.64-0.62,2.84,0.01,7.14-0.49c6.21-0.73,8.74-2.88,11.91-2.5c2.42,0.29,4.12,1.92,3.75,3.73
		C157.87,518.44,140.22,525.26,129.5,526.7L129.5,526.7z"/>
	<path class="st39" d="M145.06,535.71c-8.74-12.51,3.62-40.23,25.36-43.84c6.35-1.05,11.6,0.31,14.6,1.19
		c18.8,5.5,33.38,25.63,28.05,37.67c-7.6,17.16-56.92,20.84-68,4.98H145.06z"/>
	<path class="st40" d="M161.76,532.21c-6.36-10.27,2.63-33.03,18.45-35.99c4.62-0.86,8.44,0.25,10.62,0.97
		c13.68,4.51,24.29,21.04,20.41,30.93C205.71,542.21,169.82,545.23,161.76,532.21L161.76,532.21z"/>
	<path class="st27" d="M166.69,530.06c-5.17-8.37,2.14-26.91,15.01-29.32c3.76-0.7,6.87,0.21,8.64,0.79
		c11.13,3.68,19.76,17.15,16.6,25.2C202.44,538.21,173.25,540.67,166.69,530.06z"/>
	<ellipse class="st39" cx="191.74" cy="511.9" rx="7.15" ry="6.75"/>
	<path class="st38" d="M332.11,521.7c2.27,0.3,4.79,0.44,6.8-0.3c3.28-1.21,3.76-4.25,2.87-4.71c-0.65-0.33-1.51,0.95-4.85,1.66
		c-0.89,0.19-5.76,1.23-10.7-0.74c-1.69-0.67-3.6-1.77-3.48-2.23c0.16-0.62,3.91,0.72,7.24,0.19c3.79-0.6,5.16-3.32,4.39-3.84
		c-0.55-0.37-2.02,0.54-6.47,1.09c-5.28,0.65-7.78-0.07-8.43-0.27c-2.43-0.75-4.7-2.15-4.56-2.61c0.17-0.58,3.89,0.83,7.24,0.19
		c2.45-0.47,3.99-1.89,3.33-2.53c-0.64-0.62-2.84,0.01-7.14-0.49c-6.21-0.73-8.74-2.88-11.91-2.5c-2.42,0.29-4.12,1.92-3.75,3.73
		c1.05,5.1,18.7,11.92,29.41,13.36H332.11z"/>
	<path class="st39" d="M317.54,530.71c8.74-12.51-3.62-40.23-25.36-43.84c-6.35-1.05-11.6,0.31-14.6,1.19
		c-18.8,5.5-33.38,25.63-28.05,37.67c7.6,17.16,56.92,20.84,68,4.98H317.54z"/>
	<path class="st40" d="M300.84,527.21c6.36-10.27-2.63-33.03-18.45-35.99c-4.62-0.86-8.44,0.25-10.62,0.97
		c-13.68,4.51-24.29,21.04-20.41,30.93C256.89,537.21,292.78,540.23,300.84,527.21L300.84,527.21z"/>
	<path class="st27" d="M295.91,525.06c5.17-8.37-2.14-26.91-15.01-29.32c-3.76-0.7-6.87,0.21-8.64,0.79
		c-11.13,3.68-19.76,17.15-16.6,25.2C260.16,533.21,289.35,535.67,295.91,525.06L295.91,525.06z"/>
	<ellipse class="st39" cx="284.86" cy="508.9" rx="7.15" ry="6.75"/>
	<path class="st41" d="M225.52,572.53c0.46-0.07,1.13,0.32,3.98,0.86c2.17,0.41,3.96,0.6,4.43,0.65c2.32,0.24,4.18,0.29,4.79,0.3
		c0,0,0.67,0.01,1.33,0.01c4.37,0,11.22-1.57,12.51-1.28c1,0.23-0.44,1.76-4.4,2.71c-4.78,1.15-13.07,1.42-18.24,0.18
		c-4.86-1.17-5.38-3.3-4.4-3.44L225.52,572.53z"/>
	<path class="st42" d="M204.5,613.5c-0.16-2.5,16.73-5.69,28-7c20.81-2.43,43.79-0.94,44,2c0.2,2.75-19.46,6.86-36,8
		C223.66,617.66,204.66,616.12,204.5,613.5z"/>
	<path class="st43" d="M118.13,765.68c-37.85,9.54-56.08,61.28-44.27,99.75c12.95,42.17,63.67,73.83,99.43,59.38
		c37.11-14.99,46.74-75.03,25.69-113.98C184.84,784.67,151.12,757.36,118.13,765.68L118.13,765.68z"/>
	
		<ellipse transform="matrix(0.3819 -0.9242 0.9242 0.3819 -638.9346 617.4936)" class="st27" cx="142.17" cy="786.41" rx="4.6" ry="14.39"/>
	
		<ellipse transform="matrix(0.9928 -0.12 0.12 0.9928 -95.5528 20.8576)" class="st27" cx="125.46" cy="804.07" rx="4.7" ry="14.07"/>
	
		<ellipse transform="matrix(0.6973 -0.7168 0.7168 0.6973 -540.2061 316.0293)" class="st27" cx="104.06" cy="797.59" rx="14.28" ry="4.63"/>
	<path class="st28" d="M79.76,819.05c-1.93,8.61-7.79,39.72,11,66.48c17.51,24.94,48.85,35.33,51.35,31.88
		c2.01-2.77-14.96-13.97-32.67-38.12c-16.45-22.44-24.98-44.39-29.69-60.24H79.76z"/>
	<path class="st34" d="M33.32,874.67c34.17-7.15,50.06,34.11,106.14,42.33c37.91,5.56,59.46-9.08,76.66,4.91
		c10.7,8.71,15.35,24.94,9.51,36.43c-15.22,29.95-105.21,34.59-167.39,4.27c-7.27-3.55-60.87-29.68-56.25-58.83
		c1.99-12.59,14.84-25.66,31.32-29.11H33.32z"/>
	<path class="st44" d="M99.43,709.66c-1.52-6.42-19.67-1.31-32.67,15.33c-9.49,12.15-13.3,26.68-19.76,51.33
		c-2.78,10.61-7.69,29.36-4.88,30.43c2.82,1.07,13.43-15.56,19.99-32.69c6.19-16.18,4.46-21.53,10.2-29.45
		c6.27-8.65,11.08-6.05,18.88-16.5C94.96,723.07,100.38,713.69,99.43,709.66z"/>
	<path class="st36" d="M107.92,405.15c-2.02-1.61-5.86-0.05-13.53,3.07c-11.6,4.72-26.58,10.8-35.55,25.49
		c-7.5,12.28-7.13,24.53-6.4,47.99c0.54,17.49,3.15,31.7,5.34,41.13c4.87-6.74,11.78-16.85,19.21-29.71
		c18.24-31.6,40.04-80.74,30.95-87.98L107.92,405.15z"/>
	<path class="st43" d="M283.78,797.57c-29.49-6.69-53.32-21.8-65.45-39.33c-7.58,5.85-14.34,12.58-19.84,19.99
		c-31.38,42.28-25.87,111.89,13.35,134.54c40.7,23.5,105.25-10.76,127.79-58.21c7.96-16.76,12.38-38.75,10.22-59.39
		C331.8,801.79,308.23,803.13,283.78,797.57L283.78,797.57z"/>
	<path class="st28" d="M228.63,778.38c-8.57,5.12-38.57,24.4-43.8,57.78c-4.88,31.1,13.86,60.99,18.78,60.16
		c3.95-0.67-1.72-21.05,2.36-51.69c3.79-28.47,14.02-50.99,22.66-66.24V778.38z"/>
	<path class="st45" d="M209.11,774.13c-4.56-16.99,36.4-28.63,55.61-22.76c11.95,3.65,11.7,16.4,26.92,21.44
		c15.56,5.15,24.9-5.16,38.29-0.75c16.65,5.5,29.43,30.44,20.69,41.25c-17.4,21.52-134.26-12.22-141.51-39.19L209.11,774.13z"/>
	<path class="st46" d="M214.5,767.79c-5.86-11.22,27.25-22.53,46.43-17.25c11.93,3.29,12.76,11.42,27.98,15.85
		c15.56,4.54,23.79-1.31,37.18,2.59c16.66,4.84,31.18,21.81,23.58,28.02c-15.12,12.36-125.87-11.4-135.18-29.21H214.5z"/>
	<path class="st47" d="M281.08,786.32c30.02-50.02,40.64-92.01,30.43-99.72c-0.57-0.43,3.16,1.01-23.33-3.45
		c-5.15-0.87-9-1.52-11.61,0.79c-3.34,2.96,0,0-2.38,3.35c-5.17,7.27,23.13,4.58,27.93,9.06c14.76,13.76-28.49,84.9-28.49,84.9
		c2.11,2.93,5.22,4.34,7.45,5.06L281.08,786.32z"/>
	
		<ellipse transform="matrix(0.218 -0.976 0.976 0.218 -547.3077 878.4828)" class="st48" cx="274.51" cy="780.76" rx="9.2" ry="18.2"/>
	<path class="st34" d="M391.52,681.2c14.98-8.27,37.29-7.22,48.18,4.97c5.98,6.69,15,23.99-19.98,113.13
		c-34.04,86.76-51.06,130.13-88.14,152.91c-43,26.41-106.51,31.44-129.28,2.49c-8.14-10.35-13.02-27.53-7.05-37.3
		c7.59-12.4,27.93-5.08,62.29-11.19c15.6-2.77,38.18-6.79,55.24-19.89c14.75-11.33,21.77-26.69,44.66-120.59
		c13.71-56.22,17.16-75.19,34.08-84.54L391.52,681.2z"/>
	<path class="st49" d="M253.94,464.66c3.58,4.14,13.26,14.16,29.22,18.03c20.01,4.86,37.72-2.91,37.52-3.99
		c-0.16-0.85-11.4,2.05-28.03-1.15c-6.01-1.16-10.85-2.75-18.17-5.17c-8.55-2.82-15.54-5.6-20.55-7.72H253.94z"/>
	<path class="st49" d="M132.36,487.76c5.13,1.91,18.42,6.08,34.29,1.83c19.89-5.32,31.72-20.62,31.03-21.47
		c-0.54-0.67-9.03,7.26-25.16,12.41c-5.83,1.86-10.84,2.78-18.42,4.16C145.25,486.31,137.78,487.22,132.36,487.76L132.36,487.76z"/>
	<g class="st50">
	</g>
	<g class="st50">
	</g>
</g>
</svg>
