<?xml version="1.0" encoding="UTF-8"?><svg id="Layer_1" xmlns="http://www.w3.org/2000/svg" width="121" height="359" xmlns:xlink="http://www.w3.org/1999/xlink" viewBox="0 0 121 359"><defs><style>.cls-1{filter:url(#drop-shadow-6);}.cls-2{fill:#ff1d25;stroke-width:0px;}</style><filter id="drop-shadow-6" filterUnits="userSpaceOnUse"><feOffset dx="7" dy="7"/><feGaussianBlur result="blur" stdDeviation="5"/><feFlood flood-color="#4c3818" flood-opacity=".5"/><feComposite in2="blur" operator="in"/><feComposite in="SourceGraphic"/></filter></defs><g class="cls-1"><path class="cls-2" d="m84,337H23c-8.27,0-15-6.73-15-15V23c0-8.27,6.73-15,15-15h61c8.27,0,15,6.73,15,15v299c0,8.27-6.73,15-15,15ZM23,14c-4.96,0-9,4.04-9,9v299c0,4.96,4.04,9,9,9h61c4.96,0,9-4.04,9-9V23c0-4.96-4.04-9-9-9H23Z"/></g></svg>