<?xml version="1.0" encoding="UTF-8"?>
<svg id="Layer_2" data-name="Layer 2" xmlns="http://www.w3.org/2000/svg" viewBox="0 0 10.16 31.25">
  <defs>
    <style>
      .cls-1 {
        fill: #587b89;
      }

      .cls-1, .cls-2, .cls-3, .cls-4 {
        stroke: #333;
        stroke-miterlimit: 10;
        stroke-width: .25px;
      }

      .cls-2 {
        fill: #a9e2ff;
      }

      .cls-3 {
        fill: #ecf7fa;
      }

      .cls-4 {
        fill: #b3b3b3;
      }
    </style>
  </defs>
  <path class="cls-2" d="M4.69,31.05c-1.06.12-1.9.07-2.48,0-.52-.06-.72-.13-.9-.23-.85-.46-1.07-1.52-1.13-1.92,0-.58,0-1.52,0-2.14,0-7.48.03-13.18.06-18.53.28-1.18.34-1.41.45-1.69.15-.37.44-.9,1.01-1.46h6.76c.26.3.53.67.79,1.13.51.91.7,1.77.79,2.37-.04,6.84-.08,13.67-.11,20.51-.07.26-.22.69-.56,1.13-.32.41-.67.66-.9.79-1.26.02-2.52.04-3.77.06Z"/>
  <path class="cls-3" d="M8.46,5.08c-.21-.33-.53-.74-1.01-1.13-.24-.19-.47-.34-.68-.45h-3.49c-.28.21-.59.47-.9.79-.27.27-.49.54-.68.79h6.76Z"/>
  <rect class="cls-3" x="3.34" y="2.43" width="3.49" height="1.01"/>
  <rect class="cls-4" x="2.94" y=".12" width="4.28" height="2.25"/>
  <rect class="cls-1" x=".12" y="10.38" width="9.8" height="8.56"/>
</svg>